<?xml version="1.0" encoding="UTF-8"?>
<svg width="129px" height="55px" viewBox="0 0 129 55" version="1.1" xmlns="http://www.w3.org/2000/svg" xmlns:xlink="http://www.w3.org/1999/xlink">
    <!-- Generator: Sketch 43.1 (39012) - http://www.bohemiancoding.com/sketch -->
    <title>gOT IT</title>
    <desc>Created with Sketch.</desc>
    <defs>
        <path d="M56.0146312,206.884502 C57.3641438,208.51647 58.0388899,210.101339 58.0388899,211.639156 C58.0388899,214.338181 56.046035,216.739022 52.0602654,218.841751 C49.0787841,220.442336 45.7678204,221.619218 42.1272749,222.372435 C40.1500821,222.780427 37.8277,222.890269 35.1600589,222.701965 C33.6850103,222.576429 32.0373743,222.246902 30.2171016,221.713374 C27.5180765,220.928773 25.9175158,219.940192 25.4153716,218.747599 C25.2584515,218.370991 25.1799927,217.994389 25.1799927,217.617781 C25.1799927,215.954428 25.8704306,214.338175 27.2513272,212.768975 C28.6949918,211.042854 30.4053948,209.552136 32.3825876,208.296775 C34.2970124,207.041415 35.9289566,206.413744 37.2784692,206.413744 C37.5923093,206.413744 37.8276859,206.429436 37.9846059,206.46082 C38.204294,206.241132 38.549513,206.178365 39.0202732,206.272517 C39.5224174,206.303901 39.8362528,206.303901 39.9617889,206.272517 C39.0516525,207.088501 37.5923178,208.171233 35.5837409,209.520746 C34.6736046,210.117042 33.8968619,210.658408 33.2534896,211.14486 C32.6101174,211.631312 32.084443,212.078528 31.6764509,212.48652 C30.4838584,213.773265 29.6365027,215.201216 29.1343585,216.770416 C28.9460545,217.429481 29.4011158,218.025768 30.4995563,218.559296 C31.8176848,219.186976 33.6850056,219.642038 36.1015746,219.924494 C37.043095,220.081414 38.0787518,220.081414 39.2085763,219.924494 C42.7235858,219.610654 45.7834811,218.857449 48.3883542,217.664856 C51.7464436,216.189808 53.566689,214.322487 53.8491451,212.062838 C54.1002172,210.305333 52.8762591,208.642006 50.177234,207.072805 C48.1372732,205.880212 45.9090417,205.032857 43.4924727,204.530713 C41.923272,204.216872 40.416862,204.169797 38.9731974,204.389485 C38.8790454,204.389485 38.3141416,204.562095 37.2784692,204.907319 C36.4624848,205.189775 35.7563551,205.331001 35.1600589,205.331001 C34.4696106,205.331001 33.826248,205.1427 33.2299517,204.766091 L33.2299517,204.107031 C33.2299517,203.699038 33.2456435,203.102751 33.2770275,202.318151 L33.2770275,199.399452 C32.7748833,199.211148 32.2805925,199.022847 31.7941403,198.834543 C31.3076881,198.646239 30.8133973,198.442246 30.3112531,198.222558 C29.1500447,197.689029 28.4596067,196.935824 28.2399186,195.96292 C28.1457666,195.523544 28.4752938,194.801722 29.2285101,193.797434 C29.5737342,193.389442 29.8797238,193.036377 30.1464879,192.738229 C30.413252,192.440081 30.6721662,192.21255 30.9232383,192.05563 C31.9275267,191.333798 32.7748824,190.745356 33.4653307,190.290288 C34.1557789,189.83522 34.6736074,189.513538 35.0188315,189.325234 C36.02312,188.728938 37.1529275,188.289568 38.408288,188.007112 C38.34552,187.034208 38.6593554,186.07701 39.3498037,185.13549 C40.040252,184.099817 40.8248405,183.581989 41.7035929,183.581989 C41.954665,183.581989 42.2057333,183.629064 42.4568054,183.723216 C42.6137255,184.131208 42.7706432,185.166865 42.9275633,186.830218 C43.9632357,186.76745 45.1715021,187.096977 46.5523986,187.818809 C48.1843673,188.666178 49.0003394,189.654759 49.0003394,190.784584 C49.0003394,191.06704 48.9846476,191.271033 48.9532636,191.396569 C48.4197354,193.248226 46.86625,194.895862 44.292761,196.339526 C43.3198566,196.84167 41.2642346,197.689026 38.1258333,198.881618 C37.6864571,199.069923 37.4981558,199.776052 37.5609239,201.000029 C41.8291496,201.000029 45.1401133,201.282481 47.4939143,201.847393 C51.0716918,202.757529 53.9119023,204.436549 56.0146312,206.884502 Z M44.5752157,190.925811 C44.3241436,190.172595 43.6023221,189.921526 42.4097296,190.172598 C38.2984239,190.894431 35.2542203,192.57345 33.2770275,195.209707 C33.7791717,195.398011 34.375459,195.492162 35.0659073,195.492162 C36.823412,195.492162 38.7221163,195.021409 40.7620772,194.079889 C42.802038,193.138368 44.0730715,192.087019 44.5752157,190.925811 Z M69.1252371,189.654765 C70.8827418,190.941509 71.761481,192.620529 71.761481,194.691874 C71.761481,196.261074 71.2593443,197.689026 70.2550559,198.97577 C69.1566154,200.356667 67.744356,201.282481 66.0182353,201.753241 C65.5788591,201.910161 64.9668801,202.074925 64.1822797,202.247537 C63.3976794,202.420149 62.4561732,202.616296 61.3577327,202.835984 C60.9811245,202.867368 60.6280597,202.890906 60.2985276,202.906598 C59.9689954,202.92229 59.6473141,202.930136 59.333474,202.930136 C54.3747999,202.930136 51.1893704,201.266808 49.7770898,197.940103 C49.6201698,197.563495 49.5417109,197.202584 49.5417109,196.85736 C49.5417109,195.288159 50.4204501,193.530681 52.1779548,191.584872 C53.2450113,190.392279 54.5160447,189.435081 55.9910933,188.713249 C57.4661419,187.991417 58.8627096,187.66189 60.1808381,187.724658 C62.5660231,187.81881 64.0881249,187.91296 64.7471891,188.007112 C66.4733099,188.2268 67.9326446,188.776012 69.1252371,189.654765 Z M63.1936883,190.784584 C62.8484641,190.815968 62.5346287,190.823814 62.2521726,190.808122 C61.9697165,190.79243 61.7500317,190.768892 61.5931116,190.737508 C60.9026633,190.423668 60.4946773,190.282442 60.3691412,190.313826 C59.1137807,190.784586 57.8898226,191.569175 56.6972301,192.667615 C55.3163335,193.922976 54.4846696,195.146934 54.2022135,196.339526 C53.9511414,197.437967 54.73573,198.285322 56.5560027,198.881618 C58.0310513,199.383763 59.7100708,199.587756 61.5931116,199.493604 C63.1309283,199.681908 64.4333453,199.195463 65.5004017,198.034254 C66.5046901,196.935814 67.0068268,195.711856 67.0068268,194.362343 C67.0068268,192.134078 65.7357933,190.941504 63.1936883,190.784584 Z M90.3799535,189.278159 C89.8150413,189.999991 88.5596996,190.455052 86.6138908,190.643356 C84.2914739,190.83166 82.9419816,191.035653 82.5653734,191.255341 L82.7066008,196.198299 C82.9576729,198.332412 83.7579532,199.776055 85.1074657,200.529271 C85.1702338,200.780343 85.2016173,200.952953 85.2016173,201.047105 C85.2016173,201.298177 85.1231584,201.510016 84.9662384,201.682628 C84.8093183,201.85524 84.6680924,202.035695 84.5425563,202.223999 C84.3228682,202.255383 84.1110293,202.278921 83.9070332,202.294613 C83.7030372,202.310305 83.50689,202.318151 83.3185859,202.318151 C79.5211204,202.318151 77.7479502,198.803194 77.9990223,191.773175 L71.8791704,191.773175 C71.4711783,191.773175 71.0004251,191.223963 70.4668969,190.125523 C70.592433,189.999987 70.7728883,189.843069 71.0082684,189.654765 C71.2436485,189.466461 71.5653298,189.246776 71.973322,188.995704 L71.9262462,189.04278 C72.6166945,189.105548 73.4483584,189.121239 74.4212628,189.089855 C75.3941672,189.058471 76.5239747,188.980013 77.8107192,188.854476 C80.5725124,188.57202 82.173073,188.430794 82.6124492,188.430794 L86.9904971,188.430794 C87.0532651,188.430794 87.53971,188.57202 88.4498464,188.854476 C89.3599828,189.074165 90.0033454,189.215391 90.3799535,189.278159 Z M127.569823,181.934336 C127.287367,182.43648 126.989223,183.079843 126.675383,183.864443 C124.22743,185.684716 121.905048,186.78314 119.708167,187.159748 C119.551247,187.191132 119.386483,187.21467 119.213871,187.230362 C119.041259,187.246054 118.860804,187.2539 118.6725,187.2539 C117.291603,187.2539 116.051953,186.940064 114.953513,186.312384 C113.604,185.559168 112.882179,184.492127 112.788027,183.111231 C112.725259,181.950022 113.431388,180.631914 114.906437,179.156865 C116.41287,177.681816 117.840821,176.881536 119.190333,176.756 C119.849398,176.850152 120.853671,176.944303 122.203184,177.038455 C123.458544,177.007071 124.682502,177.336598 125.875095,178.027046 C127.161839,178.843031 127.805202,179.800229 127.805202,180.898669 C127.805202,181.212509 127.726743,181.557728 127.569823,181.934336 Z M122.250259,201.65909 C126.644021,202.851682 128.840869,203.746113 128.840869,204.342409 C128.840869,204.844554 127.42861,205.095622 124.604049,205.095622 C122.407168,205.095622 120.163244,204.954396 117.872211,204.67194 C115.424258,204.3581 113.917848,203.981497 113.352936,203.542121 C113.196016,203.228281 113.148941,202.804603 113.211709,202.271075 C113.462781,202.239691 113.619699,201.925856 113.682467,201.329559 C114.090459,201.015719 114.592595,200.858801 115.188892,200.858801 C115.691036,200.858801 116.318707,200.968644 117.071923,201.188332 C117.479915,201.313868 117.801597,201.400173 118.036977,201.447249 C118.272357,201.494325 118.452812,201.533554 118.578348,201.564938 C118.609732,199.681897 118.578349,198.144104 118.484197,196.951511 C118.390045,195.758919 118.26451,194.864488 118.10759,194.268192 L116.789468,194.786025 C116.161788,195.037097 115.73811,195.131248 115.518422,195.06848 C115.235966,194.848792 114.780905,194.613415 114.153224,194.362343 C114.153224,194.268191 114.137533,194.064198 114.106149,193.750358 C114.074765,193.436518 114.059073,193.232525 114.059073,193.138373 C114.561217,192.604845 115.56549,192.102708 117.071923,191.631948 C117.417147,191.475028 117.840825,191.310264 118.342969,191.137652 C118.845113,190.96504 119.410017,190.784585 120.037697,190.596281 C120.13185,190.596281 120.26523,190.611972 120.437842,190.643356 C120.610454,190.67474 120.798755,190.71397 121.002751,190.761046 C121.206747,190.808122 121.395048,190.847351 121.56766,190.878735 C121.740273,190.910119 121.873653,190.925811 121.967805,190.925811 C122.564101,191.302419 122.862245,192.918672 122.862245,195.774617 C122.862245,198.285338 122.658251,200.246809 122.250259,201.65909 Z M123.709609,180.851593 C123.709609,180.255297 123.09763,179.831619 121.873653,179.580547 C120.775213,179.329475 120.084775,179.266708 119.802319,179.392244 C118.672494,179.768852 117.762371,180.773125 117.071923,182.405094 C117.166075,183.377998 117.778054,183.864443 118.907879,183.864443 C119.504175,183.864443 120.08477,183.754601 120.649683,183.534913 C122.689644,182.530624 123.709609,181.636194 123.709609,180.851593 Z M145.999992,189.278159 C145.43508,189.999991 144.179738,190.455052 142.23393,190.643356 C139.911513,190.83166 138.56202,191.035653 138.185412,191.255341 L138.32664,196.198299 C138.577712,198.332412 139.377992,199.776055 140.727505,200.529271 C140.790273,200.780343 140.821656,200.952953 140.821656,201.047105 C140.821656,201.298177 140.743197,201.510016 140.586277,201.682628 C140.429357,201.85524 140.288131,202.035695 140.162595,202.223999 C139.942907,202.255383 139.731068,202.278921 139.527072,202.294613 C139.323076,202.310305 139.126929,202.318151 138.938625,202.318151 C135.141159,202.318151 133.367989,198.803194 133.619061,191.773175 L127.499209,191.773175 C127.091217,191.773175 126.620464,191.223963 126.086936,190.125523 C126.212472,189.999987 126.392927,189.843069 126.628307,189.654765 C126.863687,189.466461 127.185369,189.246776 127.593361,188.995704 L127.546285,189.04278 C128.236733,189.105548 129.068397,189.121239 130.041302,189.089855 C131.014206,189.058471 132.144014,188.980013 133.430758,188.854476 C136.192551,188.57202 137.793112,188.430794 138.232488,188.430794 L142.610536,188.430794 C142.673304,188.430794 143.159749,188.57202 144.069885,188.854476 C144.980022,189.074165 145.623384,189.215391 145.999992,189.278159 Z" id="path-1"></path>
        <filter x="-5.8%" y="-10.9%" width="111.6%" height="130.4%" filterUnits="objectBoundingBox" id="filter-2">
            <feOffset dx="0" dy="2" in="SourceAlpha" result="shadowOffsetOuter1"></feOffset>
            <feGaussianBlur stdDeviation="2" in="shadowOffsetOuter1" result="shadowBlurOuter1"></feGaussianBlur>
            <feColorMatrix values="0 0 0 0 0   0 0 0 0 0   0 0 0 0 0  0 0 0 0.5 0" type="matrix" in="shadowBlurOuter1"></feColorMatrix>
        </filter>
    </defs>
    <g id="Symbols" stroke="none" stroke-width="1" fill="none" fill-rule="evenodd">
        <g id="iPhone-SE" transform="translate(-21.000000, -174.000000)">
            <g id="gOT-IT">
                <use fill="black" fill-opacity="1" filter="url(#filter-2)" xlink:href="#path-1"></use>
                <use fill="#DF2053" fill-rule="evenodd" xlink:href="#path-1"></use>
            </g>
        </g>
    </g>
</svg>