<?xml version="1.0" encoding="UTF-8"?>
<svg width="157px" height="66px" viewBox="0 0 157 66" version="1.1" xmlns="http://www.w3.org/2000/svg" xmlns:xlink="http://www.w3.org/1999/xlink">
    <!-- Generator: Sketch 43.1 (39012) - http://www.bohemiancoding.com/sketch -->
    <title>gOT IT</title>
    <desc>Created with Sketch.</desc>
    <defs>
        <path d="M63.1605517,213.866775 C64.8228135,215.876952 65.6539319,217.829114 65.6539319,219.723319 C65.6539319,223.047843 63.1992333,226.005078 58.2897625,228.595114 C54.6173236,230.566634 50.5390449,232.016259 46.0548038,232.944033 C43.619397,233.446577 40.7588033,233.581876 37.472937,233.349932 C35.6560462,233.195303 33.626571,232.789408 31.3844504,232.132235 C28.0599268,231.165804 26.0884366,229.948119 25.4699206,228.479143 C25.2766344,228.015256 25.1799927,227.551376 25.1799927,227.087489 C25.1799927,225.038655 26.0304394,223.047836 27.7313585,221.114974 C29.509592,218.988825 31.6163806,217.152633 34.0517874,215.606343 C36.4098797,214.060053 38.4200266,213.286919 40.0822884,213.286919 C40.4688609,213.286919 40.7587859,213.306248 40.9520722,213.344905 C41.2226729,213.074304 41.6478963,212.996991 42.2277551,213.112963 C42.8462711,213.15162 43.2328378,213.15162 43.3874668,213.112963 C42.2664065,214.118051 40.4688713,215.451706 37.9948073,217.113968 C36.873747,217.848456 35.9169944,218.515283 35.1245207,219.114471 C34.3320471,219.713658 33.6845479,220.264516 33.1820036,220.76706 C31.7130281,222.352007 30.6692979,224.110886 30.0507819,226.043748 C29.8188384,226.855551 30.3793602,227.590027 31.7323639,228.247201 C33.3559685,229.020346 35.6560404,229.580867 38.6326487,229.928783 C39.7923662,230.122069 41.0680364,230.122069 42.4596974,229.928783 C46.7893095,229.54221 50.5583349,228.61445 53.7668867,227.145475 C57.9032126,225.328584 60.1452995,223.028512 60.4932148,220.24519 C60.8024728,218.080384 59.2948626,216.03158 55.970339,214.098718 C53.4576177,212.629742 50.7129941,211.586012 47.7363858,210.967496 C45.8035232,210.580923 43.948003,210.522938 42.1697695,210.793539 C42.0537977,210.793539 41.3579776,211.006151 40.0822884,211.431381 C39.0771998,211.779296 38.2074247,211.953251 37.472937,211.953251 C36.6224775,211.953251 35.8300157,211.721311 35.0955279,211.257424 L35.0955279,210.445626 C35.0955279,209.943081 35.1148563,209.208605 35.1535135,208.242173 L35.1535135,204.647067 C34.5349975,204.415124 33.9261549,204.183183 33.3269676,203.95124 C32.7277802,203.719296 32.1189376,203.468028 31.5004216,203.197427 C30.0701033,202.540254 29.2196565,201.612494 28.9490558,200.414119 C28.833084,199.872918 29.2389791,198.983814 30.1667531,197.746782 C30.5919829,197.244238 30.9688854,196.80935 31.297472,196.442107 C31.6260587,196.074863 31.9449762,195.794602 32.2542342,195.601316 C33.4912662,194.712199 34.5349964,193.987386 35.3854559,193.426856 C36.2359154,192.866326 36.8737505,192.470095 37.2989802,192.238152 C38.5360122,191.503664 39.9276524,190.96247 41.4739424,190.614555 C41.3966279,189.41618 41.7831946,188.237152 42.6336542,187.077434 C43.4841137,185.801745 44.4505305,185.16391 45.5329335,185.16391 C45.8421915,185.16391 46.1514449,185.221895 46.4607029,185.337867 C46.6539891,185.840411 46.8472725,187.116081 47.0405587,189.164915 C48.316248,189.087601 49.8045298,189.493496 51.5054489,190.382613 C53.5156259,191.426359 54.5206994,192.644044 54.5206994,194.035705 C54.5206994,194.38362 54.501371,194.634888 54.4627138,194.789517 C53.8055405,197.070295 51.8920353,199.09977 48.7221407,200.878004 C47.523766,201.49652 44.991754,202.54025 41.1260289,204.009226 C40.5848274,204.241169 40.3528874,205.110944 40.4302019,206.618577 C45.687588,206.618577 49.7658668,206.966487 52.6651606,207.662318 C57.0720872,208.783378 60.5705159,210.85151 63.1605517,213.866775 Z M49.0700542,194.209661 C48.7607962,193.281887 47.8716928,192.972634 46.4027173,193.281892 C41.3386174,194.171009 37.5889203,196.239141 35.1535135,199.48635 C35.7720295,199.718293 36.5065063,199.834263 37.3569658,199.834263 C39.5217719,199.834263 41.8605004,199.254413 44.3732218,198.094696 C46.8859431,196.934978 48.4515382,195.63998 49.0700542,194.209661 Z M79.3095375,192.644051 C81.4743436,194.228998 82.5567304,196.29713 82.5567304,198.848508 C82.5567304,200.781371 81.9382236,202.540249 80.7011916,204.125197 C79.3481878,205.826116 77.6086376,206.966488 75.4824888,207.546346 C74.9412873,207.739633 74.1874822,207.94258 73.221051,208.155195 C72.2546197,208.36781 71.0949196,208.609414 69.7419158,208.880015 C69.2780288,208.918672 68.8431412,208.947665 68.4372401,208.966993 C68.0313389,208.986322 67.6351081,208.995986 67.2485356,208.995986 C61.1406899,208.995986 57.2170378,206.947182 55.4774615,202.849514 C55.2841753,202.385627 55.1875336,201.941075 55.1875336,201.515845 C55.1875336,199.582983 56.2699204,197.418209 58.4347264,195.02146 C59.749073,193.552484 61.3146681,192.373456 63.1315589,191.484339 C64.9484497,190.595222 66.6686716,190.189327 68.2922761,190.266642 C71.2302272,190.382613 73.1050757,190.498583 73.916878,190.614555 C76.0430268,190.885156 77.840562,191.561648 79.3095375,192.644051 Z M72.0033536,194.035705 C71.5781239,194.074362 71.1915572,194.084026 70.8436419,194.064698 C70.4957267,194.045369 70.22513,194.016376 70.0318437,193.977719 C69.1813842,193.591147 68.6788475,193.417192 68.5242185,193.455849 C66.9779284,194.035708 65.4703183,195.002124 64.0013427,196.355128 C62.3004237,197.901418 61.2760219,199.409028 60.9281067,200.878004 C60.6188486,202.231008 61.5852654,203.274738 63.827386,204.009226 C65.6442768,204.627742 67.7124087,204.87901 70.0318437,204.763038 C71.926049,204.994982 73.5303008,204.395803 74.8446474,202.965485 C76.0816794,201.612481 76.7001861,200.104871 76.7001861,198.442609 C76.7001861,195.697944 75.134591,194.228991 72.0033536,194.035705 Z M105.49003,192.180166 C104.794199,193.069283 103.247932,193.629804 100.851183,193.861748 C97.9905463,194.093691 96.3283094,194.34496 95.8644224,194.615561 L96.0383792,200.704047 C96.3476372,203.33274 97.3333823,205.110947 98.9956441,206.038721 C99.0729586,206.347979 99.1116153,206.560591 99.1116153,206.676563 C99.1116153,206.985821 99.0149736,207.246753 98.8216873,207.459368 C98.6284011,207.671983 98.454446,207.894259 98.299817,208.126202 C98.0292163,208.164859 97.7682838,208.193852 97.5170116,208.213181 C97.2657395,208.232509 97.0241353,208.242173 96.7921918,208.242173 C92.1146644,208.242173 89.9305625,203.912626 90.2398205,195.253402 L82.7016943,195.253402 C82.1991501,195.253402 81.6193,194.57691 80.9621267,193.223907 C81.1167557,193.069278 81.3390316,192.875994 81.628961,192.644051 C81.9188904,192.412107 82.3151212,192.14151 82.8176655,191.832252 L82.7596799,191.890238 C83.6101394,191.967553 84.6345412,191.986881 85.832916,191.948224 C87.0312908,191.909566 88.4229309,191.812925 90.0078782,191.658296 C93.4097163,191.31038 95.3812065,191.136425 95.922408,191.136425 L101.315068,191.136425 C101.392382,191.136425 101.99156,191.31038 103.112621,191.658296 C104.233681,191.928896 105.026143,192.102851 105.49003,192.180166 Z M151.298643,183.134414 C150.950728,183.752931 150.583489,184.545392 150.196917,185.511824 C147.181651,187.753944 144.321058,189.106928 141.61505,189.570815 C141.421764,189.609472 141.218816,189.638464 141.006201,189.657793 C140.793586,189.677122 140.571311,189.686786 140.339367,189.686786 C138.638448,189.686786 137.11151,189.300219 135.758506,188.527074 C134.096244,187.5993 133.207141,186.284973 133.091169,184.584054 C133.013854,183.153736 133.883629,181.530156 135.70052,179.713265 C137.556068,177.896374 139.314947,176.910629 140.977209,176.756 C141.789011,176.871972 143.026024,176.987942 144.688286,177.103914 C146.234576,177.065256 147.742186,177.471151 149.211162,178.321611 C150.796109,179.326699 151.588571,180.505728 151.588571,181.858732 C151.588571,182.245304 151.491929,182.670527 151.298643,183.134414 Z M144.746272,207.430375 C150.158287,208.899351 152.864254,210.001066 152.864254,210.735554 C152.864254,211.35407 151.124704,211.663323 147.645551,211.663323 C144.939543,211.663323 142.175591,211.489368 139.353612,211.141453 C136.338347,210.75488 134.482826,210.291 133.786996,209.749799 C133.59371,209.363226 133.535725,208.841361 133.613039,208.184188 C133.922297,208.145531 134.11558,207.758964 134.192895,207.024476 C134.695439,206.637904 135.313946,206.44462 136.048434,206.44462 C136.66695,206.44462 137.440083,206.579919 138.367857,206.850519 C138.870401,207.005148 139.266632,207.111454 139.556562,207.16944 C139.846491,207.227426 140.068767,207.275747 140.223396,207.314404 C140.262053,204.994969 140.223397,203.100792 140.107425,201.631817 C139.991453,200.162841 139.836826,199.061126 139.64354,198.326638 L138.019944,198.96448 C137.246799,199.273738 136.724934,199.389708 136.454333,199.312393 C136.106418,199.041792 135.545896,198.751867 134.772751,198.442609 C134.772751,198.326638 134.753423,198.075369 134.714765,197.688797 C134.676108,197.302224 134.65678,197.050956 134.65678,196.934984 C135.275296,196.277811 136.512309,195.659304 138.367857,195.079445 C138.793087,194.886159 139.314952,194.683212 139.933468,194.470597 C140.551984,194.257982 141.247804,194.035706 142.020949,193.803762 C142.136921,193.803762 142.301212,193.823091 142.513827,193.861748 C142.726442,193.900405 142.958382,193.948726 143.209654,194.006712 C143.460926,194.064698 143.692866,194.113019 143.905481,194.151676 C144.118096,194.190333 144.282386,194.209661 144.398358,194.209661 C145.132846,194.673548 145.500084,196.664367 145.500084,200.182177 C145.500084,203.274757 145.248816,205.690799 144.746272,207.430375 Z M146.543825,181.800746 C146.543825,181.066258 145.79002,180.544393 144.282387,180.235135 C142.929383,179.925877 142.078936,179.848564 141.731021,180.003193 C140.33936,180.46708 139.218317,181.704093 138.367857,183.71427 C138.483829,184.912645 139.237634,185.511824 140.629295,185.511824 C141.363783,185.511824 142.078931,185.376525 142.774762,185.105924 C145.287483,183.868892 146.543825,182.767177 146.543825,181.800746 Z M174,192.180166 C173.304169,193.069283 171.757903,193.629804 169.361153,193.861748 C166.500517,194.093691 164.83828,194.34496 164.374393,194.615561 L164.548349,200.704047 C164.857607,203.33274 165.843353,205.110947 167.505614,206.038721 C167.582929,206.347979 167.621586,206.560591 167.621586,206.676563 C167.621586,206.985821 167.524944,207.246753 167.331658,207.459368 C167.138371,207.671983 166.964416,207.894259 166.809787,208.126202 C166.539187,208.164859 166.278254,208.193852 166.026982,208.213181 C165.77571,208.232509 165.534106,208.242173 165.302162,208.242173 C160.624635,208.242173 158.440533,203.912626 158.749791,195.253402 L151.211665,195.253402 C150.70912,195.253402 150.12927,194.57691 149.472097,193.223907 C149.626726,193.069278 149.849002,192.875994 150.138931,192.644051 C150.428861,192.412107 150.825091,192.14151 151.327636,191.832252 L151.26965,191.890238 C152.12011,191.967553 153.144511,191.986881 154.342886,191.948224 C155.541261,191.909566 156.932901,191.812925 158.517848,191.658296 C161.919687,191.31038 163.891177,191.136425 164.432378,191.136425 L169.825038,191.136425 C169.902352,191.136425 170.501531,191.31038 171.622591,191.658296 C172.743651,191.928896 173.536113,192.102851 174,192.180166 Z" id="path-1"></path>
        <filter x="-4.7%" y="-8.8%" width="109.4%" height="124.7%" filterUnits="objectBoundingBox" id="filter-2">
            <feOffset dx="0" dy="2" in="SourceAlpha" result="shadowOffsetOuter1"></feOffset>
            <feGaussianBlur stdDeviation="2" in="shadowOffsetOuter1" result="shadowBlurOuter1"></feGaussianBlur>
            <feColorMatrix values="0 0 0 0 0   0 0 0 0 0   0 0 0 0 0  0 0 0 0.5 0" type="matrix" in="shadowBlurOuter1"></feColorMatrix>
        </filter>
    </defs>
    <g id="Symbols" stroke="none" stroke-width="1" fill="none" fill-rule="evenodd">
        <g id="iPhone-SE" transform="translate(-21.000000, -174.000000)">
            <g id="gOT-IT">
                <use fill="black" fill-opacity="1" filter="url(#filter-2)" xlink:href="#path-1"></use>
                <use fill="#DF2053" fill-rule="evenodd" xlink:href="#path-1"></use>
            </g>
        </g>
    </g>
</svg>