<?xml version="1.0" encoding="UTF-8"?>
<svg width="159px" height="43px" viewBox="0 0 159 43" version="1.1" xmlns="http://www.w3.org/2000/svg" xmlns:xlink="http://www.w3.org/1999/xlink">
    <!-- Generator: Sketch 43.1 (39012) - http://www.bohemiancoding.com/sketch -->
    <title>ITS SaFe</title>
    <desc>Created with Sketch.</desc>
    <defs>
        <path d="M39.1569747,105.406713 C38.9032982,105.857694 38.6355325,106.435504 38.3536697,107.140161 C36.1551397,108.774965 34.0693862,109.76147 32.0963464,110.099706 C31.955415,110.127892 31.8074393,110.149031 31.6524147,110.163125 C31.4973902,110.177218 31.3353215,110.184264 31.1662038,110.184264 C29.9260074,110.184264 28.8126659,109.902406 27.8261461,109.33868 C26.6141359,108.662209 25.9658612,107.70389 25.8813023,106.463694 C25.8249298,105.420801 26.4591116,104.236995 27.7838669,102.91224 C29.1368084,101.587485 30.419265,100.868745 31.6312751,100.756 C32.223187,100.840559 33.1251345,100.925116 34.3371446,101.009675 C35.4645959,100.981489 36.5638444,101.277441 37.6349231,101.897539 C38.7905607,102.630382 39.3683708,103.490051 39.3683708,104.476571 C39.3683708,104.758433 39.2979061,105.068478 39.1569747,105.406713 Z M34.3794238,123.121703 C38.3255033,124.192782 40.2985134,124.996079 40.2985134,125.531618 C40.2985134,125.982598 39.0301498,126.208085 36.4933844,126.208085 C34.5203447,126.208085 32.5050558,126.081249 30.4474572,125.827572 C28.2489272,125.54571 26.8960059,125.207479 26.3886529,124.812871 C26.2477215,124.531009 26.2054427,124.150499 26.2618152,123.671333 C26.4873055,123.643146 26.6282348,123.361288 26.6846074,122.825748 C27.051029,122.543886 27.5020028,122.402956 28.0375421,122.402956 C28.4885226,122.402956 29.0522398,122.501607 29.7287106,122.698911 C30.0951322,122.811656 30.3840373,122.889167 30.5954344,122.931446 C30.8068315,122.973726 30.9689002,123.008958 31.0816453,123.037144 C31.1098316,121.345968 31.0816458,119.96486 30.9970869,118.893782 C30.9125281,117.822703 30.7997846,117.019406 30.6588532,116.483867 L29.4750353,116.948938 C28.9113097,117.174428 28.5308006,117.258986 28.3334966,117.202613 C28.0798201,117.005309 27.6711251,116.793915 27.1073995,116.568425 C27.1073995,116.483866 27.0933065,116.300658 27.0651203,116.018795 C27.036934,115.736933 27.022841,115.553724 27.022841,115.469166 C27.4738216,114.989999 28.375769,114.539025 29.7287106,114.116231 C30.0387597,113.975299 30.4192688,113.827324 30.8702493,113.672299 C31.3212298,113.517275 31.8285753,113.355206 32.3923009,113.186088 C32.4768597,113.186088 32.5966496,113.200181 32.7516742,113.228367 C32.9066987,113.256554 33.0758139,113.291786 33.2590247,113.334065 C33.4422356,113.376345 33.6113507,113.411577 33.7663753,113.439763 C33.9213998,113.46795 34.0411897,113.482043 34.1257486,113.482043 C34.6612879,113.820278 34.9290536,115.27185 34.9290536,117.836801 C34.9290536,120.091704 34.7458455,121.85332 34.3794238,123.121703 Z M35.6900794,104.434291 C35.6900794,103.898752 35.1404551,103.518243 34.0411901,103.292753 C33.0546703,103.067262 32.4345814,103.010891 32.1809048,103.123636 C31.1661987,103.461871 30.3488088,104.363819 29.7287106,105.829505 C29.8132694,106.70328 30.3628937,107.140161 31.3775998,107.140161 C31.9131392,107.140161 32.4345776,107.04151 32.9419307,106.844206 C34.774039,105.942245 35.6900794,105.138948 35.6900794,104.434291 Z M57.5918535,112.00227 C57.0845004,112.650555 55.9570661,113.05925 54.2095166,113.228367 C52.1237317,113.397485 50.9117398,113.580693 50.5735044,113.777997 L50.700342,118.217314 C50.9258323,120.133982 51.6445717,121.430531 52.8565818,122.107002 C52.9129544,122.332492 52.9411402,122.487514 52.9411402,122.572073 C52.9411402,122.797563 52.8706756,122.987818 52.7297442,123.142842 C52.5888128,123.297867 52.4619764,123.459936 52.3492313,123.629053 C52.1519273,123.65724 51.9616728,123.678379 51.7784619,123.692472 C51.5952511,123.706565 51.4190895,123.713612 51.2499718,123.713612 C47.8394317,123.713612 46.2469306,120.556796 46.4724209,114.243068 L40.9761234,114.243068 C40.6097017,114.243068 40.1869138,113.749816 39.707747,112.763296 C39.8204922,112.650551 39.9825609,112.509622 40.193958,112.340504 C40.4053551,112.171386 40.6942601,111.974085 41.0606818,111.748595 L41.0184026,111.790874 C41.6385008,111.847247 42.3854261,111.86134 43.2592008,111.833153 C44.1329755,111.804967 45.1476665,111.734502 46.303304,111.621757 C48.7836968,111.368081 50.2211757,111.241244 50.6157836,111.241244 L54.5477503,111.241244 C54.6041228,111.241244 55.0410037,111.368081 55.8584058,111.621757 C56.675808,111.819061 57.2536181,111.945898 57.5918535,112.00227 Z M79.578186,125.320222 C79.578186,127.406007 78.1125213,129.534039 75.181148,131.704383 C72.4470787,133.705609 70.2203958,134.649835 68.5010326,134.53709 C67.5145128,135.100816 66.0065693,135.382674 63.977157,135.382674 L61.2290082,135.382674 C59.3405274,135.382674 57.8607698,134.889422 56.789691,133.902902 C55.8313575,132.972754 55.3521979,131.817134 55.3521979,130.436006 C55.3521979,129.083065 55.7749857,127.786515 56.6205742,126.546319 C57.0715547,125.869848 57.607086,125.263852 58.2271842,124.728313 C58.8472824,124.192774 59.5519289,123.727707 60.3411448,123.333099 C60.4820762,123.24854 60.6652843,123.156936 60.8907746,123.058284 C61.1162648,122.959632 61.3840305,122.839842 61.6940796,122.698911 C61.8913835,122.78347 62.2296139,122.713005 62.7087806,122.487515 C62.7933395,122.572074 62.9483617,122.614352 63.173852,122.614352 C62.8638029,123.262637 62.5748978,123.812261 62.3071281,124.263242 C62.0393585,124.714222 61.8068251,125.052452 61.6095211,125.277943 C61.1585406,125.813482 60.7005204,126.391292 60.2354468,127.01139 C59.7703731,127.631489 59.29826,128.307949 58.8190932,129.040792 C58.8472795,129.125351 58.8613724,129.238095 58.8613724,129.379026 C58.8613724,129.491771 58.840233,129.667933 58.7979536,129.907516 C58.7556742,130.1471 58.7345348,130.323261 58.7345348,130.436006 C58.7345348,130.802428 58.9318358,131.140658 59.3264437,131.450708 C60.453895,132.324482 62.0041173,132.662713 63.977157,132.465409 C65.4992162,132.324477 67.0564849,132.042619 68.6490099,131.619824 C70.2415348,131.19703 71.7565247,130.407826 73.1940251,129.252189 C74.8288294,127.871061 75.6462194,126.504047 75.6462194,125.151105 C75.6462194,124.841056 75.5757547,124.47464 75.4348233,124.051846 C75.1247742,123.290816 73.9127823,122.572077 71.7988111,121.895606 C69.8257714,121.275508 67.7682037,120.85272 65.6260462,120.627229 C62.8637906,120.288994 61.2712896,120.0776 60.8484953,119.993041 C58.6781516,119.513874 57.607089,118.640113 57.6352753,117.37173 C57.6916478,116.892563 58.5654095,116.046988 60.2565864,114.834977 C62.0041359,113.594781 63.8784955,112.594183 65.8797215,111.833153 C66.7816825,111.466732 67.6695371,111.283524 68.5433118,111.283524 C69.8680671,111.283524 70.882758,111.720404 71.5874151,112.594179 C71.6437876,113.04516 71.5451371,113.369297 71.2914606,113.566601 C70.9532252,113.622974 70.5233908,113.700485 70.0019446,113.799137 C69.4804984,113.897789 68.867456,114.017579 68.1627989,114.15851 C67.570887,114.299441 66.7253112,114.679951 65.6260462,115.300049 C65.1750657,115.581912 64.7311384,115.849677 64.2942511,116.103354 C63.8573637,116.35703 63.4134364,116.610703 62.9624559,116.86438 C62.9624559,117.08987 63.1315711,117.244892 63.4698065,117.329451 L69.6848505,118.217314 C71.1505372,118.442805 72.4400403,118.73171 73.5533984,119.084038 C74.6667565,119.436367 75.6180293,119.838015 76.4072452,120.288996 C78.5212163,121.529192 79.578186,123.206251 79.578186,125.320222 Z M125.072903,125.320222 C125.072903,123.206251 124.015933,121.529192 121.901962,120.288996 C121.112746,119.838015 120.161473,119.436367 119.048115,119.084038 C117.934757,118.73171 116.645254,118.442805 115.179567,118.217314 L108.964523,117.329451 C108.626288,117.244892 108.457173,117.08987 108.457173,116.86438 C108.908153,116.610703 109.35208,116.35703 109.788968,116.103354 C110.225855,115.849677 110.669782,115.581912 111.120763,115.300049 C112.220028,114.679951 113.065604,114.299441 113.657516,114.15851 C114.362173,114.017579 114.975215,113.897789 115.496661,113.799137 C116.018108,113.700485 116.447942,113.622974 116.786177,113.566601 C117.039854,113.369297 117.138504,113.04516 117.082132,112.594179 C116.377475,111.720404 115.362784,111.283524 114.038028,111.283524 C113.164254,111.283524 112.276399,111.466732 111.374438,111.833153 C109.373212,112.594183 107.498853,113.594781 105.751303,114.834977 C104.060126,116.046988 103.186364,116.892563 103.129992,117.37173 C103.101806,118.640113 104.172868,119.513874 106.343212,119.993041 C106.766006,120.0776 108.358507,120.288994 111.120763,120.627229 C113.26292,120.85272 115.320488,121.275508 117.293528,121.895606 C119.407499,122.572077 120.619491,123.290816 120.92954,124.051846 C121.070471,124.47464 121.140936,124.841056 121.140936,125.151105 C121.140936,126.504047 120.323546,127.871061 118.688742,129.252189 C117.251241,130.407826 115.736251,131.19703 114.143727,131.619824 C112.551202,132.042619 110.993933,132.324477 109.471874,132.465409 C107.498834,132.662713 105.948612,132.324482 104.82116,131.450708 C104.426552,131.140658 104.229251,130.802428 104.229251,130.436006 C104.229251,130.323261 104.250391,130.1471 104.29267,129.907516 C104.33495,129.667933 104.356089,129.491771 104.356089,129.379026 C104.356089,129.238095 104.341996,129.125351 104.31381,129.040792 C104.792977,128.307949 105.26509,127.631489 105.730163,127.01139 C106.195237,126.391292 106.653257,125.813482 107.104238,125.277943 C107.301542,125.052452 107.534075,124.714222 107.801845,124.263242 C108.069614,123.812261 108.35852,123.262637 108.668569,122.614352 C108.443078,122.614352 108.288056,122.572074 108.203497,122.487515 C107.724331,122.713005 107.3861,122.78347 107.188796,122.698911 C106.878747,122.839842 106.610981,122.959632 106.385491,123.058284 C106.160001,123.156936 105.976793,123.24854 105.835861,123.333099 C105.046646,123.727707 104.341999,124.192774 103.721901,124.728313 C103.101803,125.263852 102.566271,125.869848 102.115291,126.546319 C101.269702,127.786515 100.846915,129.083065 100.846915,130.436006 C100.846915,131.817134 101.326074,132.972754 102.284408,133.902902 C103.355486,134.889422 104.835244,135.382674 106.723725,135.382674 L109.471874,135.382674 C111.501286,135.382674 113.009229,135.100816 113.995749,134.53709 C115.715112,134.649835 117.941795,133.705609 120.675865,131.704383 C123.607238,129.534039 125.072903,127.406007 125.072903,125.320222 Z M139.32214,125.785293 C138.730228,125.108822 138.131278,124.453501 137.525273,123.81931 C136.919268,123.185119 136.306226,122.572076 135.686127,121.980164 C133.149362,122.487517 131.331374,122.74119 130.232109,122.74119 C129.612011,122.74119 129.090572,122.684818 128.667778,122.572073 C128.526847,122.713005 128.442289,122.875073 128.414103,123.058284 C128.385917,123.241495 128.371824,123.403564 128.371824,123.544495 C128.061775,123.544495 127.836288,123.600867 127.695356,123.713612 C127.498052,123.910916 127.300751,124.094124 127.103447,124.263242 C126.906143,124.432359 126.708842,124.615567 126.511538,124.812871 C125.581391,124.559195 125.116324,123.967292 125.116324,123.037144 C125.116324,122.417046 125.355904,121.557378 125.835071,120.458113 C127.808111,116.117425 129.485169,113.312932 130.866297,112.044549 C130.979042,111.931804 131.218622,111.875433 131.585044,111.875433 C132.515191,111.875433 133.332581,112.100919 134.037238,112.5519 C133.980866,113.820283 135.094207,115.751014 137.377296,118.344152 C139.660385,120.93729 140.801912,122.839835 140.801912,124.051846 C140.801912,124.333708 140.74554,124.601474 140.632795,124.855151 C140.52005,125.108827 140.083169,125.418872 139.32214,125.785293 Z M133.741284,119.908483 C133.233931,119.40113 132.430634,118.513275 131.331369,117.244892 C131.190437,117.498569 131.014276,117.808613 130.802878,118.175035 C130.591481,118.541457 130.358948,118.964245 130.105271,119.443411 C130.612624,119.640715 131.204528,119.753459 131.880998,119.781645 C132.191047,119.809831 132.501092,119.830971 132.811141,119.845064 C133.12119,119.859157 133.431234,119.880297 133.741284,119.908483 Z M155.600778,120.796346 C155.51622,121.106395 155.297779,121.374161 154.945451,121.599651 C154.593122,121.825142 154.261938,121.923792 153.951889,121.895606 C153.106301,122.205655 152.288911,122.402956 151.499695,122.487515 C150.17494,122.656632 149.470293,122.755283 149.385734,122.783469 C149.329362,123.037146 149.470291,123.431748 149.808527,123.967287 C150.174948,124.502826 150.358156,124.911521 150.358156,125.193384 C150.358156,125.418874 150.245413,125.644361 150.019923,125.869852 C149.794432,125.898038 149.505527,125.926224 149.153199,125.95441 C148.80087,125.982596 148.399222,126.024875 147.948241,126.081248 C147.722751,125.940316 147.497264,125.757108 147.271774,125.531618 C147.046284,125.306128 146.820797,125.038362 146.595306,124.728313 C146.398002,124.44645 146.207748,124.178684 146.024537,123.925008 C145.841326,123.671331 145.651072,123.417659 145.453768,123.163982 C144.269944,123.530404 142.888837,123.713612 141.310405,123.713612 C139.421924,123.713612 138.477698,123.31901 138.477698,122.529794 C138.477698,122.050627 138.886393,121.402352 139.703795,120.58495 C140.464825,120.556764 141.169471,120.514485 141.817756,120.458113 C142.46604,120.40174 143.072036,120.331275 143.635762,120.246716 C142.226448,118.358236 141.521801,116.779827 141.521801,115.511445 C141.521801,114.722229 141.761381,113.961211 142.240548,113.228367 C143.452558,111.424445 145.383289,109.606457 148.0328,107.774349 L148.666988,107.266999 C149.089782,106.928763 149.709871,106.421418 150.527273,105.744947 C151.401048,105.068476 152.105694,104.730246 152.641234,104.730246 C152.866724,104.730246 153.021746,104.744339 153.106305,104.772525 C154.064639,105.11076 154.69882,105.8295 155.00887,106.928765 C155.065242,107.379745 155.135707,107.816626 155.220266,108.23942 C155.304824,108.662215 155.375289,109.099095 155.431662,109.550076 C155.769897,110.95939 155.939012,112.129103 155.939012,113.059251 C155.939012,113.989398 155.769897,114.792695 155.431662,115.469166 C154.952495,115.553724 154.276034,115.751025 153.402259,116.061075 C152.979465,115.891957 152.598956,115.145032 152.260721,113.820276 C152.119789,113.143806 151.971814,112.474391 151.816789,111.812014 C151.661765,111.149636 151.513789,110.494315 151.372857,109.84603 C150.780945,110.325197 150.189042,110.790264 149.59713,111.241244 C149.005219,111.692225 148.427408,112.157292 147.863683,112.636458 C146.397996,113.933027 145.665164,115.116833 145.665164,116.187912 C145.665164,116.441589 145.707443,116.695261 145.792001,116.948938 C146.242982,118.330066 146.792606,119.232013 147.440891,119.654808 C147.97643,119.626621 148.751541,119.626621 149.766247,119.654808 C150.329973,119.71118 150.89369,119.753459 151.457416,119.781645 L153.148584,119.866204 C154.501526,119.978949 155.318916,120.288993 155.600778,120.796346 Z M170.188249,128.702559 C171.484818,128.336137 172.809553,127.645584 174.162495,126.630877 C175.71274,125.503426 176.487852,124.404178 176.487852,123.333099 C176.487852,122.600256 176.050971,121.937888 175.177196,121.345976 C175.14901,121.31779 175.092638,121.303697 175.008079,121.303697 C174.585285,121.303697 174.190683,121.726485 173.824261,122.572073 C173.175977,123.896828 171.992171,124.953798 170.272807,125.743014 C168.666189,126.475857 167.03141,126.842273 165.368419,126.842273 C162.85984,126.842273 161.605569,126.123534 161.605569,124.686034 C161.605569,123.361278 162.888026,121.670127 165.452977,119.612528 C166.552242,118.76694 167.707863,118.245501 168.919873,118.048197 C169.399039,117.991825 169.864106,117.935453 170.315087,117.879081 L171.668021,117.709964 C172.598169,117.569032 173.246443,117.202616 173.612865,116.610704 C172.908208,115.398694 171.56938,114.792698 169.59634,114.792698 L167.609217,114.792698 C165.664364,114.792698 164.255071,114.285353 163.381296,113.270647 C165.269777,111.635842 166.932743,110.818452 168.370243,110.818452 C169.469508,110.818452 170.300991,111.396262 170.864716,112.5519 C171.146579,112.608273 171.357973,112.636458 171.498905,112.636458 C171.724395,112.636458 172.034439,112.565994 172.429047,112.425062 C172.823655,112.284131 173.119607,112.18548 173.316911,112.129108 C173.373283,111.847245 173.401469,111.635851 173.401469,111.49492 C173.401469,110.480214 172.68273,109.592359 171.245229,108.831329 C169.920474,108.154859 168.736668,107.901186 167.693776,108.070304 C165.861667,108.380353 164.889255,108.549468 164.77651,108.577654 C163.761804,108.972262 162.577998,109.648723 161.225056,110.607056 C159.562066,111.847253 158.730583,112.833758 158.730583,113.566601 C158.730583,113.848464 159.223835,114.567203 160.210355,115.722841 C160.745894,116.004704 161.210961,116.265423 161.605569,116.505006 C162.000177,116.74459 162.338407,116.96303 162.62027,117.160334 C162.141103,117.554942 161.676037,117.963637 161.225056,118.386431 C160.774076,118.809225 160.309009,119.21792 159.829842,119.612528 C158.815136,120.599048 158.096397,121.698297 157.673602,122.910307 C157.532671,123.333101 157.462206,123.727703 157.462206,124.094125 C157.462206,125.531625 158.15276,126.85636 159.533888,128.068371 C160.915016,129.252194 162.324308,129.773633 163.761809,129.632701 L166.298562,129.505864 C166.749542,129.477678 167.29212,129.39312 167.926311,129.252189 C168.560503,129.111257 169.314474,128.928049 170.188249,128.702559 Z" id="path-1"></path>
        <filter x="-4.6%" y="-14.4%" width="109.3%" height="140.4%" filterUnits="objectBoundingBox" id="filter-2">
            <feOffset dx="0" dy="2" in="SourceAlpha" result="shadowOffsetOuter1"></feOffset>
            <feGaussianBlur stdDeviation="2" in="shadowOffsetOuter1" result="shadowBlurOuter1"></feGaussianBlur>
            <feColorMatrix values="0 0 0 0 0   0 0 0 0 0   0 0 0 0 0  0 0 0 0.5 0" type="matrix" in="shadowBlurOuter1"></feColorMatrix>
        </filter>
    </defs>
    <g id="Symbols" stroke="none" stroke-width="1" fill="none" fill-rule="evenodd">
        <g id="iPhone-SE" transform="translate(-22.000000, -99.000000)">
            <g id="ITS-SaFe">
                <use fill="black" fill-opacity="1" filter="url(#filter-2)" xlink:href="#path-1"></use>
                <use fill="#DF2053" fill-rule="evenodd" xlink:href="#path-1"></use>
            </g>
        </g>
    </g>
</svg>