<?xml version="1.0" encoding="UTF-8"?>
<svg width="209px" height="55px" viewBox="0 0 209 55" version="1.1" xmlns="http://www.w3.org/2000/svg" xmlns:xlink="http://www.w3.org/1999/xlink">
    <!-- Generator: Sketch 43.1 (39012) - http://www.bohemiancoding.com/sketch -->
    <title>ITS SaFe</title>
    <desc>Created with Sketch.</desc>
    <defs>
        <path d="M43.5654216,106.950672 C43.2275287,107.551371 42.8708694,108.321004 42.4954328,109.259596 C39.5670276,111.437128 36.7888388,112.751136 34.1607829,113.20166 C33.9730646,113.239203 33.7759634,113.267361 33.5694733,113.286132 C33.3629831,113.304904 33.1471104,113.31429 32.9218484,113.31429 C31.2699276,113.31429 29.7869754,112.938859 28.4729475,112.187986 C26.8585703,111.286938 25.9950791,110.010473 25.8824482,108.358552 C25.8073608,106.969437 26.6520804,105.392627 28.4166323,103.628075 C30.2187277,101.863523 31.9269384,100.906175 33.5413157,100.756 C34.3297324,100.868631 35.5311114,100.98126 37.1454886,101.093891 C38.6472348,101.056348 40.1114154,101.45055 41.5380744,102.27651 C43.0773643,103.252646 43.8469977,104.39771 43.8469977,105.711738 C43.8469977,106.087174 43.7531399,106.500148 43.5654216,106.950672 Z M37.2018038,130.546742 C42.4579156,131.973401 45.0859321,133.043379 45.0859321,133.756708 C45.0859321,134.357407 43.3964929,134.657752 40.0175639,134.657752 C37.389508,134.657752 34.7051769,134.488808 31.96449,134.150915 C29.0360848,133.775478 27.2340164,133.324961 26.5582306,132.79935 C26.3705123,132.423913 26.3141977,131.917082 26.389285,131.27884 C26.6896342,131.241296 26.8773497,130.865865 26.952437,130.152536 C27.4405045,129.777099 28.041194,129.589384 28.7545235,129.589384 C29.355222,129.589384 30.1060838,129.720784 31.0071316,129.98359 C31.4951991,130.133765 31.8800158,130.237008 32.1615932,130.293324 C32.4431706,130.349639 32.6590434,130.396568 32.809218,130.434112 C32.8467617,128.181492 32.8092186,126.341881 32.6965876,124.915222 C32.5839567,123.488563 32.4337843,122.418585 32.246066,121.705255 L30.6692403,122.324722 C29.9183672,122.625072 29.4115355,122.737701 29.1487299,122.662614 C28.810837,122.399808 28.2664621,122.118235 27.515589,121.817886 C27.515589,121.705255 27.4968175,121.461225 27.4592738,121.085788 C27.4217302,120.710351 27.4029586,120.466321 27.4029586,120.35369 C28.0036571,119.715448 29.2050361,119.114759 31.0071316,118.551604 C31.4201118,118.363886 31.9269435,118.166784 32.527642,117.960294 C33.1283405,117.753804 33.8041162,117.537931 34.5549893,117.312669 C34.6676203,117.312669 34.8271784,117.331441 35.0336685,117.368985 C35.2401586,117.406528 35.4654172,117.453457 35.7094509,117.509773 C35.9534847,117.566088 36.1787433,117.613017 36.3852334,117.650561 C36.5917235,117.688104 36.7512816,117.706876 36.8639126,117.706876 C37.577242,118.1574 37.9339014,120.090869 37.9339014,123.507342 C37.9339014,126.510834 37.6898713,128.857277 37.2018038,130.546742 Z M38.9475751,105.655423 C38.9475751,104.942093 38.2154848,104.435261 36.7512822,104.134912 C35.4372542,103.834563 34.6113062,103.759477 34.2734133,103.909651 C32.9218417,104.360175 31.833092,105.561554 31.0071316,107.513824 C31.1197625,108.677678 31.8518528,109.259596 33.2034244,109.259596 C33.9167539,109.259596 34.6113011,109.128195 35.2870869,108.865389 C37.7274246,107.663992 38.9475751,106.594014 38.9475751,105.655423 Z M68.1203717,115.735844 C67.4445859,116.599348 65.9428622,117.143723 63.6151555,117.368985 C60.836925,117.594247 59.222572,117.838277 58.7720481,118.101082 L58.9409937,124.014179 C59.241343,126.567147 60.1986918,128.294129 61.813069,129.195177 C61.8881563,129.495526 61.9256994,129.702013 61.9256994,129.814644 C61.9256994,130.114994 61.8318417,130.368409 61.6441234,130.5749 C61.4564051,130.78139 61.2874612,130.997262 61.1372866,131.222524 C60.874481,131.260068 60.6210651,131.288225 60.3770314,131.306997 C60.1329976,131.325769 59.8983533,131.335155 59.6730913,131.335155 C55.130309,131.335155 53.0091243,127.130328 53.3094735,118.72055 L45.9884972,118.72055 C45.5004297,118.72055 44.9372833,118.063545 44.2990411,116.749517 C44.4492158,116.599343 44.6650886,116.411627 44.946666,116.186365 C45.2282434,115.961103 45.6130601,115.698302 46.1011276,115.397953 L46.0448124,115.454268 C46.8707728,115.529355 47.8656648,115.548127 49.0295181,115.510583 C50.1933715,115.473039 51.5449228,115.379182 53.0842127,115.229007 C56.3880544,114.891114 58.3027521,114.72217 58.8283633,114.72217 L64.0656771,114.72217 C64.1407644,114.72217 64.7226824,114.891114 65.8114484,115.229007 C66.9002144,115.491813 67.6698478,115.660756 68.1203717,115.735844 Z M97.4057987,133.475132 C97.4057987,136.253363 95.4535579,139.087867 91.5490177,141.978728 C87.9072831,144.644328 84.9413787,145.902021 82.6512157,145.751847 C81.3371878,146.50272 79.3286323,146.878151 76.6254891,146.878151 L72.9650009,146.878151 C70.449576,146.878151 68.4785636,146.221146 67.0519047,144.907119 C65.7754204,143.668178 65.1371878,142.128911 65.1371878,140.289272 C65.1371878,138.487176 65.7003342,136.760194 66.8266439,135.108273 C67.4273424,134.207226 68.1406612,133.400049 68.9666216,132.68672 C69.792582,131.97339 70.7311593,131.353929 71.7823817,130.828318 C71.9701,130.715687 72.2141301,130.593672 72.5144793,130.462269 C72.8148286,130.330866 73.171488,130.171308 73.5844682,129.98359 C73.8472738,130.096221 74.2977909,130.002363 74.936033,129.702014 C75.048664,129.814645 75.255151,129.87096 75.5555002,129.87096 C75.14252,130.734464 74.7577033,131.466554 74.4010386,132.067252 C74.0443739,132.667951 73.7346434,133.118468 73.4718378,133.418817 C72.8711393,134.132147 72.261064,134.90178 71.6415937,135.727741 C71.0221234,136.553701 70.3932766,137.454735 69.7550344,138.43087 C69.7925781,138.543501 69.8113496,138.693674 69.8113496,138.881392 C69.8113496,139.031567 69.7831923,139.266211 69.7268768,139.585332 C69.6705613,139.904453 69.642404,140.139097 69.642404,140.289272 C69.642404,140.777339 69.9052057,141.227857 70.4308168,141.640837 C71.9325631,142.80469 73.9974332,143.255207 76.6254891,142.992402 C78.6528465,142.804683 80.7271024,142.429252 82.8483189,141.866098 C84.9695355,141.302943 86.9874767,140.251736 88.9022032,138.712446 C91.0797352,136.872807 92.1684849,135.051967 92.1684849,133.249872 C92.1684849,132.836891 92.0746272,132.348831 91.8869089,131.785676 C91.4739287,130.771998 89.8595757,129.814649 87.0438015,128.913601 C84.4157456,128.087641 81.6750998,127.524494 78.821782,127.224145 C75.1425037,126.773621 73.021319,126.492048 72.4581641,126.379417 C69.5673026,125.741175 68.1406651,124.577339 68.1782088,122.887874 C68.2532961,122.249632 69.4171319,121.12334 71.6697513,119.508962 C73.997458,117.857041 76.4940736,116.524262 79.1596732,115.510583 C80.3610702,115.022515 81.5436776,114.778485 82.7075309,114.778485 C84.4720827,114.778485 85.8236341,115.360403 86.7622255,116.524257 C86.8373128,117.124955 86.705912,117.556701 86.3680191,117.819506 C85.9174952,117.894594 85.344963,117.997837 84.6504054,118.12924 C83.9558478,118.260643 83.1392855,118.420201 82.2006941,118.607919 C81.4122773,118.795637 80.2859845,119.302469 78.821782,120.12843 C78.2210835,120.503866 77.6297798,120.860525 77.0478531,121.198418 C76.4659264,121.536311 75.8746227,121.874199 75.2739242,122.212092 C75.2739242,122.512441 75.4991828,122.718928 75.9497067,122.831559 L84.2280414,124.014179 C86.1803115,124.314528 87.897908,124.699344 89.3808824,125.16864 C90.8638568,125.637936 92.1309362,126.172925 93.1821585,126.773623 C95.9979327,128.425544 97.4057987,130.659358 97.4057987,133.475132 Z M158.004,133.475132 C158.004,130.659358 156.596134,128.425544 153.78036,126.773623 C152.729137,126.172925 151.462058,125.637936 149.979084,125.16864 C148.496109,124.699344 146.778513,124.314528 144.826243,124.014179 L136.547908,122.831559 C136.097384,122.718928 135.872126,122.512441 135.872126,122.212092 C136.472824,121.874199 137.064128,121.536311 137.646054,121.198418 C138.227981,120.860525 138.819285,120.503866 139.419983,120.12843 C140.884186,119.302469 142.010479,118.795637 142.798895,118.607919 C143.737487,118.420201 144.554049,118.260643 145.248607,118.12924 C145.943164,117.997837 146.515697,117.894594 146.96622,117.819506 C147.304113,117.556701 147.435514,117.124955 147.360427,116.524257 C146.421835,115.360403 145.070284,114.778485 143.305732,114.778485 C142.141879,114.778485 140.959271,115.022515 139.757875,115.510583 C137.092275,116.524262 134.595659,117.857041 132.267953,119.508962 C130.015333,121.12334 128.851497,122.249632 128.77641,122.887874 C128.738866,124.577339 130.165504,125.741175 133.056365,126.379417 C133.61952,126.492048 135.740705,126.773621 139.419983,127.224145 C142.273301,127.524494 145.013947,128.087641 147.642003,128.913601 C150.457777,129.814649 152.07213,130.771998 152.48511,131.785676 C152.672828,132.348831 152.766686,132.836891 152.766686,133.249872 C152.766686,135.051967 151.677937,136.872807 149.500404,138.712446 C147.585678,140.251736 145.567737,141.302943 143.44652,141.866098 C141.325304,142.429252 139.251048,142.804683 137.22369,142.992402 C134.595634,143.255207 132.530764,142.80469 131.029018,141.640837 C130.503407,141.227857 130.240605,140.777339 130.240605,140.289272 C130.240605,140.139097 130.268763,139.904453 130.325078,139.585332 C130.381394,139.266211 130.409551,139.031567 130.409551,138.881392 C130.409551,138.693674 130.390779,138.543501 130.353236,138.43087 C130.991478,137.454735 131.620325,136.553701 132.239795,135.727741 C132.859265,134.90178 133.469341,134.132147 134.070039,133.418817 C134.332845,133.118468 134.642575,132.667951 134.99924,132.067252 C135.355905,131.466554 135.740721,130.734464 136.153702,129.87096 C135.853352,129.87096 135.646865,129.814645 135.534234,129.702014 C134.895992,130.002363 134.445475,130.096221 134.182669,129.98359 C133.769689,130.171308 133.41303,130.330866 133.112681,130.462269 C132.812331,130.593672 132.568301,130.715687 132.380583,130.828318 C131.329361,131.353929 130.390783,131.97339 129.564823,132.68672 C128.738862,133.400049 128.025544,134.207226 127.424845,135.108273 C126.298536,136.760194 125.735389,138.487176 125.735389,140.289272 C125.735389,142.128911 126.373622,143.668178 127.650106,144.907119 C129.076765,146.221146 131.047777,146.878151 133.563202,146.878151 L137.22369,146.878151 C139.926834,146.878151 141.935389,146.50272 143.249417,145.751847 C145.53958,145.902021 148.505484,144.644328 152.147219,141.978728 C156.051759,139.087867 158.004,136.253363 158.004,133.475132 Z M176.983745,134.0946 C176.195328,133.193552 175.397538,132.320675 174.590349,131.475943 C173.78316,130.631211 172.966598,129.814648 172.140638,129.026232 C168.761709,129.702017 166.340179,130.039905 164.875977,130.039905 C164.050016,130.039905 163.355469,129.964819 162.792314,129.814644 C162.604596,130.002363 162.491967,130.218235 162.454423,130.462269 C162.416879,130.706303 162.398108,130.922176 162.398108,131.109894 C161.985127,131.109894 161.684783,131.18498 161.497064,131.335155 C161.234259,131.59796 160.971457,131.84199 160.708652,132.067252 C160.445846,132.292514 160.183044,132.536544 159.920239,132.79935 C158.681298,132.461457 158.061837,131.673052 158.061837,130.434112 C158.061837,129.608151 158.380953,128.463087 159.019196,126.998884 C161.647251,121.217161 163.881065,117.481624 165.720705,115.792159 C165.870879,115.641984 166.189996,115.566898 166.678063,115.566898 C167.917004,115.566898 169.005753,115.867243 169.944345,116.467941 C169.869257,118.157406 171.35221,120.729108 174.393246,124.183124 C177.434282,127.63714 178.954777,130.171299 178.954777,131.785676 C178.954777,132.161113 178.879691,132.517772 178.729516,132.855665 C178.579342,133.193558 177.997424,133.606532 176.983745,134.0946 Z M169.550138,126.266787 C168.874353,125.591001 167.804374,124.408393 166.340172,122.718929 C166.152454,123.056822 165.917809,123.469796 165.636232,123.957863 C165.354654,124.445931 165.044924,125.009077 164.707031,125.647319 C165.382817,125.910125 166.171222,126.060297 167.072269,126.097841 C167.48525,126.135385 167.898224,126.163542 168.311204,126.182314 C168.724184,126.201086 169.137158,126.229243 169.550138,126.266787 Z M198.66662,127.449406 C198.553989,127.862386 198.26303,128.219045 197.793734,128.519395 C197.324438,128.819744 196.883307,128.951145 196.470327,128.913601 C195.344017,129.326581 194.255268,129.589383 193.204045,129.702014 C191.439493,129.927276 190.500916,130.058677 190.388285,130.09622 C190.313198,130.434113 190.500913,130.959717 190.951437,131.673046 C191.439505,132.386375 191.683535,132.93075 191.683535,133.306187 C191.683535,133.606536 191.533362,133.906881 191.233013,134.20723 C190.932664,134.244774 190.547847,134.282317 190.078551,134.319861 C189.609256,134.357404 189.074267,134.413719 188.473568,134.488806 C188.173219,134.301088 187.872874,134.057058 187.572525,133.756708 C187.272176,133.456359 186.971831,133.0997 186.671482,132.68672 C186.408676,132.311283 186.15526,131.954624 185.911226,131.616731 C185.667193,131.278838 185.413777,130.94095 185.150971,130.603057 C183.574138,131.091125 181.734526,131.335155 179.632081,131.335155 C177.116656,131.335155 175.858963,130.809551 175.858963,129.758329 C175.858963,129.120087 176.403338,128.256596 177.492104,127.16783 C178.505782,127.130286 179.44436,127.073972 180.307864,126.998884 C181.171368,126.923797 181.978544,126.829939 182.729418,126.717308 C180.852235,124.201883 179.913657,122.09947 179.913657,120.410006 C179.913657,119.358783 180.232774,118.34512 180.871016,117.368985 C182.485393,114.966191 185.057095,112.544661 188.586199,110.104324 L189.430927,109.428541 C189.994081,108.978017 190.820029,108.302242 191.908795,107.401194 C193.072649,106.500146 194.011226,106.049629 194.724556,106.049629 C195.024905,106.049629 195.231392,106.068401 195.344023,106.105944 C196.620507,106.556468 197.465227,107.513817 197.878207,108.97802 C197.953294,109.578718 198.047152,110.160636 198.159783,110.723791 C198.272414,111.286946 198.366272,111.868864 198.441359,112.469562 C198.891883,114.346745 199.117141,115.904783 199.117141,117.143724 C199.117141,118.382664 198.891883,119.452643 198.441359,120.35369 C197.803117,120.466321 196.902083,120.729123 195.738229,121.142103 C195.175074,120.916841 194.668243,119.921949 194.217719,118.157397 C194.030001,117.25635 193.832899,116.364701 193.626409,115.482425 C193.419919,114.600149 193.222818,113.727273 193.0351,112.863768 C192.246683,113.502011 191.458278,114.121472 190.669861,114.72217 C189.881444,115.322869 189.111811,115.94233 188.360938,116.580572 C186.408668,118.30758 185.432547,119.88439 185.432547,121.311049 C185.432547,121.648942 185.488862,121.98683 185.601493,122.324722 C186.202191,124.164362 186.934282,125.365741 187.797786,125.928895 C188.511115,125.891352 189.54355,125.891352 190.895122,125.928895 C191.645995,126.003983 192.396857,126.060297 193.14773,126.097841 L195.400338,126.210471 C197.202434,126.360646 198.291183,126.77362 198.66662,127.449406 Z M218.096886,137.980349 C219.823895,137.492281 221.58842,136.572475 223.390515,135.220904 C225.455416,133.719158 226.487852,132.254977 226.487852,130.828318 C226.487852,129.852183 225.905934,128.96992 224.74208,128.181503 C224.704537,128.14396 224.62945,128.125188 224.516819,128.125188 C223.953665,128.125188 223.428061,128.688335 222.939994,129.814644 C222.07649,131.579196 220.49968,132.987062 218.209517,134.038285 C216.069528,135.01442 213.892029,135.50248 211.676953,135.50248 C208.335568,135.50248 206.6649,134.545131 206.6649,132.630404 C206.6649,130.865853 208.373111,128.613267 211.789584,125.87258 C213.253786,124.746271 214.793053,124.051723 216.40743,123.788918 C217.045672,123.71383 217.665134,123.638744 218.265832,123.563657 L220.067918,123.338396 C221.306859,123.150678 222.17035,122.662618 222.658418,121.874201 C221.719826,120.259824 219.936529,119.452647 217.308474,119.452647 L214.661659,119.452647 C212.071147,119.452647 210.193992,118.776871 209.030139,117.4253 C211.545564,115.247768 213.760606,114.159018 215.675333,114.159018 C217.139535,114.159018 218.247057,114.928652 218.99793,116.467941 C219.373366,116.543029 219.654939,116.580572 219.842658,116.580572 C220.143007,116.580572 220.555981,116.486714 221.081592,116.298996 C221.607203,116.111278 222.001406,115.979877 222.264211,115.904789 C222.339299,115.529353 222.376842,115.24778 222.376842,115.060061 C222.376842,113.70849 221.419493,112.525882 219.504766,111.512204 C217.740215,110.611156 216.163405,110.273268 214.774289,110.49853 C212.333952,110.91151 211.038715,111.136769 210.888541,111.174312 C209.536969,111.699924 207.960159,112.600958 206.158064,113.877442 C203.942988,115.529363 202.835467,116.843371 202.835467,117.819506 C202.835467,118.194943 203.492471,119.152292 204.806499,120.691582 C205.519828,121.067018 206.139289,121.414292 206.6649,121.733413 C207.190512,122.052534 207.641029,122.343493 208.016465,122.606298 C207.378223,123.13191 206.758762,123.676284 206.158064,124.239439 C205.557365,124.802594 204.937904,125.346969 204.299662,125.87258 C202.94809,127.186608 201.990741,128.650789 201.427587,130.265166 C201.239868,130.828321 201.146011,131.353924 201.146011,131.841992 C201.146011,133.756718 202.065816,135.521243 203.905455,137.135621 C205.745095,138.712454 207.622249,139.407001 209.536976,139.219283 L212.915888,139.050337 C213.516586,139.012794 214.239291,138.900165 215.084023,138.712446 C215.928755,138.524728 216.933033,138.280698 218.096886,137.980349 Z" id="path-1"></path>
        <filter x="-3.5%" y="-10.8%" width="107.0%" height="130.4%" filterUnits="objectBoundingBox" id="filter-2">
            <feOffset dx="0" dy="2" in="SourceAlpha" result="shadowOffsetOuter1"></feOffset>
            <feGaussianBlur stdDeviation="2" in="shadowOffsetOuter1" result="shadowBlurOuter1"></feGaussianBlur>
            <feColorMatrix values="0 0 0 0 0   0 0 0 0 0   0 0 0 0 0  0 0 0 0.5 0" type="matrix" in="shadowBlurOuter1"></feColorMatrix>
        </filter>
    </defs>
    <g id="Symbols" stroke="none" stroke-width="1" fill="none" fill-rule="evenodd">
        <g id="iPhone-SE" transform="translate(-22.000000, -98.000000)">
            <g id="ITS-SaFe">
                <use fill="black" fill-opacity="1" filter="url(#filter-2)" xlink:href="#path-1"></use>
                <use fill="#DF2053" fill-rule="evenodd" xlink:href="#path-1"></use>
            </g>
        </g>
    </g>
</svg>