<?xml version="1.0" encoding="UTF-8"?>
<svg width="251px" height="363px" viewBox="0 0 251 363" version="1.1" xmlns="http://www.w3.org/2000/svg" xmlns:xlink="http://www.w3.org/1999/xlink">
    <!-- Generator: Sketch 43.1 (39012) - http://www.bohemiancoding.com/sketch -->
    <title>Login</title>
    <desc>Created with Sketch.</desc>
    <defs>
        <filter x="-1.3%" y="-5.5%" width="102.5%" height="111.0%" filterUnits="objectBoundingBox" id="filter-1">
            <feGaussianBlur stdDeviation="1" in="SourceGraphic"></feGaussianBlur>
        </filter>
        <filter x="-2.8%" y="-5.3%" width="105.5%" height="110.5%" filterUnits="objectBoundingBox" id="filter-2">
            <feGaussianBlur stdDeviation="1" in="SourceGraphic"></feGaussianBlur>
        </filter>
    </defs>
    <g id="Symbols" stroke="none" stroke-width="1" fill="none" fill-rule="evenodd">
        <g id="Login">
            <g id="Page-1" transform="translate(0.386719, 0.039062)">
                <g transform="translate(0.000000, 1.000000)">
                    <g id="Tail" transform="translate(2.000000, 0.000000)">
                        <path d="M227.1954,83.389 C229.5954,100.789 231.5954,146.989 198.0954,171.289 C216.9954,159.589 234.4954,148.089 234.3954,110.289 C229.5954,125.989 229.3954,127.389 229.3954,127.389 C229.9954,121.289 232.0954,96.389 227.1954,83.389" id="Fill-52" fill-opacity="0.2" fill="#000000"></path>
                        <path d="M146.4954,55.9891 C146.4954,55.9891 156.1954,64.6891 161.2954,86.5891 C162.1954,93.5891 187.4954,121.1891 163.2954,150.3891 C179.1954,122.3891 164.5954,104.9891 155.4954,92.6891 C155.8954,81.0891 153.1954,65.0891 146.4954,55.9891 Z" id="More-Tail-Shadow" fill-opacity="0.2" fill="#000000"></path>
                        <path d="M96.9954,47.389 C96.9954,47.389 117.6954,45.389 130.4954,53.089 C128.0954,59.189 127.0954,61.989 127.0954,61.989 C127.0954,61.989 115.9954,53.989 97.7954,55.389 C96.7954,50.889 96.9954,47.389 96.9954,47.389" id="Tail-Shadow" fill-opacity="0.2" fill="#000000"></path>
                        <path d="M127.0954,61.7891 C117.4954,56.5891 107.5954,55.2891 97.6954,55.4891" id="Tail-Bottom" stroke="#000000" stroke-width="2.831"></path>
                        <path d="M234.7954,94.489 C217.4954,-34.911 88.4954,6.789 88.4954,6.789 C63.6954,14.589 42.3954,12.089 36.7954,11.289 C47.0954,22.389 65.7954,18.589 72.0954,17.589 C103.6954,7.189 146.1954,0.489 188.8954,24.889 C216.2954,40.389 231.8954,78.789 234.7954,94.489 Z" id="Hilight" fill-opacity="0.15" fill="#F2F2F2"></path>
                        <path d="M141.4954,203.0891 C141.4954,203.0891 174.0954,235.9891 217.0954,186.4891 C201.9954,204.1891 189.0954,222.3891 146.4954,219.2891 C142.1954,205.4891 141.4954,203.0891 141.4954,203.0891" id="Tail-Shadow" fill-opacity="0.2" fill="#000000"></path>
                        <path d="M79.8954,56.6891 C73.4954,57.2891 67.1954,57.8891 60.9954,57.7891 C29.8954,57.0891 7.3954,46.9891 0.3954,13.9891 C19.1954,33.1891 60.0954,45.0891 82.3954,22.2891 C70.0954,26.4891 45.1954,22.2891 35.1954,10.9891 C35.1954,10.9891 59.4954,15.8891 88.3954,6.7891 C88.3954,6.7891 222.9954,-36.6109 235.5954,103.0891 C237.0954,132.6891 228.6954,153.3891 198.4954,172.2891 C217.9954,174.1891 225.7954,165.1891 225.7954,165.1891 C225.7954,165.1891 214.4954,225.3891 145.7954,219.6891" id="Top-Tail" stroke="#000000" stroke-width="2.831"></path>
                        <path d="M80.5954,56.389 C17.4954,64.389 4.7954,30.789 2.4954,20.889 C8.0954,34.389 26.7954,59.789 86.4954,48.589 C84.3954,50.889 82.3954,53.389 80.5954,56.389" id="Tail-shadow" fill-opacity="0.2" fill="#000000"></path>
                    </g>
                    <g id="Legs" transform="translate(78.000000, 181.000000)">
                        <path d="M11.4954,26.389 C6.7954,31.389 3.3954,42.189 1.5954,48.989 C0.4954,47.289 0.0954,44.989 0.1954,42.289 C0.6954,34.489 5.4954,19.589 8.7954,9.889 C8.5954,16.089 9.1954,21.789 11.4954,26.389" id="Outer-leg-shadow" fill-opacity="0.2" fill="#000000"></path>
                        <path d="M19.1954,34.1891 C21.2954,35.2891 23.6954,36.0891 26.5954,36.5891 C26.5954,39.3891 26.5954,43.3891 26.3954,48.9891 C19.7954,45.7891 18.8954,38.8891 19.1954,34.1891 Z" id="Inner-leg-shadow" fill-opacity="0.2" fill="#000000"></path>
                        <path d="M44.8954,48.9891 C44.6954,43.0891 44.6954,38.9891 44.6954,36.2891 C47.4954,35.5891 49.7954,34.6891 51.7954,33.5891 C52.1954,38.2891 51.6954,45.6891 44.8954,48.9891" id="Inner-leg-Shadow" fill-opacity="0.2" fill="#000000"></path>
                        <path d="M68.5954,48.9891 C66.7954,42.0891 63.4954,31.3891 58.6954,26.3891 C61.1954,21.4891 61.2954,15.7891 60.8954,11.0891 C60.7954,10.0891 60.6954,9.1891 60.4954,8.4891 L60.7954,8.3891 C64.1954,17.9891 69.3954,34.0891 69.9954,42.2891 C70.1954,44.9891 69.7954,47.2891 68.5954,48.9891" id="Leg-Shadow" fill-opacity="0.2" fill="#000000"></path>
                        <path d="M58.4954,0.6891 C58.4954,0.6891 69.6954,30.1891 70.3954,42.2891 C70.7954,48.8891 67.9954,52.7891 58.4954,53.1891 C48.9954,53.5891 43.4954,51.1891 43.8954,46.5891 C44.2954,41.8891 43.8954,37.1891 43.8954,37.1891 C43.8954,37.1891 39.3954,38.4891 35.2954,38.4891 C31.1954,38.4891 26.7954,37.1891 26.7954,37.1891 C26.7954,37.1891 26.3954,41.8891 26.7954,46.5891 C27.1954,51.2891 21.6954,53.5891 12.1954,53.1891 C2.6954,52.7891 -0.1046,48.8891 0.2954,42.2891 C1.0954,30.1891 12.1954,0.6891 12.1954,0.6891" stroke="#000000" stroke-width="2.926"></path>
                    </g>
                    <g id="Arms" transform="translate(33.000000, 157.000000)">
                        <path d="M29.3954,11.8891 C30.0954,12.9891 30.8954,14.5891 31.1954,16.5891 C31.5954,18.4891 31.4954,20.6891 30.9954,22.5891 C30.4954,24.4891 29.5954,26.1891 28.6954,27.3891 C26.8954,29.8891 24.4954,31.6891 22.4954,32.6891 C20.4954,33.6891 18.9954,33.9891 18.9954,34.0891 C18.9954,34.0891 20.3954,34.6891 22.9954,34.3891 C24.2954,34.2891 25.7954,33.8891 27.2954,33.0891 C28.7954,32.2891 30.2954,31.0891 31.4954,29.4891 C32.6954,27.8891 33.6954,25.5891 33.8954,23.0891 C34.1954,20.6891 33.7954,18.0891 32.8954,16.0891 C31.9954,14.0891 30.7954,12.4891 29.7954,11.5891 C28.7954,10.5891 28.0954,10.1891 28.0954,10.1891 C28.0954,10.1891 28.6954,10.7891 29.3954,11.8891 Z" id="Left-Hand-Light" fill-opacity="0.15" fill="#F2F2F2"></path>
                        <path d="M151.3954,29.8891 C152.0954,30.9891 152.8954,32.5891 153.1954,34.5891 C153.5954,36.4891 153.4954,38.6891 152.9954,40.5891 C152.4954,42.4891 151.5954,44.1891 150.6954,45.3891 C148.8954,47.8891 146.4954,49.6891 144.4954,50.6891 C142.4954,51.6891 140.9954,51.9891 140.9954,52.0891 C140.9954,52.0891 142.3954,52.6891 144.9954,52.3891 C146.2954,52.2891 147.7954,51.8891 149.2954,51.0891 C150.7954,50.2891 152.2954,49.0891 153.4954,47.4891 C154.6954,45.8891 155.6954,43.5891 155.8954,41.0891 C156.1954,38.6891 155.7954,36.0891 154.8954,34.0891 C153.9954,32.0891 152.7954,30.4891 151.7954,29.5891 C150.7954,28.5891 150.0954,28.1891 150.0954,28.1891 C150.0954,28.1891 150.6954,28.7891 151.3954,29.8891 Z" id="Left-Hand-Light" fill-opacity="0.15" fill="#F2F2F2"></path>
                        <path d="M17.1954,37.4891 C9.7954,37.4891 4.2954,32.9891 1.7954,27.3891 C-1.3046,20.4891 -0.4046,10.6891 9.1954,5.1891 C21.3954,-1.7109 32.7954,-0.0109 38.8954,1.7891 C41.4954,2.5891 42.0954,5.4891 42.2954,5.5891 C42.0954,5.4891 26.7954,-2.0109 10.3954,7.2891 C2.0954,11.9891 1.2954,20.4891 3.9954,26.4891 C6.7954,32.6891 13.9954,37.4891 23.4954,34.0891 C29.5954,31.8891 34.1954,29.6891 38.0954,27.6891 C46.8954,23.3891 52.0954,20.6891 62.5954,25.4891 L61.5954,27.5891 C52.1954,23.2891 47.4954,25.5891 39.0954,29.6891 C35.2954,31.5891 30.4954,33.9891 24.1954,36.1891 C21.6954,37.0891 19.3954,37.4891 17.1954,37.4891" id="Left-Arm-2" fill="#000000"></path>
                        <path d="M18.1954,35.4891 C20.8954,34.7891 23.5954,33.6891 25.9954,32.2891 C28.3954,30.7891 30.4954,28.9891 31.8954,26.6891 C33.1954,24.3891 33.6954,21.6891 33.3954,18.8891 C33.0954,16.1891 32.1954,13.3891 30.9954,10.7891 C30.8954,10.4891 30.9954,10.0891 31.2954,9.8891 C31.5954,9.7891 31.9954,9.8891 32.0954,10.1891 C33.6954,12.6891 34.8954,15.5891 35.3954,18.5891 C35.8954,21.6891 35.4954,24.9891 33.7954,27.7891 C32.1954,30.5891 29.6954,32.6891 26.9954,34.0891 C24.2954,35.5891 21.3954,36.4891 18.3954,36.9891 C17.9954,37.0891 17.5954,36.7891 17.4954,36.3891 C17.4954,35.9891 17.7954,35.5891 18.1954,35.4891" id="Left-Arm" fill="#000000"></path>
                        <path d="M140.1954,54.6891 C135.9954,54.6891 131.5954,53.0891 127.4954,49.0891 C122.6954,44.4891 119.2954,40.3891 116.5954,36.9891 C110.6954,29.7891 107.3954,25.7891 97.1954,25.7891 L96.9954,25.7891 L96.9954,23.4891 L97.1954,23.4891 C108.4954,23.4891 112.2954,28.0891 118.3954,35.5891 C121.1954,38.9891 124.3954,42.8891 129.0954,47.4891 C136.3954,54.4891 144.7954,53.0891 149.9954,48.6891 C154.8954,44.3891 157.6954,36.2891 152.0954,28.5891 C140.9954,13.2891 123.8954,13.8891 123.7954,13.8891 L123.6954,12.2891 C123.8954,12.2891 125.8954,11.4891 128.7954,11.8891 C135.0954,12.7891 145.8954,16.0891 153.9954,27.1891 C160.3954,36.0891 157.2954,45.4891 151.5954,50.3891 C148.4954,52.9891 144.4954,54.6891 140.1954,54.6891" id="Right-Arm" fill="#000000"></path>
                        <path d="M132.2954,52.1891 C129.6954,50.4891 127.4954,48.4891 125.6954,45.9891 C123.7954,43.5891 122.4954,40.5891 122.0954,37.4891 C121.6954,34.2891 122.6954,30.9891 124.3954,28.3891 C126.0954,25.7891 128.3954,23.6891 130.8954,22.0891 C131.1954,21.8891 131.5954,21.9891 131.7954,22.2891 C131.9954,22.5891 131.8954,22.9891 131.6954,23.1891 C129.5954,25.0891 127.5954,27.1891 126.1954,29.5891 C124.7954,31.9891 124.0954,34.5891 124.2954,37.2891 C124.4954,39.9891 125.7954,42.4891 127.2954,44.7891 C128.8954,47.0891 130.8954,49.1891 133.0954,50.9891 C133.3954,51.2891 133.4954,51.7891 133.1954,52.0891 C133.0954,52.3891 132.5954,52.4891 132.2954,52.1891" id="Right-Hand" fill="#000000"></path>
                    </g>
                    <g id="Nose" transform="translate(107.000000, 172.000000)" fill="#000000">
                        <path d="M0.8954,0.5891 C0.8954,0.5891 3.5954,3.4891 6.2954,3.3891 C8.6954,3.3891 11.2954,1.6891 11.6954,0.6891 C11.6954,0.6891 11.7954,0.5891 11.6954,0.5891 C8.4954,1.6891 4.5954,1.3891 0.8954,0.5891" id="Mouth"></path>
                        <polygon points="5.395 7.089 7.295 7.089 7.295 1.689 5.395 1.689"></polygon>
                    </g>
                    <g id="Body" transform="translate(86.000000, 181.000000)" fill="#000000">
                        <path d="M7.8954,1.9891 C7.8954,1.9891 -3.7046,29.1891 23.6954,32.0891 C51.1954,34.9891 49.6954,8.9891 44.4954,1.7891 C44.4954,-1.3109 47.0954,0.5891 47.0954,0.5891 C47.0954,0.5891 51.8954,0.5891 52.7954,10.9891 C53.7954,21.2891 52.0954,36.3891 28.3954,37.1891 C4.7954,37.9891 -0.0046,25.1891 0.7954,9.7891 C3.5954,2.2891 2.5954,0.3891 7.8954,1.9891" id="Tummy-Shadow" fill-opacity="0.1"></path>
                        <path d="M28.6954,26.9891 C28.7954,26.9891 28.5954,26.6891 28.2954,26.5891 C27.9954,26.4891 27.6954,26.3891 27.2954,26.3891 C26.9954,26.3891 26.5954,26.4891 26.2954,26.5891 C25.9954,26.6891 25.7954,26.9891 25.8954,26.9891 C25.8954,26.8891 26.0954,27.0891 26.3954,27.1891 C26.6954,27.2891 26.9954,27.2891 27.2954,27.2891 C27.5954,27.2891 27.8954,27.2891 28.1954,27.1891 C28.4954,27.0891 28.6954,26.9891 28.6954,26.9891 M29.6954,27.0891 C29.6954,27.0891 29.6954,27.4891 29.5954,27.5891 C29.4954,27.6891 29.3954,27.8891 29.2954,27.8891 C29.0954,28.0891 28.8954,28.1891 28.6954,28.2891 C28.2954,28.4891 27.7954,28.5891 27.3954,28.5891 C26.9954,28.5891 26.4954,28.4891 26.0954,28.2891 C25.8954,28.1891 25.6954,28.0891 25.4954,27.8891 C25.2954,27.6891 25.0954,27.3891 25.0954,26.9891 C25.0954,26.8891 25.1954,26.5891 25.2954,26.4891 L25.5954,26.1891 C25.7954,26.0891 25.9954,25.9891 26.1954,25.8891 C26.5954,25.7891 26.9954,25.7891 27.3954,25.7891 C27.7954,25.7891 28.1954,25.7891 28.5954,25.8891 C28.7954,25.9891 28.9954,25.9891 29.1954,26.1891 C29.3954,26.3891 29.5954,26.5891 29.6954,27.0891" id="Belly-Button"></path>
                    </g>
                    <g id="Right-Eye" transform="translate(116.000000, 134.000000)">
                        <path d="M0.5954,8.2891 C0.5954,8.2891 -0.5046,24.6891 17.7954,18.7891 C16.7954,16.9891 11.9954,16.2891 11.9954,16.2891 C11.9954,16.2891 3.2954,20.8891 0.5954,8.2891" id="Eye-shadow" fill-opacity="0.2" fill="#000000"></path>
                        <path d="M9.5954,16.7891 L7.9954,15.8891 L9.6954,15.4891 C9.7954,15.4891 18.5954,13.0891 34.8954,1.3891 L36.6954,0.0891 L35.9954,2.1891 C35.7954,2.6891 31.6954,15.0891 23.9954,17.7891 C22.0954,18.4891 20.0954,18.7891 18.0954,18.7891 C13.2954,18.7891 9.7954,16.8891 9.5954,16.7891" id="Bottom-Brow" fill="#000000"></path>
                        <path d="M16.3954,14.1891 C16.3954,14.1891 19.5954,15.9891 23.2954,14.6891 C26.9954,13.3891 28.9954,7.1891 28.9954,7.1891 C20.7954,13.0891 16.3954,14.1891 16.3954,14.1891" id="Yellow" fill="#FFFF00"></path>
                        <path d="M27.0954,9.6891 C24.9954,11.2891 19.1954,13.5891 16.4954,14.1891 C19.6954,13.1891 23.9954,10.7891 29.0954,7.1891 C29.0954,7.1891 27.0954,13.3891 23.3954,14.6891 C22.0954,15.1891 19.7954,15.6891 16.6954,14.2891 C20.8954,15.9891 24.8954,13.9891 26.0954,11.9891 C27.1954,9.9891 27.0954,9.6891 27.0954,9.6891" id="Orange" fill="#FFB000"></path>
                        <path d="M17.7954,14.0891 C14.8954,15.4891 12.0954,16.7891 9.0954,17.2891 C7.5954,17.4891 5.9954,17.2891 4.7954,16.5891 C3.5954,15.8891 2.6954,14.8891 2.1954,13.8891 C1.0954,11.9891 0.8954,10.1891 0.6954,8.9891 C0.5954,7.7891 0.5954,7.1891 0.5954,7.1891 C0.5954,7.1891 0.6954,7.7891 0.9954,8.9891 C1.2954,10.0891 1.8954,11.6891 3.0954,13.2891 C3.6954,14.0891 4.4954,14.7891 5.4954,15.1891 C6.4954,15.5891 7.5954,15.6891 8.7954,15.3891 C11.2954,14.7891 13.9954,13.4891 16.7954,12.0891 C27.9954,6.2891 36.6954,0.4891 36.3954,0.1891 C36.6954,0.4891 29.2954,8.0891 17.7954,14.0891" id="Top-Brow" fill="#000000"></path>
                        <path d="M22.3000031,12.389 C22.8525031,12.389 23.3000031,12.8365 23.3000031,13.389 C23.3000031,13.9415 22.8525031,14.389 22.3000031,14.389 C21.7475031,14.389 21.3000031,13.9415 21.3000031,13.389 C21.3000031,12.8365 21.7475031,12.389 22.3000031,12.389" id="Pupil" fill="#FFFFFF"></path>
                    </g>
                    <g id="Left-Eye" transform="translate(73.000000, 134.000000)">
                        <path d="M36.6954,8.2891 C36.6954,8.2891 37.7954,24.6891 19.4954,18.7891 C20.4954,16.9891 25.2954,16.2891 25.2954,16.2891 C25.2954,16.2891 33.9954,20.8891 36.6954,8.2891" id="Shdow" fill-opacity="0.2" fill="#000000"></path>
                        <path d="M19.0954,18.789 L19.0954,18.789 C17.0954,18.789 15.0954,18.489 13.1954,17.789 C5.4954,15.089 1.3954,2.689 1.1954,2.189 L0.4954,0.089 L2.2954,1.389 C18.5954,13.189 27.3954,15.489 27.4954,15.489 L29.1954,15.889 L27.5954,16.789 C27.4954,16.889 23.9954,18.789 19.0954,18.789" id="Btoom-Brow" fill="#000000"></path>
                        <path d="M8.2954,7.1891 C8.2954,7.1891 10.2954,13.3891 13.9954,14.6891 C17.6954,15.9891 20.8954,14.1891 20.8954,14.1891 C20.8954,14.1891 16.4954,13.0891 8.2954,7.1891" id="Yellow" fill="#FFFF00"></path>
                        <path d="M10.2954,9.6891 C12.3954,11.2891 18.1954,13.5891 20.8954,14.1891 C17.6954,13.1891 13.3954,10.7891 8.2954,7.1891 C8.2954,7.1891 10.2954,13.3891 13.9954,14.6891 C15.2954,15.1891 17.5954,15.6891 20.6954,14.2891 C16.4954,15.9891 12.4954,13.9891 11.2954,11.9891 C10.1954,9.9891 10.2954,9.6891 10.2954,9.6891" id="Orange" fill="#FFB000"></path>
                        <path d="M0.8954,0.2891 C0.6954,0.5891 9.2954,6.2891 20.4954,12.1891 C23.2954,13.5891 25.9954,14.8891 28.4954,15.4891 C29.6954,15.7891 30.8954,15.6891 31.7954,15.2891 C32.7954,14.8891 33.5954,14.1891 34.1954,13.3891 C35.3954,11.7891 35.8954,10.1891 36.2954,9.0891 C36.5954,7.9891 36.6954,7.2891 36.6954,7.2891 C36.6954,7.2891 36.6954,7.8891 36.5954,9.0891 C36.3954,10.2891 36.1954,11.9891 35.0954,13.9891 C34.4954,14.9891 33.6954,15.9891 32.4954,16.6891 C31.2954,17.3891 29.6954,17.5891 28.1954,17.3891 C25.1954,16.8891 22.3954,15.6891 19.4954,14.1891 C7.9954,8.0891 0.5954,0.4891 0.8954,0.2891" id="Top-Brow" fill="#000000"></path>
                        <path d="M15.3000031,12.389 C15.8525031,12.389 16.3000031,12.8365 16.3000031,13.389 C16.3000031,13.9415 15.8525031,14.389 15.3000031,14.389 C14.7475031,14.389 14.3000031,13.9415 14.3000031,13.389 C14.3000031,12.8365 14.7475031,12.389 15.3000031,12.389" id="Pupil" fill="#FFFFFF"></path>
                    </g>
                    <g id="Ears" transform="translate(84.000000, 36.000000)">
                        <path d="M14.5954,31.9891 C15.2954,34.4891 16.2954,41.1891 16.8954,44.7891 C19.1954,44.2891 21.4954,43.6891 23.7954,43.5891 C21.5954,19.5891 9.9954,23.4891 17.3954,0.5891 C17.2954,0.5891 6.5954,10.5891 14.5954,31.9891" id="Ear-Shadow" fill-opacity="0.15" fill="#F2F2F2"></path>
                        <path d="M48.9954,31.9891 C48.2954,34.4891 47.0954,41.0891 46.5954,44.7891 C44.2954,44.2891 41.9954,43.6891 39.6954,43.5891 C41.8954,19.5891 53.6954,23.4891 46.2954,0.5891 C46.2954,0.5891 56.8954,10.5891 48.9954,31.9891" id="Ear-Shadow-Right" fill-opacity="0.15" fill="#F2F2F2"></path>
                        <path d="M63.9954,50.9891 C63.9954,50.9891 63.9954,35.7891 56.9954,25.8891 C57.0954,36.2891 53.3954,39.2891 51.9954,45.7891 C60.9954,48.8891 63.9954,50.9891 63.9954,50.9891" id="Right-Ear" fill-opacity="0.1" fill="#000000"></path>
                        <path d="M0.4954,50.6891 C0.4954,50.6891 0.4954,35.8891 7.4954,25.9891 C7.3954,36.3891 11.1954,39.1891 12.5954,45.6891 C5.4954,47.7891 0.4954,50.6891 0.4954,50.6891" id="Left-Ear" fill-opacity="0.1" fill="#000000"></path>
                    </g>
                    <g id="Head" transform="translate(50.000000, 36.000000)">
                        <path d="M65.4954,47.6891 C87.7954,47.6891 107.2954,56.4891 117.9954,70.4891 C109.2954,56.0891 89.2954,43.1891 65.6954,43.1891 C42.0954,43.1891 21.6954,56.3891 12.9954,70.4891 C23.6954,56.4891 43.1954,47.6891 65.4954,47.6891" id="Head-Shadow" fill-opacity="0.15" fill="#F2F2F2"></path>
                        <path d="M65.4954,136.5891 C47.1954,136.5891 27.8954,127.1891 15.9954,113.7891 C26.4954,130.3891 46.5954,142.4891 65.4954,142.4891 C84.3954,142.4891 104.4954,130.3891 114.9954,113.7891 C103.0954,127.2891 83.7954,136.5891 65.4954,136.5891" id="Hiliight" fill-opacity="0.1" fill="#000000"></path>
                        <path d="M0.0954,124.4891 C0.0954,124.4891 12.1954,122.5891 38.8954,142.0891 C55.4954,154.1891 70.1954,156.1891 84.7954,138.9891 C84.7954,138.9891 72.3954,142.4891 61.7954,142.2891 C47.6954,142.3891 31.6954,131.1891 26.4954,126.2891 C26.1954,125.9891 25.9954,125.6891 25.7954,125.5891 C13.7954,119.2891 0.0954,124.4891 0.0954,124.4891" id="Neck-Shadow" fill-opacity="0.2" fill="#000000"></path>
                        <path d="M108.0954,57.3891 C108.5954,57.7891 108.8954,58.1891 109.1954,58.4891 C109.6954,58.9891 109.9954,59.2891 110.3954,59.6891 C110.7954,60.0891 111.0954,60.3891 111.3954,60.7891 C111.7954,61.2891 112.1954,61.6891 112.5954,62.1891 C112.7954,62.4891 112.9954,62.6891 113.1954,62.9891 C113.2954,63.0891 113.3954,63.1891 113.4954,63.3891 C113.6954,63.6891 113.8954,63.8891 114.0954,64.1891 C114.5954,64.8891 115.0954,65.5891 115.4954,66.2891 C115.7954,66.7891 116.1954,67.2891 116.4954,67.8891 C116.5954,68.0891 116.7954,68.2891 116.8954,68.5891 C116.9954,68.7891 117.1954,69.0891 117.2954,69.2891 C117.4954,69.6891 117.6954,70.0891 117.8954,70.4891 C118.0954,70.7891 118.1954,71.0891 118.2954,71.3891 C118.4954,71.7891 118.6954,72.2891 118.8954,72.6891 C119.1954,73.4891 119.3954,73.9891 119.5954,74.3891 C119.6954,74.7891 119.8954,75.0891 119.9954,75.4891 C120.0954,75.6891 120.0954,75.8891 120.1954,76.0891 C120.3954,76.4891 120.4954,76.9891 120.5954,77.3891 C120.6954,77.6891 120.7954,77.9891 120.8954,78.3891 C120.9954,78.7891 121.0954,79.2891 121.1954,79.6891 C121.2954,80.1891 121.3954,80.7891 121.5954,81.2891 C121.6954,81.8891 121.6954,82.2891 121.7954,82.5891 C121.8954,82.9891 121.8954,83.3891 121.9954,83.8891 C122.0954,84.4891 122.1954,84.9891 122.1954,85.5891 C122.1954,85.9891 122.2954,86.3891 122.2954,86.7891 L122.2954,87.4891 L122.2954,89.6891 L122.2954,91.5891 C122.2954,92.1891 122.2954,92.5891 122.1954,92.9891 C122.1954,93.5891 122.0954,94.1891 121.9954,94.6891 C121.8954,95.5891 121.6954,96.4891 121.5954,97.4891 C121.4954,97.7891 121.4954,98.0891 121.3954,98.3891 C121.3954,98.5891 121.2954,98.6891 121.2954,98.8891 C121.2954,99.0891 121.1954,99.1891 121.1954,99.3891 C121.1954,99.5891 121.0954,99.7891 120.9954,100.0891 C120.8954,100.4891 120.7954,100.8891 120.6954,101.3891 C120.5954,101.6891 120.4954,101.8891 120.4954,102.1891 C120.3954,102.4891 120.2954,102.6891 120.2954,102.9891 C120.0954,103.4891 119.9954,103.9891 119.7954,104.4891 C119.5954,105.0891 119.3954,105.5891 119.1954,106.0891 C118.7954,107.0891 118.3954,107.8891 117.9954,108.6891 C117.3954,109.8891 116.7954,110.9891 116.1954,112.1891 C115.8954,112.6891 115.5954,113.0891 115.3954,113.5891 C114.7954,114.5891 114.1954,115.4891 113.4954,116.4891 C112.7954,117.3891 112.1954,118.3891 111.3954,119.1891 C110.9954,119.6891 110.6954,120.0891 110.2954,120.4891 C109.9954,120.8891 109.5954,121.2891 109.2954,121.5891 C108.6954,122.1891 108.3954,122.5891 107.9954,122.9891 C106.4954,124.5891 104.8954,126.0891 103.1954,127.4891 C102.8954,127.6891 102.5954,127.9891 102.3954,128.1891 C101.8954,128.6891 101.2954,129.0891 100.6954,129.4891 C100.4954,129.6891 100.1954,129.7891 99.9954,129.9891 C99.5954,130.2891 99.1954,130.5891 98.6954,130.8891 C98.2954,131.1891 97.7954,131.4891 97.3954,131.7891 C97.0954,131.9891 96.7954,132.1891 96.4954,132.3891 C96.1954,132.5891 95.7954,132.7891 95.4954,133.0891 C95.0954,133.2891 94.6954,133.5891 94.3954,133.7891 C85.4954,139.1891 75.2954,142.4891 65.4954,142.4891 C38.1954,142.4891 8.4954,117.4891 8.4954,89.6891 C8.4954,76.2891 14.3954,64.6891 24.0954,56.2891 L23.9954,55.6891 C23.9954,55.6891 17.8954,24.0891 51.1954,0.6891 C43.7954,23.5891 55.1954,17.8891 57.3954,41.8891 C59.9954,41.9891 62.7954,41.8891 65.3954,41.8891 C67.8954,41.8891 70.3954,41.9891 72.7954,42.2891 L74.6954,42.4891 L74.7954,40.3891 C76.9954,16.3891 87.5954,23.5891 80.1954,0.7891 C113.4954,24.1891 106.9954,56.5891 106.9954,56.5891 C107.5954,56.8891 107.7954,57.0891 108.0954,57.3891 Z" stroke="#000000" stroke-width="2.831"></path>
                        <path d="M45.8852,97.3982 C47.6042,95.7602 51.0062,96.5392 53.4822,99.1382 C55.9582,101.7372 56.5722,105.1722 54.8522,106.8102 C53.1332,108.4482 49.7322,107.6692 47.2552,105.0702 C44.7792,102.4712 44.1662,99.0362 45.8852,97.3982" id="Fill-68" fill-opacity="0.15" fill="#F2F2F2"></path>
                        <path d="M72.1954,108.2891 C73.3004,108.2891 74.1954,109.1841 74.1954,110.2891 C74.1954,111.3941 73.3004,112.2891 72.1954,112.2891 C71.0904,112.2891 70.1954,111.3941 70.1954,110.2891 C70.1954,109.1841 71.0904,108.2891 72.1954,108.2891" id="Fill-71" fill-opacity="0.15" fill="#F2F2F2"></path>
                    </g>
                    <path d="M208.8954,233.4891 C221.9954,233.6891 227.5954,235.0891 227.5954,235.1891 L229.5954,235.6891 L228.2954,234.0891 C227.7954,233.4891 216.1954,219.9891 148.9954,221.0891 C148.9954,220.9891 149.0954,220.8891 149.0954,220.8891 C149.1954,220.3891 149.0954,219.8891 148.7954,219.4891 C148.6954,219.2891 148.3954,219.0891 148.1954,218.8891 C148.9954,220.9891 148.3954,223.6891 146.4954,224.9891 C146.3954,227.3891 144.7954,229.7891 141.6954,229.7891 L141.3954,229.7891 C140.5954,230.7891 139.3954,231.4891 137.6954,231.4891 C136.4954,231.4891 135.4954,231.0891 134.6954,230.4891 C133.8954,231.0891 132.8954,231.4891 131.6954,231.4891 C129.9954,231.4891 128.7954,230.7891 127.9954,229.7891 C126.3954,229.6891 125.2954,228.9891 124.5954,227.9891 C121.6954,227.0891 120.6954,223.7891 121.5954,221.1891 C121.4954,220.8891 121.3954,220.5891 121.3954,220.3891 L121.3954,221.1891 C119.9954,221.0891 116.4954,220.8891 113.2954,220.8891 C110.1954,220.8891 106.7954,221.0891 105.3954,221.1891 C105.2954,221.6891 105.0954,222.0891 104.8954,222.5891 C106.5954,225.5891 105.1954,230.2891 100.6954,230.2891 C100.1954,230.2891 99.6954,230.1891 99.2954,230.0891 C98.4954,230.7891 97.3954,231.2891 96.0954,231.2891 C95.3954,231.2891 94.7954,231.1891 94.2954,230.9891 C93.7954,231.1891 93.1954,231.2891 92.4954,231.2891 C91.6954,231.2891 90.8954,231.0891 90.2954,230.7891 C89.8954,230.8891 89.5954,230.8891 89.0954,230.8891 C87.9954,230.8891 87.0954,230.5891 86.3954,230.1891 L85.4954,230.1891 C81.0954,230.1891 77.3954,229.7891 72.0954,229.1891 L71.9954,229.1891 C68.1954,228.7891 63.3954,228.1891 57.1954,227.6891 C54.7954,227.4891 52.4954,227.3891 50.1954,227.3891 C43.4954,227.3891 37.5954,228.2891 34.6954,229.7891 C33.4954,230.3891 32.8954,231.0891 32.9954,231.7891 C33.2954,233.2891 36.3954,234.3891 42.0954,235.1891 C47.9954,235.9891 54.2954,236.3891 60.7954,236.3891 C64.0954,236.3891 67.0954,236.2891 69.3954,236.1891 C62.2954,238.2891 57.7954,240.7891 57.7954,243.5891 C57.7954,246.8891 62.9954,249.6891 73.0954,251.8891 C72.8954,252.4891 72.7954,253.2891 73.1954,254.1891 C73.8954,255.9891 75.7954,257.5891 79.0954,259.0891 C73.8954,258.9891 68.3954,258.8891 63.0954,258.8891 C27.1954,259.0891 8.3954,262.2891 1.9954,269.2891 L0.4954,270.8891 L2.6954,270.3891 C18.4954,266.5891 51.2954,263.8891 74.3954,266.6891 C61.3954,266.5891 44.7954,267.6891 37.1954,269.6891 L30.9954,271.2891 L37.3954,270.9891 C37.5954,270.9891 61.9954,269.8891 90.4954,271.9891 C92.5954,272.1891 111.8954,273.5891 135.9954,273.5891 C176.4954,273.5891 230.4954,269.5891 238.3954,249.1891 L238.3954,248.9891 C238.3954,242.7891 233.0954,237.7891 208.8954,233.4891" id="Floor-Shadow" fill-opacity="0.1" fill="#000000" filter="url(#filter-1)"></path>
                </g>
            </g>
            <g id="ether" transform="translate(58.254883, 231.169659)">
                <g transform="translate(0.345538, 0.356330)">
                    <polygon id="Path-2" fill-opacity="0.1" fill="#000000" filter="url(#filter-2)" points="53.5505656 69.7684355 0 94.1036911 54.0807692 126.903384 108.161538 94.6327184"></polygon>
                    <polygon id="Shape" fill="#E45B83" fill-rule="nonzero" opacity="0.95" points="54.3037689 0.278464294 54.3037689 101.398753 98.7149857 74.3464136"></polygon>
                    <polygon id="Shape" fill="#DF4776" fill-rule="nonzero" opacity="0.95" points="98.7149857 74.3464136 54.3037689 54.5088305 54.3037689 101.398753"></polygon>
                    <polygon id="Shape" fill="#EB91AC" fill-rule="nonzero" opacity="0.95" points="54.3037689 0.278464294 54.3037689 101.398753 9.89166201 74.3464136"></polygon>
                    <polygon id="Shape" fill="#E45E86" fill-rule="nonzero" opacity="0.95" points="9.89166201 74.3464136 54.3037689 54.5088305 54.3037689 101.398753"></polygon>
                </g>
            </g>
        </g>
    </g>
</svg>