<?xml version="1.0" encoding="UTF-8"?>
<svg width="188px" height="348px" viewBox="0 0 188 348" version="1.1" xmlns="http://www.w3.org/2000/svg" xmlns:xlink="http://www.w3.org/1999/xlink">
    <!-- Generator: Sketch 43.1 (39012) - http://www.bohemiancoding.com/sketch -->
    <title>Warning</title>
    <desc>Created with Sketch.</desc>
    <defs>
        <filter x="-1.7%" y="-9.1%" width="103.4%" height="118.2%" filterUnits="objectBoundingBox" id="filter-1">
            <feGaussianBlur stdDeviation="1" in="SourceGraphic"></feGaussianBlur>
        </filter>
        <filter x="-2.2%" y="-15.8%" width="104.4%" height="131.7%" filterUnits="objectBoundingBox" id="filter-2">
            <feGaussianBlur stdDeviation="1" in="SourceGraphic"></feGaussianBlur>
        </filter>
        <filter x="-75.0%" y="-75.0%" width="250.0%" height="250.0%" filterUnits="objectBoundingBox" id="filter-3">
            <feGaussianBlur stdDeviation="1" in="SourceGraphic"></feGaussianBlur>
        </filter>
        <filter x="-14.9%" y="-21.7%" width="129.7%" height="143.3%" filterUnits="objectBoundingBox" id="filter-4">
            <feGaussianBlur stdDeviation="1" in="SourceGraphic"></feGaussianBlur>
        </filter>
        <filter x="-22.5%" y="-67.5%" width="145.1%" height="235.0%" filterUnits="objectBoundingBox" id="filter-5">
            <feGaussianBlur stdDeviation="1" in="SourceGraphic"></feGaussianBlur>
        </filter>
    </defs>
    <g id="Symbols" stroke="none" stroke-width="1" fill="none" fill-rule="evenodd">
        <g id="Warning">
            <g id="skull" transform="translate(7.000000, 4.000000)">
                <g>
                    <g id="Shadows" transform="translate(0.000000, 245.000000)" fill-opacity="0.1" fill-rule="nonzero" fill="#000000">
                        <path d="M171.971,27.466 L165.632,26.329 C162.231,25.717 157.776,25.384 153.088,25.384 C148.59,25.384 144.204,25.692 140.65,26.249 C138.369,22.788 130.004,20.516 116.462,19.787 C114.07,19.652 112.514,19.516 111.503,19.391 C111.693,19.112 111.816,18.787 111.816,18.38 L111.816,15.975 L109.587,15.965 L62.51,15.965 L62.51,18.38 C62.51,18.759 62.619,19.102 62.851,19.407 C61.841,19.515 60.285,19.652 57.879,19.787 C44.898,20.48 36.642,22.598 33.978,25.826 C31.175,25.546 28.075,25.384 24.929,25.384 C20.243,25.384 15.788,25.717 12.386,26.329 L6.046,27.466 C2.273,28.143 0.143,29.089 0.033,30.108 C-0.064,31.129 1.837,32.1 5.374,32.868 L73.606,47.66 C77.446,48.49 82.844,48.967 88.419,48.967 L89.596,48.967 C95.17,48.967 100.569,48.49 104.409,47.66 L172.638,32.868 C176.177,32.1 178.076,31.129 177.966,30.108 C177.876,29.089 175.73,28.143 171.971,27.466 Z" id="HeadShadow" filter="url(#filter-1)"></path>
                        <path d="M32.052,11.846 C25.162,11.846 19.561,12.946 19.561,14.307 C19.561,15.397 23.196,16.328 28.211,16.641 C28.033,16.803 27.951,16.966 27.951,17.137 C27.951,18.491 33.555,19.587 40.441,19.587 C47.329,19.587 52.945,18.488 52.945,17.137 C52.945,16.623 52.112,16.127 50.649,15.723 L87.545,11.719 L124.43,15.723 C122.967,16.127 122.134,16.623 122.134,17.137 C122.134,18.491 127.749,19.587 134.639,19.587 C141.524,19.587 147.126,18.488 147.126,17.137 C147.126,16.966 147.047,16.803 146.868,16.641 C151.882,16.328 155.515,15.397 155.515,14.307 C155.515,12.946 149.913,11.846 143.025,11.846 C138.23,11.846 134.047,12.378 131.958,13.16 L103.111,10.032 L131.603,6.949 C133.556,7.806 137.945,8.4 143.025,8.4 C149.916,8.4 155.515,7.299 155.515,5.95 C155.515,4.859 151.879,3.929 146.868,3.605 C147.031,3.443 147.126,3.282 147.126,3.111 C147.126,1.757 141.512,0.659 134.623,0.659 C127.736,0.659 122.134,1.759 122.134,3.111 C122.134,3.579 122.79,4.019 123.979,4.4 L87.545,8.347 L51.1,4.4 C52.289,4.019 52.946,3.579 52.946,3.111 C52.946,1.757 47.343,0.659 40.456,0.659 C33.569,0.659 27.952,1.759 27.952,3.111 C27.952,3.282 28.05,3.443 28.212,3.605 C23.196,3.929 19.562,4.859 19.562,5.95 C19.562,7.302 25.164,8.4 32.053,8.4 C37.136,8.4 41.523,7.806 43.476,6.949 L71.968,10.032 L43.122,13.16 C41.031,12.378 36.848,11.846 32.052,11.846 Z" id="BonesShadow" filter="url(#filter-2)"></path>
                    </g>
                    <g id="Bones" transform="translate(19.000000, 149.000000)">
                        <polygon id="Path-2" fill-opacity="0.1" fill="#000000" points="78 49 94 57 85 64 69 56"></polygon>
                        <path d="M11.743,16.091 C11.743,16.091 18.576,1.1 31.33,11.328 C29.509,5.841 23.132,-0.739 14.932,4.716 C10.604,11.309 10.436,13.292 11.743,16.091 Z" id="BoneHighlightB" fill-opacity="0.15" fill="#F2F2F2" fill-rule="nonzero"></path>
                        <path d="M3.743,72.091 C3.743,72.091 10.576,57.1 23.33,67.328 C21.509,61.841 15.132,55.261 6.932,60.716 C2.604,67.309 2.436,69.292 3.743,72.091 Z" id="BoneHighlightB" fill-opacity="0.15" fill="#F2F2F2" fill-rule="nonzero"></path>
                        <path d="M124.525,16.091 C124.525,16.091 117.693,1.1 104.939,11.328 C106.761,5.841 113.138,-0.739 121.335,4.716 C125.666,11.309 125.835,13.292 124.525,16.091 Z" id="BoneHiLightA" fill-opacity="0.15" fill="#F2F2F2" fill-rule="nonzero"></path>
                        <path d="M134.525,73.091 C134.525,73.091 127.693,58.1 114.939,68.328 C116.761,62.841 123.138,56.261 131.335,61.716 C135.666,68.309 135.835,70.292 134.525,73.091 Z" id="BoneHiLightA" fill-opacity="0.15" fill="#F2F2F2" fill-rule="nonzero"></path>
                        <path d="M124.525,95.091 C124.525,95.091 117.693,80.1 104.939,90.328 C106.761,84.841 113.138,78.261 121.335,83.716 C125.666,90.309 125.835,92.292 124.525,95.091 Z" id="BoneHiLightA" fill-opacity="0.1" fill="#000000" fill-rule="nonzero" transform="translate(115.090920, 88.380721) rotate(-186.000000) translate(-115.090920, -88.380721) "></path>
                        <path d="M30.525,95.091 C30.525,95.091 23.693,80.1 10.939,90.328 C12.761,84.841 19.138,78.261 27.335,83.716 C31.666,90.309 31.835,92.292 30.525,95.091 Z" id="BoneHiLightA" fill-opacity="0.1" fill="#000000" fill-rule="nonzero" transform="translate(21.090920, 88.380721) rotate(-186.000000) translate(-21.090920, -88.380721) "></path>
                        <path d="M133.525,39.091 C133.525,39.091 126.693,24.1 113.939,34.328 C115.761,28.841 122.138,22.261 130.335,27.716 C134.666,34.309 134.835,36.292 133.525,39.091 Z" id="BoneHiLightA" fill-opacity="0.1" fill="#000000" fill-rule="nonzero" transform="translate(124.090920, 32.380721) rotate(-195.000000) translate(-124.090920, -32.380721) "></path>
                        <path d="M23.525,39.091 C23.525,39.091 16.693,24.1 3.939,34.328 C5.761,28.841 12.138,22.261 20.335,27.716 C24.666,34.309 24.835,36.292 23.525,39.091 Z" id="BoneHiLightA" fill-opacity="0.1" fill="#000000" fill-rule="nonzero" transform="translate(14.090920, 32.380721) rotate(-195.000000) translate(-14.090920, -32.380721) "></path>
                        <path d="M124.029,57.273 C118.945,57.273 114.558,60.32 112.605,64.681 L84.113,48.978 L112.96,33.084 C115.052,37.063 119.232,39.776 124.029,39.776 C130.917,39.776 136.519,34.176 136.519,27.274 C136.519,21.725 132.882,17.012 127.87,15.385 C128.048,14.565 128.129,13.731 128.129,12.87 C128.129,5.982 122.525,0.38 115.639,0.38 C108.753,0.38 103.135,5.983 103.135,12.87 C103.135,15.493 103.969,17.995 105.432,20.057 L68.547,40.393 L31.651,20.057 C33.113,17.995 33.946,15.494 33.946,12.87 C33.946,5.982 28.331,0.38 21.443,0.38 C14.554,0.38 8.951,5.983 8.951,12.87 C8.951,13.73 9.035,14.564 9.212,15.385 C4.197,17.012 0.563,21.725 0.563,27.274 C0.563,34.176 6.165,39.776 13.052,39.776 C17.85,39.776 22.031,37.059 24.121,33.084 L52.968,48.978 L24.476,64.681 C22.523,60.32 18.135,57.273 13.052,57.273 C6.164,57.273 0.563,62.877 0.563,69.763 C0.563,75.312 4.198,80.025 9.212,81.652 C9.049,82.472 8.951,83.318 8.951,84.168 C8.951,91.057 14.568,96.658 21.455,96.658 C28.344,96.658 33.946,91.054 33.946,84.168 C33.946,81.818 33.291,79.563 32.101,77.635 L68.546,57.563 L104.981,77.635 C103.793,79.563 103.134,81.819 103.134,84.168 C103.134,91.057 108.738,96.658 115.624,96.658 C122.512,96.658 128.128,91.054 128.128,84.168 C128.128,83.318 128.034,82.475 127.869,81.652 C132.884,80.025 136.517,75.312 136.517,69.763 C136.52,62.878 130.917,57.273 124.029,57.273 Z M21.428,26.924 C21.428,27.047 21.444,27.154 21.444,27.278 C21.444,31.924 17.686,35.682 13.052,35.682 C8.42,35.682 4.662,31.924 4.662,27.278 C4.662,22.647 8.42,18.889 13.052,18.889 C14.254,18.889 15.404,19.149 16.428,19.598 C14.391,18.069 13.052,15.635 13.052,12.875 C13.052,8.243 16.811,4.484 21.444,4.484 C26.089,4.484 29.848,8.243 29.848,12.875 C29.848,16.277 27.811,19.202 24.901,20.525 C24.86,20.663 24.805,20.798 24.751,20.951 L64.284,42.732 L57.22,46.64 L21.428,26.924 Z M64.297,55.225 L25.295,76.706 C28.002,78.1 29.848,80.915 29.848,84.168 C29.848,88.8 26.088,92.557 21.455,92.557 C16.81,92.557 13.052,88.8 13.052,84.168 C13.052,81.408 14.391,78.975 16.442,77.443 C15.404,77.908 14.27,78.154 13.052,78.154 C8.42,78.154 4.662,74.396 4.662,69.763 C4.662,65.129 8.42,61.371 13.052,61.371 C17.698,61.371 21.455,65.129 21.455,69.763 C21.455,70.212 21.401,70.652 21.333,71.087 L57.219,51.316 L61.454,48.978 L68.547,45.083 L72.799,42.729 L112.332,20.949 C112.277,20.799 112.223,20.661 112.182,20.522 C109.272,19.2 107.235,16.274 107.235,12.873 C107.235,8.241 110.995,4.481 115.639,4.481 C120.272,4.481 124.03,8.241 124.03,12.873 C124.03,15.633 122.692,18.065 120.655,19.597 C121.68,19.148 122.83,18.888 124.03,18.888 C128.665,18.888 132.423,22.646 132.423,27.277 C132.423,31.923 128.665,35.681 124.03,35.681 C119.397,35.681 115.639,31.922 115.639,27.277 C115.639,27.154 115.653,27.047 115.653,26.923 L79.865,46.643 L75.63,48.981 L68.55,52.875 L64.297,55.225 Z M124.029,78.154 C122.812,78.154 121.676,77.908 120.64,77.443 C122.689,78.974 124.029,81.408 124.029,84.168 C124.029,88.8 120.269,92.557 115.625,92.557 C110.992,92.557 107.232,88.8 107.232,84.168 C107.232,80.915 109.08,78.1 111.785,76.706 L72.783,55.225 L79.861,51.319 L115.749,71.09 C115.682,70.652 115.625,70.215 115.625,69.766 C115.625,65.132 119.384,61.374 124.029,61.374 C128.662,61.374 132.42,65.132 132.42,69.766 C132.42,74.396 128.662,78.154 124.029,78.154 Z" fill="#000000" fill-rule="nonzero"></path>
                    </g>
                    <g id="Head" transform="translate(31.000000, 43.000000)">
                        <path d="M56.172,4.88 C31.783,4.88 11.336,23.498 5.781,48.581 C16.092,30.871 45.222,-5.898 96.641,26.372 C87.131,13.272 72.543,4.88 56.172,4.88 Z" id="HeadShadow" fill-opacity="0.2" fill="#000000" fill-rule="nonzero"></path>
                        <path d="M6.227,81.787 C6.227,81.787 40.456,38.839 93.049,19.069" id="EyePatchStrap" stroke="#000000" stroke-width="4.0996"></path>
                        <path d="M45.13,45.762 L45.13,62.898 C45.13,69.375 39.883,74.623 33.406,74.623 C30.167,74.623 27.244,73.311 25.11,71.192 C23.498,69.567 22.349,67.477 21.9,65.139 C27.898,59.401 35.701,52.595 45.13,45.762 Z" id="EyePatch" stroke="#000000" stroke-width="4.0996" fill="#000000" fill-rule="nonzero"></path>
                        <path d="M77.568,72.572 C72.232,72.572 67.892,68.233 67.892,62.899 L67.892,53.59 L87.242,53.308 L87.242,62.899 C87.242,68.233 82.902,72.572 77.568,72.572 Z" id="EyeShadow" fill="#54C7E2" fill-rule="nonzero"></path>
                        <path d="M77.568,69.796 C74.324,69.796 71.685,67.158 71.685,63.915 L71.685,57.255 L83.449,57.084 L83.449,63.915 C83.449,67.158 80.811,69.796 77.568,69.796 Z" id="EyeHilight" fill="#79D9FF" fill-rule="nonzero"></path>
                        <circle id="EyeBall" fill="#FFFFFF" filter="url(#filter-3)" cx="78" cy="63" r="2"></circle>
                        <path d="M85.191,55.388 L85.191,62.899 C85.191,67.102 81.771,70.522 77.568,70.522 C73.363,70.522 69.943,67.102 69.943,62.899 L69.943,55.61 L85.191,55.388 L85.191,55.388 Z M89.292,51.229 L65.844,51.571 L65.844,62.9 C65.844,69.376 71.094,74.623 77.569,74.623 C84.045,74.623 89.295,69.376 89.295,62.9 L89.292,51.229 L89.292,51.229 Z" id="RightEye" fill="#000000" fill-rule="nonzero"></path>
                        <rect id="LeftTooth" fill="#000000" fill-rule="nonzero" x="46.906" y="105.848" width="6.662" height="12.471"></rect>
                        <rect id="RightTooth" fill="#000000" fill-rule="nonzero" x="60.005" y="105.848" width="6.662" height="12.471"></rect>
                        <path d="M39.828,117.328 L33.746,117.328 C33.746,117.328 33.746,117.328 33.746,112.531 C33.746,107.732 35.4,109.306 35.4,105.89 C35.4,102.472 34.527,99.972 27.064,97.92 C18.251,95.515 11.376,89.502 7.577,80.388 C11.814,83.49 17.213,86.743 21.9,87.453 C38.652,90.039 46.961,99.795 39.828,117.328 Z" id="LeftShadow" fill-opacity="0.1" fill="#000000" fill-rule="nonzero"></path>
                        <path d="M104.973,79.912 C101.214,89.287 94.244,95.477 85.28,97.923 C77.821,99.972 76.946,102.938 76.946,105.891 C76.946,108.842 78.587,107.735 78.587,112.534 L78.587,117.331 L72.082,117.331 C64.946,99.798 73.257,90.041 90.011,87.458 C94.941,86.704 100.641,83.151 104.973,79.912 Z" id="RightShadow" fill-opacity="0.1" fill="#000000" fill-rule="nonzero"></path>
                        <path d="M49.637,91.199 C49.637,87.071 52.984,83.723 57.113,83.723 C61.242,83.723 64.59,87.071 64.59,91.199 L49.637,91.199 Z" id="Nose" fill="#000000" fill-rule="nonzero"></path>
                        <path d="M56.172,4.875 C84.829,4.875 108.061,30.581 108.061,62.27 C108.061,81.647 99.028,94.165 85.28,97.923 C77.821,99.972 76.946,102.938 76.946,105.891 C76.946,108.842 78.587,107.735 78.587,112.534 L78.587,117.331 L33.749,117.331 C33.749,117.331 33.749,117.331 33.749,112.534 C33.749,107.735 35.403,109.307 35.403,105.891 C35.403,102.474 34.53,99.974 27.067,97.923 C13.319,94.165 4.286,81.647 4.286,62.27 C4.283,30.581 27.516,4.875 56.172,4.875 L56.172,4.875 Z M56.172,0.775 C25.3,0.775 0.184,28.361 0.184,62.269 C0.184,82.654 9.829,97.46 25.984,101.877 C29.44,102.826 30.581,103.678 30.954,104.101 C31.1,104.268 31.302,104.497 31.302,105.891 C31.302,106.045 31.297,106.155 31.291,106.229 C31.284,106.239 31.278,106.25 31.271,106.257 C30.269,107.756 29.648,109.328 29.648,112.531 L29.648,116.728 L29.648,117.25 L29.648,117.313 L29.648,121.415 L33.748,121.425 L78.586,121.425 L82.686,121.425 L82.686,117.324 L82.686,117.25 L82.686,116.728 L82.686,112.531 C82.686,108.976 81.909,107.416 81.108,106.122 C81.088,106.091 81.069,106.06 81.05,106.029 C81.048,105.994 81.047,105.948 81.047,105.89 C81.047,104.633 81.047,103.335 86.367,101.873 C102.517,97.458 112.162,82.651 112.162,62.267 C112.16,28.361 87.044,0.775 56.172,0.775 L56.172,0.775 Z" id="HeadOutline" fill="#000000" fill-rule="nonzero"></path>
                    </g>
                    <g id="Hat" fill-rule="nonzero">
                        <path d="M3.683,92.759 C20.232,75.871 77.5457746,16.4786038 77.5457746,16.4786038 C83.3001539,10.5180133 92.6287122,10.5103158 98.3921285,16.4714423 C98.3921285,16.4714423 159.911,80.118 174.535,95.099 C174.437,91.242 172.978,87.34 170.107,84.198 L101.877,8.969 C98.447,5.211 93.759,3.34 89.167,3.462 C84.246,3.339 79.56,5.211 76.13,8.969 L7.9,84.198 C5.608,86.704 4.205,89.694 3.683,92.759 Z" id="HarHiLight" fill-opacity="0.15" fill="#F2F2F2"></path>
                        <path d="M174.234,98.646 C173.622,101.708 172.105,104.576 169.657,106.817 L163.318,112.612 C157.14,118.255 147.437,117.737 141.301,111.56 C141.998,108.456 141.669,104.276 141.068,100.531 C153.438,110.439 166.952,103.796 174.234,98.646 Z" id="Shape" fill-opacity="0.2" fill="#000000"></path>
                        <rect id="Rectangle-path" fill="#000000" transform="translate(87.821359, 29.671255) rotate(-44.991897) translate(-87.821359, -29.671255) " x="84.4828909" y="18.6248609" width="6.67693603" height="22.0927883"></rect>
                        <rect id="Rectangle-path" fill="#000000" transform="translate(87.814016, 29.659210) rotate(44.991897) translate(-87.814016, -29.659210) " x="84.4755478" y="18.6133161" width="6.67693603" height="22.0917884"></rect>
                        <path d="M172.637,81.892 L104.407,6.678 C100.566,2.454 95.168,0.036 89.593,0.036 L89.305,0.049 C89.129,0.036 88.881,0.036 88.758,0.049 L88.417,0.036 C82.84,0.036 77.443,2.454 73.604,6.663 L5.372,81.905 C1.833,85.773 -0.066,90.747 0.029,95.899 C0.138,101.118 2.271,105.888 6.041,109.332 L12.382,115.125 C15.785,118.241 20.24,119.949 24.928,119.949 C28.412,119.949 31.869,118.978 34.903,117.216 L33.689,113.171 C31.077,114.892 28.03,115.85 24.928,115.85 C21.266,115.85 17.793,114.524 15.157,112.104 L8.816,106.31 C5.879,103.632 4.212,99.903 4.128,95.816 C4.047,91.729 5.565,87.753 8.406,84.651 L76.637,9.424 C79.699,6.076 84.001,4.135 88.416,4.135 L88.813,4.148 L89.016,4.135 L89.18,4.148 L89.591,4.135 C94.004,4.135 98.295,6.076 101.37,9.424 L169.601,84.651 C172.429,87.754 173.948,91.729 173.865,95.816 C173.784,99.903 172.13,103.632 169.189,106.31 L162.851,112.104 C160.211,114.523 156.741,115.85 153.08,115.85 C148.652,115.85 144.35,113.909 141.23,110.507 C140.902,112.159 140.494,113.774 140.111,115.098 C143.746,118.214 148.366,119.949 153.08,119.949 C157.768,119.949 162.223,118.241 165.625,115.125 L171.966,109.332 C175.725,105.888 177.868,101.118 177.965,95.899 C178.076,90.747 176.178,85.773 172.637,81.892 Z" id="Shape" fill="#000000"></path>
                    </g>
                </g>
            </g>
            <g id="alert" transform="translate(81.190852, 267.302537)" fill-rule="nonzero">
                <path d="M20.7642812,60.5552863 C20.3601738,59.4293721 15.9314386,58.5744291 10.7031032,58.5757343 C10.4493613,58.5757343 10.1943142,58.5770396 9.93717869,58.5812164 C4.38148498,58.6712791 0.220588346,59.7011265 0.644535653,60.8808173 L4.34023887,71.1722426 C4.57283558,71.8293087 7.0324609,72.3694238 10.218853,72.4208509 C10.3820101,72.4234614 10.5422956,72.4234614 10.7031032,72.4234614 C14.0108842,72.4242446 16.8130088,71.8843905 17.0691001,71.1722426 L20.7642812,60.8808173 C20.7979569,60.7779631 20.8026558,60.6610121 20.7642812,60.5552863 Z" id="Shape" fill-opacity="0.1" fill="#000000" filter="url(#filter-4)"></path>
                <ellipse id="Oval" fill-opacity="0.1" fill="#000000" filter="url(#filter-5)" cx="10.7031032" cy="75.8390566" rx="6.65289232" ry="2.22206864"></ellipse>
                <path d="M9.93717869,0.271232298 C4.38148498,0.540898288 0.220588346,3.62391411 0.644535653,7.15698237 L4.34023887,37.9699112 C4.57283558,39.9361496 7.0324609,41.5538845 10.218853,41.7081658 C10.3820101,41.7159973 10.5422956,41.7159973 10.7031032,41.7162584 L10.7031032,0.254525015 C10.4493613,0.254525015 10.1943142,0.258701836 9.93717869,0.271232298 Z" id="Shape" fill="#EB91AC"></path>
                <path d="M17.0691001,37.9699112 L20.7642812,7.15698237 C20.7979569,6.84841974 20.8026558,6.498611 20.7642812,6.18091157 C20.3601738,2.81126142 15.9314386,0.250609246 10.7031032,0.254525015 L10.7031032,41.7165194 C14.0108842,41.7191299 16.8130088,40.1016561 17.0691001,37.9699112 Z M10.7046695,37.9699112 L10.7046695,7.15698237 L10.7046695,37.9699112 Z" id="Shape" fill="#E25D85"></path>
                <path d="M17.3559955,51.9424209 C17.3559955,48.2681238 14.3771392,45.2897896 10.7031032,45.2897896 L10.7031032,58.5955742 C14.3771392,58.5953132 17.3559955,55.6167179 17.3559955,51.9424209 Z" id="Shape" fill="#E25D85"></path>
                <path d="M4.05021088,51.9424209 C4.05021088,55.6167179 7.02880618,58.5953132 10.7031032,58.5953132 L10.7031032,45.2895285 C7.02880618,45.2895285 4.05021088,48.2678628 4.05021088,51.9424209 Z" id="Shape" fill="#EB91AC"></path>
            </g>
        </g>
    </g>
</svg>