<?xml version="1.0" encoding="UTF-8"?>
<svg width="15px" height="21px" viewBox="0 0 15 21" version="1.1" xmlns="http://www.w3.org/2000/svg" xmlns:xlink="http://www.w3.org/1999/xlink">
    <!-- Generator: Sketch 43.1 (39012) - http://www.bohemiancoding.com/sketch -->
    <title>Group</title>
    <desc>Created with Sketch.</desc>
    <defs></defs>
    <g id="Symbols" stroke="none" stroke-width="1" fill="none" fill-rule="evenodd">
        <g id="iPhone-SE" transform="translate(-74.000000, -368.000000)" fill-rule="nonzero" fill="#EB91AC">
            <g id="Group" transform="translate(74.000000, 368.792428)">
                <path d="M7.39033967,5.68434189e-14 C4.44734218,5.68434189e-14 2.05287213,2.39447005 2.05287213,5.33746754 L2.05287213,8.62206295 C2.05287213,8.84870003 2.23680947,9.03263737 2.46344656,9.03263737 L4.10574426,9.03263737 C4.33238134,9.03263737 4.51631869,8.84870003 4.51631869,8.62206295 L4.51631869,5.33746754 C4.51631869,3.75265025 5.80552238,2.46344656 7.39033967,2.46344656 C8.97515695,2.46344656 10.2643607,3.75265025 10.2643607,5.33746754 L10.2643607,5.97976524 C10.2643607,6.20640233 10.448298,6.39033967 10.6749351,6.39033967 L12.3172328,6.39033967 C12.5438699,6.39033967 12.7278072,6.20640233 12.7278072,5.97976524 L12.7278072,5.33746754 C12.7278072,2.39447005 10.3333372,5.68434189e-14 7.39033967,5.68434189e-14 Z" id="Shape"></path>
                <path d="M12.3172328,8.21148852 L2.46344656,8.21148852 C1.33108229,8.21148852 0.410574426,9.13281753 0.410574426,10.2643607 L0.410574426,17.6547003 C0.410574426,18.7862434 1.33108229,19.7075724 2.46344656,19.7075724 L12.3172328,19.7075724 C13.449597,19.7075724 14.3701049,18.7862434 14.3701049,17.6547003 L14.3701049,10.2643607 C14.3701049,9.13281753 13.449597,8.21148852 12.3172328,8.21148852 Z M8.30099375,14.5589691 L8.6179572,16.7752499 C8.63520133,16.8934953 8.59989193,17.0125619 8.52188279,17.1020671 C8.44387365,17.1915724 8.3305551,17.2441259 8.21148852,17.2441259 L6.56919082,17.2441259 C6.45012423,17.2441259 6.33680569,17.1923935 6.25879655,17.1028883 C6.18078741,17.0133831 6.14547801,16.8934953 6.16272213,16.776071 L6.47968559,14.5597903 C5.79320515,14.2165501 5.33746754,13.5078986 5.33746754,12.7278072 C5.33746754,11.5962641 6.2579754,10.6749351 7.39033967,10.6749351 C8.52270394,10.6749351 9.4432118,11.5962641 9.4432118,12.7278072 C9.4432118,13.5078986 8.98747419,14.2165501 8.30099375,14.5589691 Z" id="Shape"></path>
            </g>
        </g>
    </g>
</svg>