<?xml version="1.0" encoding="utf-8"?>
<!-- Generator: Adobe Illustrator 15.1.0, SVG Export Plug-In . SVG Version: 6.00 Build 0)  -->
<!DOCTYPE svg PUBLIC "-//W3C//DTD SVG 1.1//EN" "http://www.w3.org/Graphics/SVG/1.1/DTD/svg11.dtd">
<svg version="1.1" id="Layer_1" xmlns="http://www.w3.org/2000/svg" xmlns:xlink="http://www.w3.org/1999/xlink" x="0px" y="0px"
	 width="300px" height="300px" viewBox="0 0 300 300" enable-background="new 0 0 300 300" xml:space="preserve">
<path fill="#EB91AC" d="M298.219,47.53c-2.092-3.209-5.922-4.824-9.684-4.093L7.859,98.223c-3.54,0.692-6.375,3.346-7.295,6.833
	c-0.923,3.487,0.229,7.195,2.968,9.545l35.904,30.83c-0.069,0.499-0.139,1.003-0.206,1.524l-12.4,93.042
	c-2.107,15.824,6.965,21.436,20.167,12.461l58.657-39.843c2.499-1.556,4.773-3.028,6.856-4.437l43.021,36.94
	c1.716,1.474,3.894,2.271,6.134,2.271c0.396,0,0.794-0.024,1.193-0.075c2.639-0.339,5.017-1.779,6.537-3.969L298.068,58.044
	C300.254,54.896,300.313,50.739,298.219,47.53z M159.88,224.042l-59.074-50.725c0.907-0.38,1.772-0.837,2.568-1.385l89.374-61.687
	c5.68-3.919,4.828-5.841-1.893-4.267L58.469,136.963l-27.934-23.986l238.844-46.622L159.88,224.042z"/>
</svg>
