<?xml version="1.0" encoding="utf-8"?>
<!-- Generator: Adobe Illustrator 15.1.0, SVG Export Plug-In . SVG Version: 6.00 Build 0)  -->
<!DOCTYPE svg PUBLIC "-//W3C//DTD SVG 1.1//EN" "http://www.w3.org/Graphics/SVG/1.1/DTD/svg11.dtd">
<svg version="1.1" id="Layer_1" xmlns="http://www.w3.org/2000/svg" xmlns:xlink="http://www.w3.org/1999/xlink" x="0px" y="0px"
	 width="300px" height="300px" viewBox="0 0 300 300" enable-background="new 0 0 300 300" xml:space="preserve">
<g>
	<path fill="#EB91AC" d="M197.369,150.001c0,26.167-21.213,47.378-47.381,47.378c-26.169,0-47.38-21.211-47.38-47.378
		c0-7.143,1.578-13.948,4.446-20.022c2.964,11.519,13.412,20.022,25.852,20.022c14.724,0,26.68-11.955,26.68-26.68
		c0-8.358-3.838-15.818-9.842-20.702h0.244C176.156,102.619,197.369,123.832,197.369,150.001z"/>
	<path fill="#EB91AC" d="M149.988,39.033c-72.893,0-149.82,86.669-149.82,110.968c0,24.296,82.612,110.966,149.82,110.966
		c67.232,0,149.844-81.008,149.844-110.966C299.832,120.041,222.882,39.033,149.988,39.033z M149.988,229.295
		c-43.778,0-79.269-35.516-79.269-79.294c0-43.779,35.491-79.292,79.269-79.292c43.803,0,79.293,35.513,79.293,79.292
		C229.281,193.779,193.791,229.295,149.988,229.295z"/>
</g>
</svg>
