<?xml version="1.0" encoding="UTF-8"?>
<svg width="27px" height="20px" viewBox="0 0 27 20" version="1.1" xmlns="http://www.w3.org/2000/svg" xmlns:xlink="http://www.w3.org/1999/xlink">
    <!-- Generator: Sketch 43.1 (39012) - http://www.bohemiancoding.com/sketch -->
    <title>mini-send</title>
    <desc>Created with Sketch.</desc>
    <defs></defs>
    <g id="Symbols" stroke="none" stroke-width="1" fill="none" fill-rule="evenodd">
        <g id="iPhone-SE" transform="translate(-115.000000, -369.000000)" fill-rule="nonzero" fill="#EB91AC">
            <g id="mini-send" transform="translate(115.931616, 369.879726)">
                <path d="M25.3713959,0.385396045 C25.193416,0.112385911 24.8675735,-0.0250124586 24.5475161,0.0371783823 L0.668615347,4.69817347 C0.367444927,4.75704633 0.126253362,4.98283907 0.0479830838,5.27950044 C-0.0305424239,5.57616181 0.067465577,5.89162506 0.300489808,6.09155458 L3.3550725,8.71445967 C3.34920223,8.75691279 3.34324689,8.79979129 3.33754677,8.84411609 L2.28259954,16.7597935 C2.10334358,18.1060423 2.87515659,18.583491 3.99833509,17.8199304 L8.98866088,14.4302318 C9.20126677,14.297853 9.39473048,14.1726205 9.5719446,14.0527479 L13.232016,17.1954697 C13.378007,17.3208723 13.5633034,17.3886782 13.7538745,17.3886782 C13.7875648,17.3886782 13.8214252,17.3866364 13.8553707,17.3822975 C14.0798873,17.3534566 14.2821989,17.2309466 14.411515,17.0446293 L25.3585493,1.27988921 C25.5445263,1.01206873 25.5495458,0.65840618 25.3713959,0.385396045 Z M13.6020132,15.4023997 L8.57621054,11.0868999 C8.65337482,11.0545708 8.7269659,11.0156909 8.79468671,10.9690691 L16.398304,5.72096182 C16.8815379,5.38754745 16.8090528,5.22403063 16.2372544,5.35794087 L4.97433143,7.9940328 L2.59780756,5.95339052 L22.9177928,1.98695908 L13.6020132,15.4023997 Z" id="Shape"></path>
            </g>
        </g>
    </g>
</svg>