<?xml version="1.0" encoding="UTF-8"?>
<svg width="28px" height="21px" viewBox="0 0 28 21" version="1.1" xmlns="http://www.w3.org/2000/svg" xmlns:xlink="http://www.w3.org/1999/xlink">
    <!-- Generator: Sketch 43.1 (39012) - http://www.bohemiancoding.com/sketch -->
    <title>mini-eye</title>
    <desc>Created with Sketch.</desc>
    <defs></defs>
    <g id="Symbols" stroke="none" stroke-width="1" fill="none" fill-rule="evenodd">
        <g id="iPhone-SE" transform="translate(-86.000000, -402.000000)">
            <g id="mini-eye" transform="translate(86.000000, 402.000000)">
                <g transform="translate(0.619047, 0.466191)" id="Shape">
                    <path d="M17.4217763,9.79806653 C17.4217763,12.1078296 15.5493032,13.9801261 13.2394519,13.9801261 C10.9295123,13.9801261 9.05721579,12.1078296 9.05721579,9.79806653 C9.05721579,9.16755338 9.19650597,8.56687553 9.44966454,8.0307231 C9.71129704,9.04750608 10.6335428,9.79806653 11.7316225,9.79806653 C13.0313111,9.79806653 14.0866681,8.74279779 14.0866681,7.44302094 C14.0866681,6.70525966 13.7478875,6.0467649 13.217914,5.61565386 L13.2394519,5.61565386 C15.5493032,5.61565386 17.4217763,7.48812695 17.4217763,9.79806653 Z" fill="#E25D85" fill-rule="nonzero"></path>
                    <path d="M13.2394519,0.00291291245 C6.80518138,0.00291291245 0.0148293725,7.65319199 0.0148293725,9.79806653 C0.0148293725,11.9426763 7.30699676,19.5930436 13.2394519,19.5930436 C19.1740256,19.5930436 26.4661929,12.4424614 26.4661929,9.79806653 C26.4661929,7.1534951 19.6738107,0.00291291245 13.2394519,0.00291291245 Z M13.2394519,16.7973538 C9.3751646,16.7973538 6.24237139,13.6623538 6.24237139,9.79806653 C6.24237139,5.93369094 9.3751646,2.79895579 13.2394519,2.79895579 C17.105946,2.79895579 20.2386509,5.93369094 20.2386509,9.79806653 C20.2386509,13.6623538 17.105946,16.7973538 13.2394519,16.7973538 Z" fill="#EB91AC" fill-rule="nonzero"></path>
                </g>
            </g>
        </g>
    </g>
</svg>