<?xml version="1.0" encoding="UTF-8"?>
<svg width="24px" height="20px" viewBox="0 0 24 20" version="1.1" xmlns="http://www.w3.org/2000/svg" xmlns:xlink="http://www.w3.org/1999/xlink">
    <!-- Generator: Sketch 43.1 (39012) - http://www.bohemiancoding.com/sketch -->
    <title>noun_15036</title>
    <desc>Created with Sketch.</desc>
    <defs></defs>
    <g id="Symbols" stroke="none" stroke-width="1" fill="none" fill-rule="evenodd">
        <g id="iPhone-SE" transform="translate(-150.000000, -368.000000)" fill-rule="nonzero">
            <g id="noun_15036" transform="translate(150.500000, 368.792428)">
                <path d="M5.28358432,12.9205556 C5.28358432,13.5181765 4.85697074,14.0045069 4.32856707,14.0045069 L2.95553184,14.0045069 L1.25767312,14.0045069 C0.728817052,14.0045069 0.294512663,13.5181765 0.294512663,12.9205556 C0.294512663,12.3247442 0.728817052,11.846557 1.25767312,11.846557 L2.95553184,11.846557 L4.32856707,11.846557 C4.85651834,11.846557 5.28358432,12.3242918 5.28358432,12.9205556 Z" id="Shape" fill="#E25D85"></path>
                <path d="M23.1099699,15.0961491 L23.1099699,17.0663529 C23.1099699,18.1833295 22.1626434,19.0876779 21.0117368,19.0876779 L5.05376492,19.0876779 C3.89335788,19.0876779 2.95507944,18.1833295 2.95507944,17.0663529 L2.95507944,15.3427073 L4.32811467,15.3427073 C5.12162498,15.3427073 5.8205836,14.9160937 6.23860158,14.276852 C6.4860646,13.8850732 6.62268952,13.4154816 6.62268952,12.9201032 C6.62268952,11.5904984 5.59890741,10.4979514 4.32856707,10.4979514 L2.95553184,10.4979514 L2.95553184,8.55398685 L4.32856707,8.55398685 C5.59935981,8.55398685 6.62268952,7.46234467 6.62268952,6.13183508 C6.62268952,4.80087309 5.59890741,3.70923092 4.32856707,3.70923092 L2.95553184,3.70923092 L2.95553184,2.1222103 C2.95553184,1.0052337 3.89335788,0.0931944833 5.05421732,0.0931944833 L21.0121892,0.0931944833 C22.1630958,0.0931944833 23.1104223,1.0056861 23.1104223,2.1222103 L23.1104223,15.0961491 L23.1099699,15.0961491 Z M21.5410453,13.6376102 L21.5410453,3.93135952 C21.5410453,2.77140488 21.4464936,1.82407843 20.329517,1.82407843 L14.6147951,1.82407843 L10.7250564,1.82407843 C9.616223,1.82407843 8.71277939,2.77140488 8.71277939,3.93135952 L8.71277939,13.0404417 C8.721375,13.0404417 8.7290658,13.0322985 8.74670942,13.0322985 C11.3737986,12.3156962 12.6866645,12.0071591 12.9852488,11.1548368 L13.1223261,11.1548368 C13.0798005,11.1218115 13.0454181,11.0955723 13.011488,11.0525943 C11.8936066,10.0464558 11.0412843,8.08394283 11.0412843,6.49873181 C11.0412843,4.2543734 12.8748631,2.77954809 14.6147951,2.77954809 C16.345679,2.77954809 18.094659,4.37425951 18.094659,6.61726072 C18.094659,8.20428134 17.1477849,10.0971246 15.9878303,11.0774763 C16.2181021,11.9908727 17.5318729,12.2890046 20.2440133,13.0318461 C20.8235382,13.1938054 21.2415562,13.3905996 21.5410453,13.6376102 Z M13.7869023,11.1548368 L13.9235272,11.1548368 C13.8895972,11.1218115 13.8470716,11.0955723 13.8131416,11.0525943 C13.8040935,11.0874291 13.7959503,11.1218115 13.7869023,11.1548368 Z" id="Shape" fill="#EB91AC"></path>
                <path d="M13.977294,11.1954114 L13.7864499,11.1954114 C13.7997205,11.1492802 13.8104634,11.1012532 13.8231021,11.0525943 C13.8704971,11.112628 13.9298989,11.1492802 13.977294,11.1954114 Z" id="Shape" fill="#000000"></path>
                <path d="M4.32811467,5.04878851 C4.85651834,5.04878851 5.28313192,5.53376175 5.28313192,6.13228748 C5.28313192,6.72855122 4.85651834,7.20673844 4.32811467,7.20673844 L2.95507944,7.20673844 L1.25722072,7.20673844 C0.728364651,7.20673844 0.294060263,6.72855122 0.294060263,6.13228748 C0.294060263,5.53421415 0.728364651,5.04878851 1.25722072,5.04878851 L2.95507944,5.04878851 L4.32811467,5.04878851 Z" id="Shape" fill="#E25D85"></path>
            </g>
        </g>
    </g>
</svg>