<?xml version="1.0" encoding="utf-8"?>
<!-- Generator: Adobe Illustrator 15.1.0, SVG Export Plug-In . SVG Version: 6.00 Build 0)  -->
<!DOCTYPE svg PUBLIC "-//W3C//DTD SVG 1.1//EN" "http://www.w3.org/Graphics/SVG/1.1/DTD/svg11.dtd">
<svg version="1.1" id="Layer_1" xmlns="http://www.w3.org/2000/svg" xmlns:xlink="http://www.w3.org/1999/xlink" x="0px" y="0px"
	 width="300px" height="300px" viewBox="0 0 300 300" enable-background="new 0 0 300 300" xml:space="preserve">
<path fill="#EB91AC" d="M204.902,150l83.239-83.238c15.156-15.156,15.156-39.742,0-54.905c-15.164-15.155-39.751-15.155-54.903,0
	l-83.24,83.237L66.761,11.857c-15.156-15.155-39.742-15.155-54.896,0C-3.3,27.02-3.3,51.606,11.865,66.762L95.103,150l-83.238,83.24
	c-15.165,15.152-15.165,39.739,0,54.903c15.154,15.156,39.74,15.156,54.896,0l83.238-83.239l83.24,83.239
	c15.152,15.156,39.739,15.156,54.903,0c15.156-15.164,15.156-39.751,0-54.903L204.902,150z"/>
</svg>
