<?xml version="1.0" encoding="UTF-8"?>
<svg width="36px" height="21px" viewBox="0 0 36 21" version="1.1" xmlns="http://www.w3.org/2000/svg" xmlns:xlink="http://www.w3.org/1999/xlink">
    <!-- Generator: Sketch 43.1 (39012) - http://www.bohemiancoding.com/sketch -->
    <title>Group 2</title>
    <desc>Created with Sketch.</desc>
    <defs></defs>
    <g id="Symbols" stroke="none" stroke-width="1" fill="none" fill-rule="evenodd">
        <g id="iPhone-SE" transform="translate(-99.000000, -411.000000)" fill-rule="nonzero">
            <g id="Group-2" transform="translate(99.000000, 411.466191)">
                <path d="M33.0783709,18.4341436 L29.1201914,18.4341436 L29.1201914,20.343313 L34.0328679,20.343313 C34.5601222,20.343313 34.9873648,19.9158948 34.9873648,19.388816 L34.9873648,14.4761395 L33.0783709,14.4761395 L33.0783709,18.4341436 Z M2.33637983,14.5986501 L0.500345894,14.5986501 L0.500345894,19.3231345 C0.500345894,19.830191 0.911221974,20.2410671 1.41827849,20.2410671 L6.14276283,20.2410671 L6.14276283,18.4050331 L2.33637983,18.4050331 L2.33637983,14.5986501 Z" id="Shape" fill="#EB91AC"></path>
                <g id="Group" transform="translate(3.857170, 3.311422)">
                    <rect id="Rectangle-path" fill="#E25D85" x="3.9315329" y="4.36106001" width="5.45381584" height="5.56971458"></rect>
                    <path d="M0.0430591549,13.9018858 L13.2727911,13.9018858 L13.2727911,0.391882582 L0.0430591549,0.391882582 L0.0430591549,13.9018858 Z M2.10100314,2.49185436 L11.2184569,2.49185436 L11.2184569,11.8016562 L2.10100314,11.8016562 L2.10100314,2.49185436 Z" id="Shape" fill="#EB91AC"></path>
                    <rect id="Rectangle-path" fill="#E25D85" x="25.9529387" y="11.0704241" width="2.33099575" height="2.83146174"></rect>
                    <polygon id="Shape" fill="#EB91AC" points="28.2839345 5.82043017 28.2839345 0.451443449 21.5780512 0.451443449 21.5780512 2.66344638 24.4340077 2.66344638 24.4340077 4.87196849 21.5780512 4.87196849 21.5780512 8.49435213 19.0686307 8.49435213 19.0686307 5.82043017 16.2684965 5.82043017 16.2684965 8.49435213 18.1340924 8.49435213 18.1340924 11.0704241 14.9841992 11.0704241 14.9841992 13.9018858 21.5780512 13.9018858 21.5780512 11.0704241 25.9529387 11.0704241 25.9529387 8.49435213 24.4340077 8.49435213 24.4340077 5.82043017"></polygon>
                    <rect id="Rectangle-path" fill="#E25D85" x="14.9841992" y="0.452732645" width="4.95940908" height="4.25808631"></rect>
                </g>
                <path d="M0.489113573,1.41685887 L0.489113573,1.41868317 L0.489113573,6.5246952 L2.47430857,6.5246952 L2.47430857,2.40927395 L6.5895474,2.40927395 L6.5895474,0.424261374 L1.48171107,0.424261374 C0.933511205,0.424261374 0.489113573,0.868659005 0.489113573,1.41685887 Z" id="Shape" fill="#EB91AC"></path>
                <path d="M34.4977015,0.461190518 L29.6064389,0.461190518 L29.6064389,2.36203801 L33.5473651,2.36203801 L33.5473651,6.30278957 L35.4482126,6.30278957 L35.4482126,1.41170161 C35.4482126,0.886745567 35.0226576,0.461190518 34.4977015,0.461190518 Z" id="Shape" fill="#EB91AC"></path>
            </g>
        </g>
    </g>
</svg>