<?xml version="1.0" encoding="utf-8"?>
<!-- Generator: Adobe Illustrator 15.1.0, SVG Export Plug-In . SVG Version: 6.00 Build 0)  -->
<!DOCTYPE svg PUBLIC "-//W3C//DTD SVG 1.1//EN" "http://www.w3.org/Graphics/SVG/1.1/DTD/svg11.dtd">
<svg version="1.1" id="Layer_1" xmlns="http://www.w3.org/2000/svg" xmlns:xlink="http://www.w3.org/1999/xlink" x="0px" y="0px"
	 width="300px" height="300px" viewBox="0 0 300 300" enable-background="new 0 0 300 300" xml:space="preserve">
<g>
	<path fill="#EB91AC" d="M250.024,37.329c5.11,0,9.263,4.152,9.263,9.264V178.6c0,5.112-4.152,9.265-9.263,9.265H121.49
		c-5.11,0-9.263-4.152-9.263-9.265V46.593c0-5.112,4.153-9.264,9.263-9.264H250.024 M250.024,0.274H121.49
		c-25.583,0-46.317,20.734-46.317,46.319V178.6c0,25.586,20.734,46.318,46.317,46.318h128.535c25.582,0,46.317-20.732,46.317-46.318
		V46.593C296.342,21.009,275.606,0.274,250.024,0.274L250.024,0.274z"/>
	<path fill="#EB91AC" d="M166.045,244.604v13.344c0,2.588-2.125,4.724-4.723,4.724H45.436c-2.596,0-4.722-2.136-4.722-4.724V138.904
		c0-2.596,2.126-4.723,4.722-4.723h10.377V97.127H45.436c-23.068,0-41.777,18.708-41.777,41.777v119.043
		c0,23.061,18.709,41.778,41.777,41.778h115.887c23.069,0,41.776-18.718,41.776-41.778v-13.344H166.045z"/>
</g>
</svg>
