<?xml version="1.0" encoding="utf-8"?>
<!-- Generator: Adobe Illustrator 15.1.0, SVG Export Plug-In . SVG Version: 6.00 Build 0)  -->
<!DOCTYPE svg PUBLIC "-//W3C//DTD SVG 1.1//EN" "http://www.w3.org/Graphics/SVG/1.1/DTD/svg11.dtd">
<svg version="1.1" id="Layer_1" xmlns="http://www.w3.org/2000/svg" xmlns:xlink="http://www.w3.org/1999/xlink" x="0px" y="0px"
	 width="300px" height="300px" viewBox="0 0 300 300" enable-background="new 0 0 300 300" xml:space="preserve">
<path fill="#EB91AC" d="M257.509,113.435h-24.231v-34.38c0-43.469-35.247-78.675-78.675-78.675h-9.205
	c-43.429,0-78.675,35.206-78.675,78.675v34.38H42.491c-8.693,0-15.735,7.042-15.735,15.736v154.714
	c0,8.693,7.042,15.735,15.735,15.735h215.018c8.694,0,15.735-7.042,15.735-15.735V129.17
	C273.244,120.476,266.203,113.435,257.509,113.435z M165.3,214.337l4.367,42.013h-39.335l4.366-42.013
	c-9.678-5.351-16.205-15.657-16.205-27.497c0-17.388,14.121-31.509,31.508-31.509c17.387,0,31.508,14.121,31.508,31.509
	C181.508,198.68,174.978,208.986,165.3,214.337z M193.938,113.435H106.06v-34.38c0-21.714,17.663-39.337,39.338-39.337h9.205
	c21.675,0,39.336,17.624,39.336,39.337V113.435z"/>
</svg>
