<?xml version="1.0" encoding="utf-8"?>
<!-- Generator: Adobe Illustrator 15.1.0, SVG Export Plug-In . SVG Version: 6.00 Build 0)  -->
<!DOCTYPE svg PUBLIC "-//W3C//DTD SVG 1.1//EN" "http://www.w3.org/Graphics/SVG/1.1/DTD/svg11.dtd">
<svg version="1.1" id="Layer_1" xmlns="http://www.w3.org/2000/svg" xmlns:xlink="http://www.w3.org/1999/xlink" x="0px" y="0px"
	 width="300px" height="300px" viewBox="0 0 300 300" enable-background="new 0 0 300 300" xml:space="preserve">
<g>
	<g>
		<path fill="#EB91AC" d="M71.479,65.346c0,12.535-10.162,22.698-22.696,22.698H23.018c-12.534,0-22.696-10.163-22.696-22.698l0,0
			c0-12.534,10.162-22.697,22.696-22.697h25.766C61.317,42.648,71.479,52.812,71.479,65.346L71.479,65.346z"/>
		<path fill="#EB91AC" d="M299.679,65.346c0,12.535-10.163,22.698-22.698,22.698H128.529c-12.535,0-22.697-10.163-22.697-22.698l0,0
			c0-12.534,10.162-22.697,22.697-22.697H276.98C289.516,42.648,299.679,52.812,299.679,65.346L299.679,65.346z"/>
	</g>
	<g>
		<path fill="#EB91AC" d="M71.479,150c0,12.535-10.162,22.697-22.696,22.697H23.018c-12.534,0-22.696-10.162-22.696-22.697l0,0
			c0-12.535,10.162-22.697,22.696-22.697h25.766C61.317,127.303,71.479,137.465,71.479,150L71.479,150z"/>
		<path fill="#EB91AC" d="M299.679,150c0,12.535-10.163,22.697-22.698,22.697H128.529c-12.535,0-22.697-10.162-22.697-22.697l0,0
			c0-12.535,10.162-22.697,22.697-22.697H276.98C289.516,127.303,299.679,137.465,299.679,150L299.679,150z"/>
	</g>
	<g>
		<path fill="#EB91AC" d="M71.479,234.655c0,12.533-10.162,22.696-22.696,22.696H23.018c-12.534,0-22.696-10.163-22.696-22.696l0,0
			c0-12.536,10.162-22.698,22.696-22.698h25.766C61.317,211.957,71.479,222.119,71.479,234.655L71.479,234.655z"/>
		<path fill="#EB91AC" d="M299.679,234.655c0,12.533-10.163,22.696-22.698,22.696H128.529c-12.535,0-22.697-10.163-22.697-22.696
			l0,0c0-12.536,10.162-22.698,22.697-22.698H276.98C289.516,211.957,299.679,222.119,299.679,234.655L299.679,234.655z"/>
	</g>
</g>
</svg>
