<?xml version="1.0" encoding="UTF-8" standalone="no"?>
<!-- Created with Inkscape (http://www.inkscape.org/) -->

<svg
   xmlns:dc="http://purl.org/dc/elements/1.1/"
   xmlns:cc="http://creativecommons.org/ns#"
   xmlns:rdf="http://www.w3.org/1999/02/22-rdf-syntax-ns#"
   xmlns:svg="http://www.w3.org/2000/svg"
   xmlns="http://www.w3.org/2000/svg"
   xmlns:xlink="http://www.w3.org/1999/xlink"
   xmlns:sodipodi="http://sodipodi.sourceforge.net/DTD/sodipodi-0.dtd"
   xmlns:inkscape="http://www.inkscape.org/namespaces/inkscape"
   width="99.999992"
   height="74.960266"
   viewBox="0 0 26.458332 19.833237"
   version="1.1"
   id="svg1310"
   inkscape:version="0.92.0 r15299"
   sodipodi:docname="send.svg">
  <defs
     id="defs1304">
    <filter
       style="color-interpolation-filters:sRGB"
       id="filter7126">
      <feGaussianBlur
         stdDeviation="12.956399"
         id="feGaussianBlur7128" />
    </filter>
    <linearGradient
       xlink:href="#linearGradient6632"
       id="linearGradient7160"
       gradientUnits="userSpaceOnUse"
       gradientTransform="matrix(0.02440875,0,0,0.02445874,-116.06774,0.32133275)"
       x1="1230.832"
       y1="1196.5488"
       x2="1230.832"
       y2="460.77939" />
    <linearGradient
       id="linearGradient6632">
      <stop
         style="stop-color:#d8d0cd;stop-opacity:1;"
         offset="0"
         id="stop6634" />
      <stop
         style="stop-color:#f3eae8;stop-opacity:1;"
         offset="1"
         id="stop6636" />
    </linearGradient>
    <linearGradient
       xlink:href="#linearGradient6632"
       id="linearGradient7160-9"
       gradientUnits="userSpaceOnUse"
       gradientTransform="matrix(0.02440875,0,0,0.02445874,-115.38762,-6.7277126)"
       x1="1230.832"
       y1="1196.5488"
       x2="1230.832"
       y2="460.77939" />
    <linearGradient
       xlink:href="#linearGradient6632"
       id="linearGradient7160-3"
       gradientUnits="userSpaceOnUse"
       gradientTransform="matrix(0.02440875,0,0,0.02445874,-114.14817,-8.341353)"
       x1="1230.832"
       y1="1196.5488"
       x2="1230.832"
       y2="460.77939" />
    <linearGradient
       xlink:href="#linearGradient6632"
       id="linearGradient7160-4"
       gradientUnits="userSpaceOnUse"
       gradientTransform="matrix(0.09225354,0,0,0.09244248,63.784932,-39.025241)"
       x1="1230.832"
       y1="1196.5488"
       x2="1230.832"
       y2="460.77939" />
    <linearGradient
       inkscape:collect="always"
       xlink:href="#linearGradient6632"
       id="linearGradient4573"
       gradientUnits="userSpaceOnUse"
       gradientTransform="matrix(0.03684813,0,0,0.0369236,-119.86695,-16.113636)"
       x1="1230.832"
       y1="1196.5488"
       x2="1230.832"
       y2="460.77939" />
    <linearGradient
       inkscape:collect="always"
       xlink:href="#linearGradient6632"
       id="linearGradient4573-9"
       gradientUnits="userSpaceOnUse"
       gradientTransform="matrix(0.02440875,0,0,0.02445874,-116.11045,11.840331)"
       x1="1230.832"
       y1="1196.5488"
       x2="1230.832"
       y2="460.77939" />
    <linearGradient
       inkscape:collect="always"
       xlink:href="#linearGradient6632"
       id="linearGradient4832"
       gradientUnits="userSpaceOnUse"
       gradientTransform="matrix(0.03890563,0,0,0.03898531,-117.75878,-26.189416)"
       x1="1230.832"
       y1="1196.5488"
       x2="1230.832"
       y2="460.77939" />
  </defs>
  <sodipodi:namedview
     id="base"
     pagecolor="#ffffff"
     bordercolor="#666666"
     borderopacity="1.0"
     inkscape:pageopacity="0.0"
     inkscape:pageshadow="2"
     inkscape:zoom="4"
     inkscape:cx="61.900301"
     inkscape:cy="58.385984"
     inkscape:document-units="mm"
     inkscape:current-layer="g4730"
     showgrid="false"
     fit-margin-top="0"
     fit-margin-left="0"
     fit-margin-right="0"
     fit-margin-bottom="0"
     inkscape:window-width="1366"
     inkscape:window-height="706"
     inkscape:window-x="-8"
     inkscape:window-y="-8"
     inkscape:window-maximized="1"
     inkscape:measure-start="205.578,60.0156"
     inkscape:measure-end="208.891,57.4375"
     showguides="false"
     units="px" />
  <metadata
     id="metadata1307">
    <rdf:RDF>
      <cc:Work
         rdf:about="">
        <dc:format>image/svg+xml</dc:format>
        <dc:type
           rdf:resource="http://purl.org/dc/dcmitype/StillImage" />
        <dc:title />
      </cc:Work>
    </rdf:RDF>
  </metadata>
  <g
     inkscape:label="Layer 1"
     inkscape:groupmode="layer"
     id="layer1"
     transform="translate(124.81477,-12.712632)">
    <g
       transform="translate(-40.595181,15.854303)"
       id="g4786-7-5">
      <g
         id="g4913"
         transform="translate(0.13274958,1.9432811)">
        <g
           id="g4901">
          <g
             id="g4730"
             transform="matrix(1.0007832,0,0,1.0007832,0.06606838,-0.01155149)">
            <path
               inkscape:connector-curvature="0"
               id="path9052-4-4-4-4-8-0-6-8"
               d="m -61.576172,-4.9355469 c -0.254409,-0.011437 -0.444658,0.033305 -0.644531,0.070312 l 0.0039,-0.017578 -0.205078,0.039063 c -0.19303,0.035694 -0.421616,0.080862 -0.701172,0.1367188 -0.565835,0.1130663 -1.344977,0.2708948 -2.265625,0.4628906 -1.838026,0.3833077 -4.240421,0.895784 -6.638672,1.4101562 -2.398435,0.5144119 -4.789592,1.0301528 -6.601562,1.4296875 -0.904687,0.1994808 -1.666583,0.3692727 -2.21875,0.49609378 -0.273013,0.0627072 -0.491062,0.11465188 -0.667969,0.15820312 -0.368681,0.0813882 -0.695939,0.21939391 -0.986328,0.3671875 l -0.0039,0.001953 -0.0078,0.003906 -0.0078,0.003906 -0.0039,0.001953 c -0.100424,0.0523173 -0.183703,0.12011218 -0.271483,0.1914063 v 0 c -1.895663,1.3942861 -1.880594,4.2573176 -0.124998,5.7011719 0.178619,0.1468811 0.340107,0.2534834 0.460937,0.3261718 h 0.002 v 0.00195 c 0.181468,0.1072555 0.36087,0.2152783 0.830078,0.4707031 0.453761,0.2465517 0.956548,0.4975311 1.523437,0.7910156 l 0.460938,0.2382813 -0.0059,0.9570312 v 0.00977 0.00195 0.00195 0.00195 c -3.4e-5,0.00743 4e-5,0.011359 0,0.017578 -1.54e-4,0.024344 7.2e-5,0.057624 0,0.1015624 -1.51e-4,0.091387 2.67e-4,0.2252446 0.002,0.390625 0.0032,0.3292791 0.01287,0.7806728 0.03516,1.2343748 l -0.002,-0.0039 v 0.002 0.0059 l 0.002,0.0039 c 0.02264,0.454062 0.05615,0.949858 0.138672,1.457031 0.04276,0.26213 0.104944,0.487157 0.162109,0.679688 l 0.0039,0.01953 0.01367,0.03711 c 0.278762,0.837143 0.802734,1.375 0.802734,1.375 h -0.002 l 0.04297,0.04492 0.05664,0.05469 0.002,0.002 c 0.105423,0.09493 0.452476,0.395436 0.910156,0.580078 0.639986,0.258255 1.475188,0.444039 2.476563,0.117187 l 0.05273,-0.01758 c 0.06763,-0.02663 0.127942,-0.05835 0.193361,-0.08983 9.22e-4,-4.77e-4 0.001,-0.0015 0.002,-0.002 1.438466,-0.745613 2.494855,-1.785346 3.382812,-2.617187 0.714672,0.331643 1.464313,0.699908 2.261719,0.875 l 0.0039,0.002 0.02734,0.0039 h 0.002 l 0.04883,0.0098 0.08203,0.01172 0.0039,0.002 c 0.07332,0.0084 0.361351,0.05169 0.724609,0.0293 0.348305,-0.02149 1.004849,-0.133995 1.523437,-0.72461 l 0.0039,-0.002 c 0.0104,-0.0119 0.02292,-0.01114 0.0332,-0.02344 v -0.002 c 2.061532,-2.1687472 5.796307,-7.9385522 7.5625,-10.5742184 l 0.0039,-0.00586 V 1.3125 l 0.06445,-0.089844 V 1.207031 c 0.202912,-0.30932974 0.403403,-0.57495204 0.601563,-0.96093745 0.234536,-0.45683439 0.380859,-1.03713258 0.380859,-1.62499995 0,-1.9683012 -1.579046,-3.5543178 -3.527344,-3.5566407 z m -5.076172,16.8222659 -0.0078,0.0098 0.0098,-0.0098 z m 5.070313,-16.558594 h 0.0039 0.002 c 1.805929,0.00115 3.263672,1.4651244 3.263672,3.2929688 0,0.54376065 -0.136645,1.08908979 -0.349609,1.5039062 -0.194382,0.37862578 -0.39455,0.63891725 -0.611329,0.9726562 l -0.02148,0.033203 v 0.00781 l -0.02539,0.037109 -0.0039,0.00977 -0.002,0.00195 c -2.41545,3.6117278 -4.895283,7.1257896 -7.529297,10.5292968 -0.002,0.0026 -0.0039,0.0052 -0.0059,0.0078 l -0.0098,0.0078 c -0.459534,0.542779 -1.038868,0.632207 -1.365234,0.652344 -0.332228,0.02048 -0.580114,-0.01824 -0.675781,-0.0293 h -0.0039 l -0.07031,-0.0098 -0.06836,-0.01367 h -0.002 c -0.78123,-0.17154 -1.543013,-0.544607 -2.283203,-0.886719 l -0.08203,-0.03711 -0.06445,0.06055 c -0.90119,0.842248 -1.965665,1.886779 -3.386719,2.625 -0.07813,0.04605 -0.132278,0.07074 -0.214844,0.0957 l -0.002,0.002 v -0.002 c -0.931925,0.303553 -1.685893,0.133647 -2.292968,-0.111328 -0.406112,-0.163837 -0.732854,-0.441828 -0.830079,-0.529297 l -0.002,-0.002 -0.04883,-0.04687 -0.03906,-0.04102 c 0,0 -0.484747,-0.500821 -0.742188,-1.28125 l -0.002,-0.0039 -0.0059,-0.01563 -0.0039,-0.01563 -0.002,-0.0078 c -0.05609,-0.188928 -0.114221,-0.400833 -0.154297,-0.646485 -0.0797,-0.489839 -0.11427,-0.973364 -0.136718,-1.421875 v -0.002 -0.002 -0.0059 -0.0039 c -0.02201,-0.4481606 -0.03001,-0.8952415 -0.0332,-1.2226557 -0.0017,-0.1644296 -0.0021,-0.2986227 -0.002,-0.3886719 7.4e-5,-0.045023 -1.33e-4,-0.078661 0,-0.099609 5.5e-5,-0.00862 -2.1e-5,-0.012872 0,-0.017578 v -0.00195 -0.00195 -0.00195 -0.00195 -0.00977 l 0.0059,-1.1171875 -0.605469,-0.3125 c -0.568681,-0.2944122 -1.069423,-0.5455567 -1.517578,-0.7890625 -0.466517,-0.25396 -0.639366,-0.3586953 -0.822266,-0.4667968 -0.110922,-0.066728 -0.262443,-0.1671601 -0.429687,-0.3046876 -1.657375,-1.3630739 -1.654547,-4.0915322 0.21289,-5.35351557 l 0.109375,-0.07226563 -0.0039,-0.005859 c 0.01392,-0.008862 0.02233,-0.0145562 0.03711,-0.0234375 l 0.0039,-0.001953 0.0078,-0.003906 0.0039,-0.001953 c 0.277837,-0.1414056 0.584249,-0.27073936 0.923828,-0.34570312 h 0.002 c 0.175354,-0.0431936 0.394276,-0.0953397 0.667969,-0.15820312 0.55076,-0.12649788 1.312515,-0.29670236 2.216796,-0.49609376 1.810928,-0.3993047 4.201373,-0.9153183 6.59961,-1.4296875 2.398059,-0.5143311 4.801679,-1.0251108 6.638672,-1.4082031 0.919882,-0.1918362 1.698581,-0.349973 2.263672,-0.4628906 0.27872,-0.05569 0.505447,-0.1015927 0.695312,-0.1367188 6.7e-4,-1.22e-4 0.0013,1.22e-4 0.002,0 0.274271,-0.050025 0.49131,-0.1022244 0.791016,-0.087891 z m -20.925781,4.59960938 -0.01563,0.01367187 0.01172,-0.01171875 z"
               style="color:#000000;font-style:normal;font-variant:normal;font-weight:normal;font-stretch:normal;font-size:medium;line-height:normal;font-family:sans-serif;font-variant-ligatures:normal;font-variant-position:normal;font-variant-caps:normal;font-variant-numeric:normal;font-variant-alternates:normal;font-feature-settings:normal;text-indent:0;text-align:start;text-decoration:none;text-decoration-line:none;text-decoration-style:solid;text-decoration-color:#000000;letter-spacing:normal;word-spacing:normal;text-transform:none;writing-mode:lr-tb;direction:ltr;text-orientation:mixed;dominant-baseline:auto;baseline-shift:baseline;text-anchor:start;white-space:normal;shape-padding:0;clip-rule:nonzero;display:inline;overflow:visible;visibility:visible;opacity:0.06000001;isolation:auto;mix-blend-mode:normal;color-interpolation:sRGB;color-interpolation-filters:linearRGB;solid-color:#000000;solid-opacity:1;vector-effect:none;fill:#ffffff;fill-opacity:1;fill-rule:nonzero;stroke:none;stroke-width:0.26458332;stroke-linecap:butt;stroke-linejoin:miter;stroke-miterlimit:4;stroke-dasharray:none;stroke-dashoffset:0;stroke-opacity:1;color-rendering:auto;image-rendering:auto;shape-rendering:auto;text-rendering:auto;enable-background:accumulate"
               sodipodi:nodetypes="ccccccssccccccccccccccccccccccccccccccccccccccccccccccccccccccccccccccscccccccccscccccccccccccccccccccccccccccccccccccccccccccccccccccccccccccccsscccccccccc" />
            <path
               sodipodi:nodetypes="cccsscccccccccccccccccccccccccccccccccccccccccccccccccccccsccccssccccccccccccccccccccccccccccccccccccccccccccccccccccccccccccsscccccc"
               inkscape:connector-curvature="0"
               id="path9052-4-4-4-4-8-0-6"
               d="m -62.39765,-4.7148672 c -0.191602,0.03543 -0.419703,0.08087 -0.699219,0.136719 -0.565463,0.112992 -1.343408,0.2709745 -2.263673,0.4628906 -1.837509,0.3832 -4.240517,0.8958047 -6.638672,1.4101564 -2.398336,0.5143905 -4.790112,1.0302677 -6.601561,1.4296875 -0.904484,0.199436 -1.665334,0.36943421 -2.216798,0.49609369 -0.274109,0.0629589 -0.493536,0.11475535 -0.669922,0.15820311 -0.35413,0.0781759 -0.670965,0.21086921 -0.955078,0.35546877 -0.06097,0.0383016 -0.116741,0.0738613 -0.165989,0.1054823 l -0.0098,0.00781 v 0 c -1.940609,1.31143123 -1.943058,4.15219733 -0.218756,5.57031423 0.172932,0.1422045 0.329436,0.2466985 0.445312,0.3164065 0.182184,0.1076787 0.358246,0.2140559 0.826108,0.4687483 0.450958,0.2450287 0.953699,0.4970676 1.521484,0.7910158 l 0.533203,0.2753905 -0.0059,1.0371095 v 0.00977 0.00196 0.00196 0.00196 c -2.8e-5,0.00607 4.7e-5,0.01016 0,0.017579 -1.44e-4,0.022646 7.3e-5,0.057082 0,0.1015624 -1.5e-4,0.090718 3.18e-4,0.2237669 0.002,0.3886719 0.0032,0.3283466 0.01105,0.7775837 0.0332,1.2285157 v 0.0039 0.002 0.002 c 0.02254,0.452053 0.0574,0.943853 0.138672,1.443359 0.04142,0.253891 0.101573,0.47138 0.158203,0.662109 l 0.0039,0.02149 0.0098,0.02539 c 0.267697,0.811521 0.773439,1.332031 0.773439,1.332031 l 0.04102,0.04297 0.05273,0.05078 c 0.100824,0.09079 0.438644,0.382176 0.871095,0.556641 0.623762,0.251707 1.419581,0.428958 2.386718,0.113281 l 0.08984,-0.0293 v -0.002 l 0.02734,-0.0098 0.109374,-0.05859 v 0.002 c 1.447419,-0.749623 2.522706,-1.810159 3.423829,-2.652344 0.738105,0.341148 1.507811,0.720223 2.310547,0.896485 l 0.01367,0.002 h 0.0039 l 0.05859,0.01172 0.07813,0.01172 c 0.08387,0.0096 0.354424,0.0508 0.703125,0.0293 0.342145,-0.02111 0.974653,-0.114347 1.466796,-0.703125 v -0.002 l 0.0078,-0.0078 -0.0039,0.002 c 2.641493,-3.4126603 5.127841,-6.9362978 7.548816,-10.5567093 l 0.002,-0.00391 0.04492,-0.064453 v -0.00977 c 0.213614,-0.32886737 0.417316,-0.59505589 0.617187,-0.98437492 0.22375,-0.43582537 0.365235,-0.9986391 0.365235,-1.56445308 0,-1.8984085 -1.518913,-3.4245847 -3.396485,-3.4257807 -0.318863,-0.01525 -0.551174,0.04049 -0.822241,0.08987 z m 0.820368,0.173561 h 0.002 c 1.734704,0.0011 3.132814,1.4045321 3.132814,3.1621099 0,0.52078308 -0.135918,1.0499471 -0.337892,1.44335923 -0.194937,0.37970778 -0.395325,0.64027685 -0.623046,0.99414067 l -0.02148,0.033203 v 0.00391 l -0.002,0.00196 c -2.419322,3.6180569 -4.901472,7.1373775 -7.539064,10.5449134 l -0.002,0.002 c -0.429632,0.510547 -0.961835,0.587954 -1.277343,0.607422 -0.319982,0.01973 -0.553243,-0.01749 -0.65625,-0.0293 h -0.0059 -0.002 l -0.05469,-0.0078 -0.06445,-0.01367 c -0.786248,-0.172641 -1.569395,-0.554251 -2.333984,-0.90625 l -0.08008,-0.03711 -0.06641,0.06055 c -0.915839,0.853875 -2.000752,1.920036 -3.433594,2.66211 v 0.002 l -0.08984,0.04687 -0.0957,0.0332 c -0.0021,6.87e-4 -0.0037,-6.88e-4 -0.0059,0 -0.896819,0.290867 -1.60816,0.133041 -2.199219,-0.105469 -0.380497,-0.15353 -0.70271,-0.428528 -0.792948,-0.509782 v 0.002 l -0.04297,-0.04102 -0.03711,-0.04102 h -0.002 c 0,0 -0.463642,-0.482743 -0.710938,-1.232422 l -0.002,-0.0039 -0.0059,-0.01562 -0.0039,-0.01367 v -0.0059 c -0.05544,-0.186807 -0.11356,-0.391296 -0.152323,-0.628915 -0.07833,-0.481407 -0.112417,-0.960213 -0.134766,-1.40625 v -0.0039 -0.002 -0.002 -0.0039 -0.0039 c -0.02188,-0.4454471 -0.03001,-0.8903948 -0.0332,-1.2167965 -0.0016,-0.1640371 -0.0021,-0.2974551 -0.002,-0.3867189 7.4e-5,-0.045509 -1.22e-4,-0.080534 0,-0.099609 6.8e-5,-0.010724 -7e-6,-0.018791 0,-0.019532 v -0.00196 -0.00196 -0.00196 -0.00781 l 0.0078,-1.1992186 -0.675781,-0.3515625 C -80.491109,6.462545 -80.99384,6.2122441 -81.438924,5.970407 c -0.415504,-0.2230006 -0.525181,-0.3000526 -0.816367,-0.4628566 -0.106576,-0.064113 -0.252853,-0.1623578 -0.414063,-0.2949223 -1.601478,-1.3171038 -1.599493,-3.970678 0.232422,-5.171875 l 0.0039,-0.003911 c 3.65e-4,-2.3575e-4 0.06084,-0.0380802 0.101562,-0.0625001 l 0.0039,-0.001958 0.0039,-0.001958 c 0.272967,-0.13892635 0.570133,-0.26243862 0.896485,-0.33398433 h 0.002 l 0.002,-0.001958 c 0.174747,-0.043044 0.393016,-0.093545 0.666016,-0.15624995 0.549608,-0.12623297 1.308539,-0.2947334 2.21289,-0.49414062 1.810408,-0.3991896 4.203424,-0.9153398 6.601563,-1.4296875 2.397968,-0.5142923 4.798305,-1.0271552 6.634744,-1.410132 0.9195,-0.1917568 1.698958,-0.3500483 2.263671,-0.4628906 0.279662,-0.055873 0.506919,-0.1018852 0.695314,-0.1367182 0.237025,-0.05087 0.492932,-0.07696 0.771737,-0.08594 z"
               style="color:#000000;font-style:normal;font-variant:normal;font-weight:normal;font-stretch:normal;font-size:medium;line-height:normal;font-family:sans-serif;font-variant-ligatures:normal;font-variant-position:normal;font-variant-caps:normal;font-variant-numeric:normal;font-variant-alternates:normal;font-feature-settings:normal;text-indent:0;text-align:start;text-decoration:none;text-decoration-line:none;text-decoration-style:solid;text-decoration-color:#000000;letter-spacing:normal;word-spacing:normal;text-transform:none;writing-mode:lr-tb;direction:ltr;text-orientation:mixed;dominant-baseline:auto;baseline-shift:baseline;text-anchor:start;white-space:normal;shape-padding:0;clip-rule:nonzero;display:inline;overflow:visible;visibility:visible;opacity:0.08999999;isolation:auto;mix-blend-mode:normal;color-interpolation:sRGB;color-interpolation-filters:linearRGB;solid-color:#000000;solid-opacity:1;vector-effect:none;fill:#ffffff;fill-opacity:1;fill-rule:nonzero;stroke:none;stroke-width:0.26458332;stroke-linecap:butt;stroke-linejoin:miter;stroke-miterlimit:4;stroke-dasharray:none;stroke-dashoffset:0;stroke-opacity:1;color-rendering:auto;image-rendering:auto;shape-rendering:auto;text-rendering:auto;enable-background:accumulate" />
            <path
               sodipodi:nodetypes="ccccsscccccccccccccccccccccccccccccccccccccccccccccccccccccssccccscccccccccccccccccccccccccccccccccccccccccccccccccccccccssccccccc"
               inkscape:connector-curvature="0"
               id="path9052-4-4-4-4-8"
               d="m -61.740234,-4.6738281 c -0.205473,0.012814 -0.433985,0.052197 -0.631034,0.087883 -0.189997,0.035132 -0.417676,0.080859 -0.697265,0.1367187 -0.565132,0.1129168 -1.34379,0.2710542 -2.263672,0.4628907 -1.836975,0.3830884 -4.238648,0.8958221 -6.636719,1.4101562 -2.398239,0.5143692 -4.790633,1.0303828 -6.601562,1.4296875 -0.904417,0.19942169 -1.664308,0.36769437 -2.214844,0.49414065 -0.273554,0.0628323 -0.492403,0.11495731 -0.667969,0.15820313 -0.341156,0.074791 -0.648589,0.20363224 -0.927734,0.34570312 l -0.0039,0.001953 -0.0039,0.001953 c -0.04473,0.0263947 -0.11289,0.0700585 -0.113281,0.0703125 l -0.0098,0.0039063 -0.01758,0.015625 0.02148,-0.015625 c -1.906525,1.2501189 -1.913001,4.0122457 -0.244141,5.3847656 0.167071,0.1373844 0.318461,0.2377771 0.429687,0.3046875 0.05561,0.033455 0.10153,0.058576 0.134766,0.076172 0.03324,0.017596 0.07043,0.036652 0.05078,0.025391 0.162835,0.093295 0.414132,0.244292 0.636719,0.3652344 0.448021,0.243433 0.950757,0.4946026 1.519531,0.7890625 l 0.603516,0.3125 -0.0059,1.1191406 v 0.00781 0.00195 0.00195 0.00195 c -3.5e-5,0.004 6e-5,0.01005 0,0.019531 -1.33e-4,0.020859 7.4e-5,0.054614 0,0.099609 -1.49e-4,0.089991 3.63e-4,0.224201 0.002,0.3886719 0.0032,0.327374 0.01118,0.7744663 0.0332,1.2226558 v 0.0039 c 3.5e-5,7.15e-4 -3.6e-5,0.0012 0,0.002 v 0.002 c 0.02244,0.450094 0.0567,0.935952 0.136718,1.427734 0.04009,0.245755 0.09825,0.45772 0.154297,0.646484 l 0.0039,0.01953 0.0098,0.02344 c 0.257496,0.7806 0.742188,1.28125 0.742188,1.28125 l 0.03906,0.04297 0.04883,0.04492 c 0.09553,0.08602 0.425548,0.369214 0.832032,0.533203 0.608113,0.245392 1.361434,0.414069 2.294921,0.109375 v -0.002 l 0.107422,-0.03516 0.09961,-0.05274 c 1.454557,-0.75332 2.549235,-1.831755 3.46289,-2.683594 0.762552,0.351062 1.553325,0.738598 2.361328,0.916016 h 0.002 l 0.06836,0.01367 0.06836,0.0098 h 0.002 c 0.09344,0.01071 0.345346,0.04992 0.679687,0.0293 0.329314,-0.02032 0.91181,-0.104447 1.373047,-0.65625 v -0.002 l 0.002,-0.002 c 2.640031,-3.4106055 5.124393,-6.9328617 7.544922,-10.5527339 l 0.02344,-0.033203 v -0.00781 c 0.224391,-0.34868896 0.430285,-0.61517182 0.63086,-1.00585932 0.212861,-0.4146187 0.351562,-0.96060764 0.351562,-1.50390628 0,-1.8279929 -1.459488,-3.2918171 -3.265625,-3.2929687 -0.05949,-5.048e-4 -0.133106,-2.112e-4 -0.166015,0 z m 0.164062,0.2636721 c 1.663637,0.00106 3.003906,1.3417686 3.003906,3.0292968 0,0.49706319 -0.133385,1.01110002 -0.324218,1.38281253 -0.19616,0.38208672 -0.398184,0.64386136 -0.638672,1.02148437 l -0.02148,0.03125 v 0.00195 c -2.409913,3.6027957 -4.882095,7.107623 -7.507812,10.5000003 -5.39e-4,6.44e-4 -0.0014,-6.44e-4 -0.002,0 -0.400422,0.477681 -0.876979,0.543583 -1.183594,0.5625 -0.305207,0.01882 -0.522234,-0.01656 -0.632812,-0.0293 h -0.002 l -0.05859,-0.0078 L -69,12.070312 c -0.789732,-0.173829 -1.594032,-0.564044 -2.382812,-0.925781 l -0.08008,-0.03711 -0.06641,0.06055 c -0.928479,0.863469 -2.03149,1.94994 -3.470698,2.69531 h -0.002 l -0.08203,0.04297 -0.08398,0.0293 c -0.867549,0.283172 -1.537264,0.131666 -2.115234,-0.101563 -0.352573,-0.142239 -0.668622,-0.411289 -0.751953,-0.486328 l -0.03906,-0.0332 -0.03516,-0.04101 -0.002,-0.002 c 0,0 -0.447241,-0.459727 -0.683594,-1.183593 v -0.0039 l -0.0039,-0.01172 -0.0039,-0.01172 v -0.002 c -0.05481,-0.18458 -0.110985,-0.385624 -0.148438,-0.615235 -0.07701,-0.473298 -0.108604,-0.946219 -0.130859,-1.390625 v -0.0059 -0.0039 c -0.022,-0.4450803 -0.032,-0.8901783 -0.03516,-1.2167971 -0.0016,-0.1633094 -0.0021,-0.2975906 -0.002,-0.3867188 7.4e-5,-0.044564 0.0018,-0.077208 0.002,-0.097656 4.8e-5,-0.00744 -3.1e-5,-0.011735 0,-0.015625 0,0 -0.08386,-0.00318 -0.160156,-0.00586 h 0.160156 v -0.00195 -0.00391 -0.00586 l 0.0059,-1.28125 -0.748047,-0.3886719 c -0.570772,-0.2954941 -1.071589,-0.5449493 -1.513672,-0.7851563 -0.215021,-0.1168315 -0.465491,-0.2674158 -0.632812,-0.3632812 -0.02811,-0.016106 -0.0289,-0.013576 -0.05859,-0.029297 -0.0297,-0.015721 -0.07015,-0.039664 -0.121094,-0.070312 -0.101894,-0.061296 -0.241002,-0.1533954 -0.396484,-0.28125 -1.534176,-1.2617521 -1.538362,-3.8068358 0.21875,-4.95898438 l 0.0059,-0.003906 c 3.68e-4,-2.3923e-4 0.05701,-0.0344688 0.09766,-0.05859376 0.268553,-0.13667956 0.554609,-0.25619555 0.867188,-0.32421874 h 0.002 v -0.001953 c 0.172972,-0.0426068 0.391008,-0.0935323 0.664063,-0.15625 0.549054,-0.12610592 1.308833,-0.29479811 2.21289,-0.49414063 1.809842,-0.39906489 4.201537,-0.91535389 6.59961,-1.42968749 2.397942,-0.5143066 4.798906,-1.0273006 6.634765,-1.4101562 0.919,-0.1916523 1.697144,-0.348132 2.261719,-0.4609375 0.279382,-0.055818 0.508035,-0.1020892 0.695312,-0.1367188 0.197976,-0.040404 0.397152,-0.060904 0.593834,-0.082023 h 0.002 c 0.03887,-3.457e-4 0.100782,-0.00237 0.15039,-0.00195 z"
               style="color:#000000;font-style:normal;font-variant:normal;font-weight:normal;font-stretch:normal;font-size:medium;line-height:normal;font-family:sans-serif;font-variant-ligatures:normal;font-variant-position:normal;font-variant-caps:normal;font-variant-numeric:normal;font-variant-alternates:normal;font-feature-settings:normal;text-indent:0;text-align:start;text-decoration:none;text-decoration-line:none;text-decoration-style:solid;text-decoration-color:#000000;letter-spacing:normal;word-spacing:normal;text-transform:none;writing-mode:lr-tb;direction:ltr;text-orientation:mixed;dominant-baseline:auto;baseline-shift:baseline;text-anchor:start;white-space:normal;shape-padding:0;clip-rule:nonzero;display:inline;overflow:visible;visibility:visible;opacity:0.12000002;isolation:auto;mix-blend-mode:normal;color-interpolation:sRGB;color-interpolation-filters:linearRGB;solid-color:#000000;solid-opacity:1;vector-effect:none;fill:#ffffff;fill-opacity:1;fill-rule:nonzero;stroke:none;stroke-width:0.26458332;stroke-linecap:butt;stroke-linejoin:miter;stroke-miterlimit:4;stroke-dasharray:none;stroke-dashoffset:0;stroke-opacity:1;color-rendering:auto;image-rendering:auto;shape-rendering:auto;text-rendering:auto;enable-background:accumulate" />
            <path
               sodipodi:nodetypes="ccccccsscccccccccccccccccccccccccccccccccccsccccscccccccccccccccccscccccccccccccscccccccc"
               inkscape:connector-curvature="0"
               id="path9052-4-4-4-4"
               d="m -61.739577,-4.5416115 c -0.257198,0.021042 -0.555299,0.074238 -0.356813,0.042255 h -0.0021 c -0.0667,0.010785 -0.148643,0.025052 -0.247462,0.043306 -0.188637,0.034881 -0.417532,0.080265 -0.697018,0.1361041 -0.564853,0.1128611 -1.342772,0.2701844 -2.262213,0.4619288 -1.836417,0.382972 -4.238096,0.8962122 -6.636103,1.4105326 -2.398156,0.5143514 -4.790658,1.0299075 -6.601045,1.4290923 -0.904237,0.19938226 -1.662926,0.36864755 -2.212721,0.49492369 -0.273303,0.0627748 -0.491817,0.11379972 -0.666086,0.15672585 -0.32777,0.0713288 -0.62465,0.19644905 -0.899111,0.33613583 -0.04279,0.02524929 -0.108905,0.06573643 -0.109296,0.06598983 l -0.0041,0.0020589 -0.0021,0.0020589 c -1.831818,1.2011336 -1.832482,3.8548179 -0.230964,5.1719538 0.378519,0.292127 0.841807,0.5452904 1.230125,0.7571642 0.445052,0.2418195 0.946928,0.492433 1.516701,0.7874096 l 0.676396,0.3505707 -0.0062,1.2001903 v 0.00623 0.00623 c 5.15e-4,-0.057343 -0.0092,0.8347323 0.03505,1.7301701 v 0.0021 c 0.02235,0.448329 0.05531,0.928737 0.134042,1.412595 0.03877,0.237683 0.09511,0.444356 0.150539,0.631028 l 0.0041,0.0165 0.0062,0.0165 c 0.246516,0.754993 0.713515,1.235248 0.713515,1.235248 l 0.03918,0.04331 0.04331,0.03918 c 0.08943,0.08053 0.41235,0.356245 0.791878,0.509359 0.593042,0.23931 1.303955,0.399105 2.204473,0.105172 l 0.09693,-0.03299 0.09074,-0.04743 c 1.461215,-0.756768 2.575405,-1.854566 3.501585,-2.715894 0.787546,0.361171 1.600202,0.757814 2.412753,0.936231 l 0.06186,0.01237 0.06393,0.0082 c 0.101846,0.01168 0.337592,0.04862 0.657836,0.02887 0.318171,-0.01963 0.847557,-0.09272 1.278553,-0.608344 2.637627,-3.4075012 5.12001,-6.927924 7.539337,-10.545999 v -0.0022 c 0.237106,-0.37231302 0.443617,-0.63792568 0.645464,-1.03109114 0.201847,-0.39316541 0.338198,-0.92334683 0.338198,-1.44352756 0,-1.7577607 -1.399767,-3.1602191 -3.134654,-3.1613253 -0.05648,-4.754e-4 -0.129678,8.292e-4 -0.16469,0.00105 z m 0.127805,2.5127441 c 4.86e-4,0 0.0016,-1.8e-6 0.0021,0 0.304786,0.00108 0.655774,0.3381758 0.655774,0.6475251 0,0.2062744 0.0012,0.1721031 -0.06186,0.2948921 -0.06303,0.1227889 -0.24968,0.39209435 -0.527918,0.82899719 -2.271551,3.55532091 -4.357259,6.99591981 -7.073286,9.95002901 -0.639229,-0.1614428 -1.687994,-0.5902943 -2.544732,-1.0084069 l -0.748572,-0.3650062 -0.628965,0.5464782 c -1.126369,0.9801918 -2.3129,2.1723059 -3.44797,2.7963199 -0.107767,-0.0038 -0.338363,-0.02053 -0.389752,-0.03505 -0.02112,-0.02824 -0.101181,-0.136921 -0.148477,-0.27427 -0.03571,-0.123081 -0.06313,-0.22469 -0.07424,-0.29283 -0.0527,-0.323886 -0.0826,-0.722919 -0.103113,-1.1342003 -0.03991,-0.8078158 -0.03383,-1.5042324 -0.03299,-1.5940662 v -0.00623 -0.012374 l 0.01438,-2.7282276 -2.041561,-1.0620235 h -0.0021 C -79.32509,4.2327533 -79.873073,3.9446153 -80.29313,3.716376 c -0.213751,-0.1161421 -0.39452,-0.2155133 -0.525857,-0.2907681 -0.279509,-0.1601663 -0.03474,0.023661 -0.251587,-0.1546632 -0.37075,-0.3049164 -0.42406,-0.8388839 0.01443,-1.1280133 -5e-5,6.54e-5 0.0019,-0.00201 0.0021,-0.00211 l 0.0021,-0.00211 c 0.0083,-0.00306 0.0097,-0.00391 0.0041,-0.00211 0.0022,-0.00127 -1.25e-4,4.223e-4 0.0041,-0.00211 h 0.0021 c -0.0067,0.00211 -0.01967,0.00549 0.04537,-0.012374 h 0.0021 c 0.07241,-0.019977 0.119878,-0.034283 0.173224,-0.047428 0.147718,-0.036384 0.360305,-0.086769 0.628965,-0.1484782 0.534147,-0.1226809 1.288349,-0.2899161 2.190037,-0.4887366 1.801442,-0.3972123 4.191096,-0.91324526 6.586611,-1.42703021 2.395664,-0.51381805 4.796474,-1.02534689 6.623729,-1.40640829 0.912373,-0.1902703 1.684195,-0.3464331 2.241592,-0.4578044 0.281629,-0.056268 0.506275,-0.1015114 0.659898,-0.1299175 0.07231,-0.013357 0.132574,-0.025148 0.193846,-0.035057 v 0.00206 c 0.372269,-0.059986 -0.09214,-0.01454 0.08455,-0.012373 z"
               style="color:#000000;font-style:normal;font-variant:normal;font-weight:normal;font-stretch:normal;font-size:medium;line-height:normal;font-family:sans-serif;font-variant-ligatures:normal;font-variant-position:normal;font-variant-caps:normal;font-variant-numeric:normal;font-variant-alternates:normal;font-feature-settings:normal;text-indent:0;text-align:start;text-decoration:none;text-decoration-line:none;text-decoration-style:solid;text-decoration-color:#000000;letter-spacing:normal;word-spacing:normal;text-transform:none;writing-mode:lr-tb;direction:ltr;text-orientation:mixed;dominant-baseline:auto;baseline-shift:baseline;text-anchor:start;white-space:normal;shape-padding:0;clip-rule:nonzero;display:inline;overflow:visible;visibility:visible;opacity:1;isolation:auto;mix-blend-mode:normal;color-interpolation:sRGB;color-interpolation-filters:linearRGB;solid-color:#000000;solid-opacity:1;vector-effect:none;fill:#686161;fill-opacity:1;fill-rule:nonzero;stroke:none;stroke-width:2.51421237;stroke-linecap:butt;stroke-linejoin:miter;stroke-miterlimit:4;stroke-dasharray:none;stroke-dashoffset:0;stroke-opacity:1;color-rendering:auto;image-rendering:auto;shape-rendering:auto;text-rendering:auto;enable-background:accumulate" />
            <path
               inkscape:connector-curvature="0"
               id="path9052-4-0-8-1"
               d="m -61.611584,-3.2614726 c -0.267239,6.54e-5 -0.221989,0.017724 -0.285821,0.028005 -0.06392,0.010358 -0.135149,0.022075 -0.220743,0.037888 -0.171124,0.031639 -0.398168,0.077384 -0.678716,0.1334431 -0.561123,0.1121165 -1.335208,0.2694301 -2.251123,0.4604377 -1.83183,0.3820169 -4.233795,0.8936035 -6.630639,1.4076719 -2.396842,0.51406838 -4.787659,1.03088796 -6.59357,1.42908782 -0.902958,0.19909987 -1.658898,0.36726022 -2.200878,0.49173911 -0.270984,0.0622427 -0.487236,0.11272214 -0.648238,0.15237887 -0.0805,0.0198286 -0.1468,0.0390354 -0.208392,0.05601 -0.03077,0.008447 -0.05823,0.0145051 -0.09967,0.028005 -0.02073,0.006694 -0.04481,0.0159548 -0.08401,0.0313045 -0.01961,0.007655 -0.04285,0.0151428 -0.07741,0.0313045 -0.03443,0.016083 -0.15488,0.089275 -0.155678,0.089785 -1.136165,0.7449906 -1.108273,2.339343 -0.121902,3.1505839 0.269705,0.2217797 0.275166,0.1893581 0.423368,0.2742854 0.148236,0.084921 0.334766,0.1872475 0.551043,0.3047622 0.432561,0.2350283 0.986091,0.5262842 1.550996,0.8187406 l 1.359899,0.7067184 -0.0099,1.9644803 v 0.00338 0.0057 c -9.7e-5,0.00908 -0.0096,0.8139502 0.03378,1.6687783 0.02152,0.429806 0.05293,0.869538 0.118604,1.273413 0.02534,0.156013 0.06687,0.312818 0.115304,0.476086 0.149033,0.456626 0.442319,0.775083 0.442319,0.775083 0.111256,0.100242 0.203289,0.190119 0.42008,0.277583 0.317588,0.128151 0.882354,0.225164 1.345072,0.07413 0.462715,-0.151023 0.726255,-0.386629 1.030425,-0.644117 l 2.512229,-2.169582 c 0,0 0.288443,-0.2525495 0.401133,-0.349239 0.200035,0.096113 0.395493,0.1903908 0.644944,0.321236 0.379734,0.199169 0.750164,0.389413 1.046076,0.535392 0.147916,0.07299 0.276107,0.133076 0.385482,0.183684 0.109343,0.05061 0.116213,0.07215 0.355007,0.143325 0.04272,0.01275 0.154755,0.05993 0.386305,0.08648 0.231519,0.02655 0.578906,-0.01604 0.831098,-0.133443 0.504379,-0.234821 0.693595,-0.518238 0.992535,-0.8994597 0.597914,-0.762454 1.513591,-2.1385078 3.428165,-4.9840991 1.604824,-2.3852304 2.504271,-3.7267975 3.019614,-4.53601546 0.515365,-0.80921651 0.787441,-1.07328944 0.787441,-1.79974624 0,-1.033867 -0.89328,-1.9047028 -1.913412,-1.9051747 z"
               style="fill:#dad3d0;fill-opacity:1;stroke-width:0.3880159" />
            <path
               sodipodi:nodetypes="scccssscccccccccccccccccccccccccssscccccccccccccsscccccccccccc"
               inkscape:connector-curvature="0"
               id="path9052-4-4-52"
               d="m -61.611585,-3.2614729 c -0.268912,0 -0.222688,0.017708 -0.286642,0.028007 -0.06395,0.010358 -0.135184,0.022077 -0.220748,0.037888 -0.171131,0.031638 -0.398159,0.077378 -0.678711,0.1334363 -0.561127,0.1121165 -1.335212,0.2694305 -2.251127,0.4604382 -1.83183,0.3820167 -4.233795,0.8936038 -6.630636,1.4076724 -2.396836,0.51406805 -4.787659,1.03088837 -6.593574,1.42908749 -0.90296,0.19910029 -1.65891,0.36725928 -2.200878,0.49173827 -0.270988,0.0622427 -0.487245,0.11272457 -0.648238,0.15238108 -0.08049,0.0198297 -0.146849,0.0390343 -0.208391,0.0560101 -0.03079,0.008447 -0.05812,0.014503 -0.09966,0.0280071 -0.02079,0.006694 -0.04487,0.0159495 -0.08401,0.0313003 -0.01956,0.007655 -0.04295,0.0151397 -0.07742,0.0313003 -0.03445,0.016085 -0.154896,0.089272 -0.155676,0.089781 -1.136166,0.7449905 -1.108298,2.3393418 -0.121904,3.1505828 0.269705,0.2217796 0.275167,0.189358 0.42337,0.2742854 0.148206,0.084921 0.334769,0.1872474 0.551046,0.3047621 0.432556,0.2350294 0.986091,0.5262842 1.550992,0.8187406 l 1.359899,0.7067184 -0.0091,1.9644814 v 0.00327 0.00581 c -9.3e-5,0.00908 -0.009,0.8139513 0.03378,1.6687797 0.02146,0.429805 0.05288,0.869539 0.11861,1.273411 0.02539,0.156014 0.06688,0.312818 0.115316,0.476089 0.149097,0.456624 0.442319,0.775085 0.442319,0.775085 0.111335,0.100241 0.203279,0.190114 0.420075,0.277581 0.31758,0.128151 0.882355,0.225164 1.345076,0.07413 1.450464,-0.751197 2.726731,-2.113612 3.803998,-3.051069 0.936926,0.457248 2.101064,0.970171 2.957604,1.158248 0.231514,0.02656 0.578903,-0.01603 0.831094,-0.133437 2.96183,-3.1419835 5.115993,-6.7816605 7.440318,-10.41957335 0.515348,-0.8092162 0.787442,-1.07328945 0.787442,-1.79974485 0,-1.0341474 -0.893762,-1.9051759 -1.914236,-1.9051759 z m -0.03872,1.0905545 c 0.382843,0 0.684477,0.2982402 0.684477,0.6754193 0,0.2693107 -0.387995,0.87885525 -3.596193,5.6471623 -3.829749,5.6920908 -3.752063,5.5927544 -4.265846,5.4395946 -0.118733,-0.035392 -0.823245,-0.3823007 -1.565819,-0.7717896 -0.742595,-0.3894952 -1.390014,-0.6841551 -1.43815,-0.6548271 -0.04811,0.029342 -0.734746,0.6166955 -1.52546,1.3055354 -0.790696,0.6888505 -1.673759,1.4529105 -1.962831,1.6976095 -0.536801,0.454415 -0.73938,0.520053 -1.121855,0.365713 -0.391674,-0.158027 -0.357481,-3.3243787 -0.357481,-3.3243787 l 0.01235,-2.7255637 -2.030374,-1.0510174 c -1.116812,-0.5781871 -2.188546,-1.1585988 -2.307136,-1.2561149 -0.37822,-0.3110634 -0.381195,-0.7562245 0.008,-1.0114203 0.01425,-0.0094 0.187651,-0.1658488 0.309638,-0.1958483 2.508516,-0.6169058 18.781359,-4.1400741 19.156681,-4.1400741 z m -4.083817,3.13081449 c -0.03201,-0.033413 -0.79065,0.28997021 -5.936273,2.98255191 l -3.538315,2.1430287 -0.0048,1.7249996 c -1.6e-4,1.0457255 -0.01836,1.4419411 0.0098,1.4136964 l 1.155275,-2.2867884 4.444561,-3.1967385 c 2.468745,-1.7403408 3.763943,-2.6710784 3.794704,-2.7033235 0.01514,-0.015844 0.08562,-0.0662886 0.07495,-0.0774266 z"
               style="fill:url(#linearGradient4832);fill-opacity:1;stroke-width:0.38918313" />
            <path
               sodipodi:nodetypes="ccccccscccccsccccscscccccccccccccccccccccccccccsccccccccccc"
               inkscape:connector-curvature="0"
               id="path9052-4-2-9"
               d="m -61.597758,-2.1745559 c -0.0802,0 -0.146529,0.021215 -0.146529,0.021215 l -1.819459,0.3736501 -17.22829,3.7467717 c -0.721212,0.3070966 -0.806777,0.9397142 -0.199346,1.2992437 l 4.204282,2.217233 c -0.01498,1.5293054 -0.06193,4.4830177 0.09108,5.7115534 0.02371,0.190418 0.180079,0.292497 0.332036,0.365049 0.224078,0.09038 0.315633,-0.02179 0.409405,-0.05239 l 0.564186,-0.403169 3.381546,-2.7235514 c 0.0048,-0.00401 0.229007,-0.1855602 0.229007,-0.1855602 0.41451,0.133045 0.913036,0.3936542 1.419557,0.6541007 0.45264,0.2327403 0.910261,0.4734586 1.28384,0.6480518 0.161607,0.081226 0.28968,0.1460192 0.485734,0.1723908 0.163828,0.011477 0.396276,-0.1839142 0.667671,-0.5476459 0.541776,-0.6904775 1.464742,-2.0440662 3.374349,-4.880628 l 3.255598,-4.92949719 c 0.132185,-0.20016785 0.227709,-0.37825671 0.311866,-0.58899541 0.02874,-0.097532 0.03709,-0.204379 0.01696,-0.2913992 -0.08322,-0.3598772 -0.342759,-0.619099 -0.635187,-0.6055698 z m -0.226097,1.1195729 c 0.218393,-0.033584 0.272183,0.0565686 0.171572,0.24864531 0,0 -3.924717,6.34402919 -6.443526,9.59153659 -0.251186,0.320133 -0.496786,0.4561544 -0.52101,0.4674234 -1.029509,-0.3414673 -1.988264,-1.0788873 -2.932994,-1.4537792 -0.04572,-0.017105 -0.08603,-0.031179 -0.130431,-0.042413 -0.0222,-0.0056 -0.04006,-0.015299 -0.07653,-0.018382 -0.03647,-0.00306 -0.146976,0.078248 -0.270707,0.1536381 -1.303057,1.0636653 -2.570287,2.0896552 -3.892697,3.1996968 -0.196037,0.108897 -0.407475,0.102997 -0.387564,-0.321844 l -0.07914,-5.406391 -4.113578,-2.1577492 c -0.214919,-0.1766669 -0.0096,-0.2077001 0.363965,-0.3189389 z m -3.106744,1.48431715 c -0.02174,0.005733 -0.04573,0.0153012 -0.04573,0.0153012 l -10.538977,5.31151305 -0.133826,0.083126 v 0.1249478 1.8570425 h -0.0018 V 8.14698 c 0,0.5235422 0.0059,0.9928059 0.0153,1.3316959 0.0046,0.169446 0.01024,0.3051244 0.01695,0.4037502 0.0034,0.049318 0.0075,0.088321 0.01355,0.1289319 0.04858,0.07155 0.45122,0.07549 0.560246,-0.059919 0.457502,-0.5682242 1.386377,-1.9841168 1.513127,-2.2249671 l 8.63049,-6.2347805 c 0.853798,-0.76077634 0.401668,-1.20622005 -0.02937,-1.062324 z m -1.108743,0.87929315 -8.008991,5.628757 -1.155275,2.2867884 c -0.0097,-0.7451212 -0.0051,-2.3432735 -0.0051,-3.138696 l 3.79783,-2.0276985 c 0,0 4.509161,-2.2987468 5.371514,-2.7491509 z"
               style="color:#000000;font-style:normal;font-variant:normal;font-weight:normal;font-stretch:normal;font-size:medium;line-height:normal;font-family:Sans;-inkscape-font-specification:Sans;text-indent:0;text-align:start;text-decoration:none;text-decoration-line:none;letter-spacing:normal;word-spacing:normal;text-transform:none;writing-mode:lr-tb;direction:ltr;baseline-shift:baseline;text-anchor:start;display:inline;overflow:visible;visibility:visible;opacity:0.18930042;fill:#000000;fill-opacity:1;stroke:none;stroke-width:0.65109074;marker:none;enable-background:accumulate" />
            <path
               sodipodi:nodetypes="ccccccccscccccccccccccccc"
               inkscape:connector-curvature="0"
               id="rect1345-8-8-8-8-9"
               d="m -60.959135,-1.1960802 c -0.987597,1.66280134 -2.505521,3.7979421 -3.711511,5.6471113 -0.623578,0.8828827 -2.742887,4.0788441 -3.391098,4.8539565 -0.124357,0.1486967 -0.269943,0.2901652 -0.447259,0.3508895 -0.08784,0.036247 -0.229739,-0.018171 -0.341004,-0.051071 -0.329498,-0.1612411 -0.689149,-0.3335052 -1.040309,-0.5139774 -0.711811,-0.3658318 -1.408222,-0.7341838 -1.889527,-0.8953426 l -4.253491,3.3705049 c -0.152194,0.03807 -0.284308,0.04153 -0.410229,-0.04655 -0.128201,-0.08967 -0.238165,-0.170474 -0.257656,-0.377719 -0.13041,-2.144166 -0.09197,-2.8278207 -0.09574,-5.2525447 l 0.005,-0.4085457 -4.190069,-2.2082921 C -81.23316,3.146163 -81.33276,3.0461118 -81.385675,2.8803179 c 0,0.4107619 0.181665,0.8072013 0.392074,0.9286797 1.212214,0.6876404 2.5637,1.5132756 3.820236,2.103684 0.05735,0.026934 0.163444,2.6841886 0.251223,4.3923034 0.02842,0.400516 0.04063,1.003857 0.109339,1.346111 0.04967,0.185347 0.146491,0.267674 0.340108,0.319929 0.216346,0.02756 0.489004,-0.01832 0.762188,-0.177652 l 3.959439,-3.070685 2.765099,1.425793 c 0.361802,0.142943 0.613127,0.07799 0.739666,-0.06425 2.561058,-3.2810339 5.114026,-7.1783828 7.361245,-10.74410668 z"
               style="opacity:0.6;fill:#ffffff;fill-opacity:1;fill-rule:evenodd;stroke:none;stroke-width:0.05424608" />
            <path
               sodipodi:nodetypes="cccccc"
               inkscape:connector-curvature="0"
               id="rect1345-8-8-8-1-02-5-3"
               d="m -66.08483,1.3217931 -9.123878,4.7636836 -0.0048,1.7249996 c 0.06519,-0.046626 0.645554,-1.3917942 0.645554,-1.3917942 l 6.825061,-3.9436209 z"
               style="opacity:0.6;fill:#ffffff;fill-opacity:1;fill-rule:evenodd;stroke:none;stroke-width:0.02464695" />
            <path
               inkscape:connector-curvature="0"
               id="path9052-4-4-5-3"
               d="m -61.707813,-3.2389175 c -0.0093,1.06e-5 -0.0017,0.002 -0.01035,0.00206 -0.237208,0.00173 -0.249184,0.020809 -0.286643,0.026809 -0.06354,0.01021 -0.134964,0.021389 -0.220654,0.037119 -0.1707,0.031371 -0.396755,0.076861 -0.674334,0.1319797 -0.555614,0.1103362 -1.320434,0.2636834 -2.227157,0.4516178 -1.813273,0.3758317 -4.191747,0.8801189 -6.563926,1.3857865 -2.372926,0.50582586 -4.725735,1.0396173 -6.512371,1.43115449 -0.893738,0.19586128 -1.642753,0.36203635 -2.179726,0.48461273 -0.268293,0.061247 -0.493187,0.11330253 -0.653712,0.15260153 -0.08169,0.0200113 -0.148198,0.0392043 -0.208281,0.0556785 -0.0279,0.007602 -0.05825,0.0143974 -0.103113,0.0288708 -0.02484,0.007898 -0.04973,0.0178278 -0.08867,0.0329949 -0.0146,0.005723 -0.0435,0.0147965 -0.08249,0.032995 -0.02761,0.012825 -0.06509,0.034218 -0.103113,0.055678 -0.03801,0.021461 -0.07012,0.039181 -0.07012,0.039181 l -0.0041,0.00206 -0.0021,0.00206 c -0.588548,0.3835527 -0.866896,0.9798151 -0.866117,1.5796316 7.8e-4,0.5998164 0.277447,1.2037478 0.787754,1.6208751 l 0.0041,0.00413 0.0041,0.00413 c 1.187896,0.7548772 2.498778,1.3634314 3.823285,2.0456848 l -0.01443,1.8972077 v 0.00413 0.00619 c -3.7e-5,0.00376 -0.009,0.8022087 0.03299,1.6456225 0.04108,0.8927858 0.112386,1.8464658 0.633091,2.5323598 l 0.0062,0.0082 0.0062,0.0062 c 0.108492,0.09708 0.21842,0.199743 0.445431,0.290768 0.335359,0.1345 0.904703,0.233661 1.396097,0.07424 l 0.0082,-0.0021 0.0062,-0.0021 c 1.439069,-0.740738 2.685101,-2.062255 3.736675,-2.9777916 0.920145,0.4442426 2.042538,0.9386896 2.891179,1.1238896 h 0.0041 l 0.0041,0.0021 c 0.251446,0.02867 0.6022,-0.0143 0.874366,-0.140228 h 0.0021 l 0.0021,-0.0021 c 0.516099,-0.264288 0.873208,-0.697028 1.208438,-1.128015 2.179529,-2.8020904 4.195605,-6.0166929 6.192733,-9.15402678 0.253423,-0.39550008 0.449214,-0.6597082 0.585661,-0.92385757 0.136445,-0.26414937 0.208279,-0.52971508 0.208279,-0.89911165 0,-1.0724579 -0.92636,-1.9682556 -1.990005,-1.969384 -0.0019,0 -2.42e-4,-2.1e-6 -0.0021,0 z m 0,0.191783 c 6.65e-4,0 0.0014,-9e-7 0.0021,0 0.954548,0.00114 1.79616,0.8169869 1.79616,1.7776011 0,0.34515922 -0.06196,0.56708394 -0.187659,0.81043757 -0.125704,0.24335364 -0.318748,0.50689953 -0.575349,0.90736009 -1.997617,3.13810134 -4.011425,6.34847054 -6.182421,9.13959164 -0.331703,0.4264511 -0.670611,0.8325331 -1.140388,1.0743971 -5.91e-4,2.74e-4 -0.0015,-2.73e-4 -0.0021,0 -0.224532,0.103303 -0.554161,0.143537 -0.760945,0.121669 -0.829638,-0.181482 -1.979831,-0.679971 -2.903552,-1.128014 l -0.05774,-0.028871 -0.04743,0.041244 c -1.070295,0.925697 -2.328685,2.25318 -3.738737,2.981916 -0.42361,0.134833 -0.966129,0.04691 -1.257931,-0.07012 -0.196896,-0.07894 -0.270242,-0.153293 -0.377379,-0.249524 -0.468629,-0.622776 -0.551118,-1.533912 -0.591847,-2.4189405 -0.0417,-0.8371844 -0.0352,-1.6191303 -0.03505,-1.6353106 v -0.00619 -0.00413 l 0.0165,-2.0126899 -0.05362,-0.026809 c -1.345987,-0.6951957 -2.663831,-1.3077823 -3.852166,-2.0621733 -0.464386,-0.3807571 -0.714876,-0.9306595 -0.715577,-1.4703359 -7.02e-4,-0.5405865 0.245679,-1.0695463 0.781567,-1.4187814 0.0053,-0.00303 0.03026,-0.018111 0.06393,-0.037119 0.03705,-0.020917 0.08428,-0.046491 0.09074,-0.049492 0.02914,-0.0136 0.04606,-0.017385 0.07012,-0.026809 0.0386,-0.015032 0.06203,-0.023677 0.07836,-0.028871 0.03748,-0.012093 0.06173,-0.017787 0.09486,-0.026809 0.06173,-0.016927 0.124542,-0.034619 0.202095,-0.053616 0.158137,-0.038714 0.383574,-0.0914049 0.651649,-0.15260154 0.535781,-0.12230365 1.284121,-0.28673194 2.177665,-0.48255058 1.787903,-0.39181468 4.141117,-0.92774716 6.512371,-1.43321668 2.372,-0.5056295 4.749291,-1.0080375 6.561864,-1.3837243 0.906182,-0.1878226 1.672111,-0.3434568 2.227157,-0.4536801 0.277742,-0.055152 0.502182,-0.099038 0.670209,-0.1299175 0.08367,-0.015359 0.153409,-0.026975 0.21653,-0.037119 0.08683,-0.013905 0.01125,-0.026623 0.266021,-0.026809 z"
               style="color:#000000;font-style:normal;font-variant:normal;font-weight:normal;font-stretch:normal;font-size:medium;line-height:normal;font-family:sans-serif;font-variant-ligatures:normal;font-variant-position:normal;font-variant-caps:normal;font-variant-numeric:normal;font-variant-alternates:normal;font-feature-settings:normal;text-indent:0;text-align:start;text-decoration:none;text-decoration-line:none;text-decoration-style:solid;text-decoration-color:#000000;letter-spacing:normal;word-spacing:normal;text-transform:none;writing-mode:lr-tb;direction:ltr;text-orientation:mixed;dominant-baseline:auto;baseline-shift:baseline;text-anchor:start;white-space:normal;shape-padding:0;clip-rule:nonzero;display:inline;overflow:visible;visibility:visible;opacity:0.6;isolation:auto;mix-blend-mode:normal;color-interpolation:sRGB;color-interpolation-filters:linearRGB;solid-color:#000000;solid-opacity:1;vector-effect:none;fill:#ffffff;fill-opacity:1;fill-rule:nonzero;stroke:none;stroke-width:0.19293794;stroke-linecap:butt;stroke-linejoin:miter;stroke-miterlimit:4;stroke-dasharray:none;stroke-dashoffset:0;stroke-opacity:1;color-rendering:auto;image-rendering:auto;shape-rendering:auto;text-rendering:auto;enable-background:accumulate" />
            <path
               style="color:#000000;font-style:normal;font-variant:normal;font-weight:normal;font-stretch:normal;font-size:medium;line-height:normal;font-family:sans-serif;font-variant-ligatures:normal;font-variant-position:normal;font-variant-caps:normal;font-variant-numeric:normal;font-variant-alternates:normal;font-feature-settings:normal;text-indent:0;text-align:start;text-decoration:none;text-decoration-line:none;text-decoration-style:solid;text-decoration-color:#000000;letter-spacing:normal;word-spacing:normal;text-transform:none;writing-mode:lr-tb;direction:ltr;text-orientation:mixed;dominant-baseline:auto;baseline-shift:baseline;text-anchor:start;white-space:normal;shape-padding:0;clip-rule:nonzero;display:inline;overflow:visible;visibility:visible;opacity:0.02999998;isolation:auto;mix-blend-mode:normal;color-interpolation:sRGB;color-interpolation-filters:linearRGB;solid-color:#000000;solid-opacity:1;vector-effect:none;fill:#ffffff;fill-opacity:1;fill-rule:nonzero;stroke:none;stroke-width:0.26458332;stroke-linecap:butt;stroke-linejoin:miter;stroke-miterlimit:4;stroke-dasharray:none;stroke-dashoffset:0;stroke-opacity:1;color-rendering:auto;image-rendering:auto;shape-rendering:auto;text-rendering:auto;enable-background:accumulate"
               d="m -61.570312,-5.0683594 c -0.266614,-0.011986 -0.466899,0.017097 -0.669922,0.054687 l -0.0332,0.00781 h -0.002 l -0.171875,0.033203 c -0.193955,0.035881 -0.422214,0.080982 -0.701172,0.1367187 -0.566149,0.1131291 -1.346511,0.2708075 -2.267578,0.4628906 -1.838542,0.3834154 -4.240325,0.8957635 -6.638672,1.4101563 -2.398534,0.5144333 -4.791024,1.0300379 -6.603515,1.4296875 -0.90485,0.1995167 -1.665814,0.3690962 -2.21875,0.4960937 -0.27357,0.062835 -0.492223,0.11445704 -0.669922,0.15820315 -0.38253,0.084675 -0.719598,0.22824322 -1.015625,0.37890625 l -0.0039,0.001953 -0.0059,0.003906 -0.0098,0.003906 -0.0078,0.003906 -0.0039,0.001953 c -0.04399,0.0259625 -0.07833,0.0484426 -0.09375,0.0585938 -9.82e-4,6.4636e-4 -0.0051,0.003391 -0.0059,0.003906 l -0.0332,0.0117188 -0.05469,0.0488281 -0.195312,0.15429687 v 0 c -1.150574,0.91703528 -1.569931,2.40442483 -1.294924,3.72265623 0.166934,0.8001924 0.59137,1.552895 1.265625,2.1074219 0.16026,0.1317842 0.296174,0.2194904 0.414062,0.2929687 v 0.00977 l 0.0625,0.035156 0.002,0.00195 c 0.003,0.00175 0.01071,0.00606 0.01367,0.00781 l 0.01563,0.00977 c 3.21e-4,1.895e-4 0.0016,-1.897e-4 0.002,0 0.174626,0.1033176 0.35171,0.2104417 0.804688,0.4570312 0.456689,0.2481421 0.959517,0.4980572 1.52539,0.7910156 l 0.388672,0.2011719 -0.0059,0.8769531 v 0.00977 0.00195 0.00195 0.00195 c -3.8e-5,0.00848 3.1e-5,0.012754 0,0.017578 -1.64e-4,0.025922 7.1e-5,0.058184 0,0.1015624 -1.52e-4,0.092005 2.12e-4,0.2266712 0.002,0.3925782 0.0032,0.3275717 0.0132,0.776771 0.03516,1.2285154 h -0.002 v 0.002 0.03906 l 0.0039,0.0078 c 0.02272,0.448453 0.05653,0.93658 0.138672,1.441406 0.0441,0.270371 0.108296,0.502867 0.166016,0.697266 l 0.0039,0.01758 0.01563,0.04297 c 0.272782,0.719779 0.487487,1.058434 0.615232,1.201172 v 0 l 0.216797,0.224609 0.04297,0.04492 0.05664,0.05664 0.0039,0.002 0.0039,0.0039 c 0.109544,0.09864 0.466873,0.408922 0.949219,0.603516 0.628736,0.253715 1.466467,0.416158 2.445312,0.134765 0,0 0.181778,-0.0215 0.246094,-0.05468 l 0.148438,-0.05078 c 1.106026,-0.754843 2.409593,-1.739555 3.338027,-2.611515 0.691531,0.322081 1.420374,0.679926 2.210938,0.853516 l -0.03125,-0.0098 0.02344,0.01172 0.05664,0.0078 0.03906,0.0078 0.06445,0.0098 0.0059,0.002 0.02344,0.0039 c 0.06118,0.007 0.370053,0.0526 0.748047,0.0293 0.346569,-0.02138 1.030685,-0.142238 1.564454,-0.683596 v 0 c 0.09066,-0.129154 0.205004,-0.232392 0.316454,-0.343842 h -0.06055 c 2.586209,-3.3536465 5.030207,-6.8071233 7.404297,-10.3574214 l 0.02734,-0.039063 v -0.00195 l 0.06445,-0.089844 v -0.021484 c 0.193199,-0.29189948 0.389791,-0.55543738 0.585937,-0.93749999 0.245115,-0.47744011 0.396485,-1.07572742 0.396485,-1.68554681 0,-2.0390542 -1.640149,-3.6850917 -3.660157,-3.6875 h 0.0098 z m -0.01367,0.265625 h 0.002 0.0078 c 1.876589,0.00224 3.394531,1.5262799 3.394531,3.4238282 0,0.56591536 -0.141276,1.12822319 -0.365234,1.56445308 -0.192864,0.37566942 -0.389921,0.63551344 -0.595703,0.94921872 l -0.02148,0.033203 v 0.011719 l -0.06445,0.089844 v 0.00781 L -59.208984,1.25 h 0.002 c -0.0063,0.00937 -0.01326,0.017972 -0.01953,0.027344 -2.383998,3.5641188 -4.819287,7.0187783 -7.416172,10.38168 0,0 -0.06684,0.07996 -0.156238,0.196921 l -0.02483,0.02337 c -0.477724,0.501647 -1.087086,0.618636 -1.404703,0.638232 -0.343676,0.02118 -0.602164,-0.01882 -0.691406,-0.0293 h -0.0098 l -0.08008,-0.01172 -0.05664,-0.01172 h -0.002 -0.0039 l -0.01367,-0.0039 c -0.776416,-0.170484 -1.517824,-0.53272 -2.234374,-0.865235 l -0.08008,-0.03711 -0.06445,0.06055 c -0.889891,0.833653 -1.936166,1.861035 -3.353515,2.595703 -1.53e-4,1.11e-4 -0.0016,0.0017 -0.002,0.002 l -0.113282,0.05859 v 0.002 l -0.01172,0.0059 -0.01172,0.0059 v -0.002 l -0.0918,0.0293 c -0.965738,0.314583 -1.761856,0.138083 -2.384766,-0.113281 -0.430064,-0.173501 -0.761442,-0.459465 -0.865234,-0.552734 l -0.0039,-0.002 -0.0098,-0.0098 -0.08594,-0.08789 c 0,0 -0.503055,-0.518106 -0.771484,-1.324219 v -0.002 l -0.01172,-0.0293 -0.002,-0.01562 -0.002,-0.0059 c -0.05661,-0.190663 -0.116787,-0.410173 -0.158203,-0.664062 -0.08124,-0.499288 -0.114164,-0.989045 -0.136719,-1.441407 v -0.0078 c -0.02217,-0.4512796 -0.03197,-0.9006514 -0.03516,-1.2285156 -0.0017,-0.164853 -0.0021,-0.2998498 -0.002,-0.390625 7.3e-5,-0.044505 -1.44e-4,-0.076851 0,-0.099609 4.9e-5,-0.00762 -2.8e-5,-0.011259 0,-0.017578 v -0.00195 -0.00195 -0.00195 -0.00195 -0.00977 l 0.0059,-1.0371094 -0.533203,-0.2753906 c -0.567704,-0.2939604 -1.070452,-0.5440534 -1.521284,-0.7890133 -0.430419,-0.234309 -0.591396,-0.3319809 -0.759766,-0.4316406 0,0 -0.05658,-0.035361 -0.09375,-0.058594 -0.113792,-0.06958 -0.255951,-0.1616929 -0.417969,-0.2949219 -0.625591,-0.5145054 -1.018404,-1.2120133 -1.173828,-1.9570313 -0.264413,-1.2674524 0.133808,-2.68404096 1.284258,-3.53021241 0.113748,-0.0802015 0.210769,-0.1471399 0.28615,-0.19830187 0.284251,-0.14466937 0.599092,-0.27731431 0.953125,-0.35546875 h 0.002 0.002 c 0.176115,-0.0433563 0.39356,-0.095624 0.666016,-0.15820313 0.551398,-0.12664435 1.312273,-0.29664884 2.216797,-0.49609364 1.811448,-0.3994197 4.203226,-0.9152968 6.601562,-1.4296875 2.398155,-0.5143518 4.801162,-1.0269563 6.638672,-1.4101563 0.920229,-0.1919085 1.698151,-0.347934 2.263672,-0.4609375 0.279406,-0.055827 0.507448,-0.1012576 0.699218,-0.1367187 l 0.208985,-0.041016 -0.0039,0.00195 c 0.1961,-0.036308 0.368385,-0.061409 0.609375,-0.050781 z m -17.89844,14.8632814 v 0.002 l -0.06055,0.01563 z"
               id="path9052-4-4-4-4-8-0-6-8-4"
               inkscape:connector-curvature="0"
               sodipodi:nodetypes="ccccccsssccccccccccccccscccccccccccccccccccccccccccccccccccccccccccccccccccccccccccsccccccscccccccccccccccccccccccccccccccccccccccccccccccccccccccccccsccccccssccccccccccc" />
          </g>
        </g>
      </g>
    </g>
  </g>
</svg>
