<?xml version="1.0" encoding="UTF-8"?>
<svg width="27px" height="27px" viewBox="0 0 27 27" version="1.1" xmlns="http://www.w3.org/2000/svg" xmlns:xlink="http://www.w3.org/1999/xlink">
    <!-- Generator: Sketch 43.1 (39012) - http://www.bohemiancoding.com/sketch -->
    <title>nav-address</title>
    <desc>Created with Sketch.</desc>
    <defs>
        <linearGradient x1="50.0693463%" y1="74.9687654%" x2="50.0693463%" y2="31.3576083%" id="linearGradient-1">
            <stop stop-color="#CAC2C0" offset="0%"></stop>
            <stop stop-color="#F4ECEA" offset="100%"></stop>
        </linearGradient>
    </defs>
    <g id="Page-1" stroke="none" stroke-width="1" fill="none" fill-rule="evenodd">
        <g id="nav-address" transform="translate(0.000000, -1.000000)">
            <path d="M3.6659697,0.9993457 C1.6586847,0.9993457 -4.53e-05,2.5929387 -4.53e-05,4.6321587 L-4.53e-05,23.8333307 C-4.53e-05,25.8733207 1.6630737,27.4583307 3.6659697,27.4583307 L22.9159697,27.4583307 C23.7428667,27.4583307 24.6438947,27.2457407 25.3632387,26.6165307 C26.0985487,25.9733707 26.4589387,25.0054907 26.4589387,24.0579407 L26.4589387,4.4680957 C26.4589387,2.4229377 24.6661187,0.9993457 22.8105007,0.9993457 L3.6659697,0.9993457 Z M3.6659697,1.2630177 L22.8105007,1.2630177 C24.5311477,1.2630177 26.1952687,2.5777917 26.1952687,4.4680957 L26.1952687,24.0579407 C26.1952687,24.9381307 25.8576187,25.8328407 25.1894087,26.4173107 C24.5300597,26.9940507 23.6973337,27.1946607 22.9159697,27.1946607 L3.6659697,27.1946607 C1.8022967,27.1946607 0.2636267,25.7297607 0.2636267,23.8333307 L0.2636267,4.6321587 C0.2636267,2.7361597 1.7981907,1.2630177 3.6659697,1.2630177 Z" id="rect5179-3-1-7-4-3-8-3-9" fill="#FFFFFF" fill-rule="nonzero" opacity="0.02999998"></path>
            <path d="M3.6659697,1.1302047 C1.7284377,1.1302047 0.1327667,2.6625877 0.1327667,4.6302047 L0.1327667,23.8313807 C0.1327667,25.7995907 1.7326847,27.3274707 3.6659697,27.3274707 L22.9159697,27.3274707 C23.7200967,27.3274707 24.5879467,27.1179407 25.2772987,26.5149707 C25.9790487,25.9011507 26.3261287,24.9698507 26.3261287,24.0559907 L26.3261287,4.4661427 C26.3261287,2.4984067 24.5986307,1.1302047 22.8105007,1.1302047 L3.6659697,1.1302047 Z M3.6659697,1.3958297 L22.8105007,1.3958297 C24.4640517,1.3958297 26.0624587,2.6534987 26.0624587,4.4661427 L26.0624587,24.0559907 C26.0624587,24.9025207 25.7375387,25.7611407 25.1034687,26.3157507 C24.4741137,26.8662407 23.6743637,27.0618407 22.9159697,27.0618407 L3.6659697,27.0618407 C1.8714757,27.0618407 0.3964387,25.6565207 0.3964387,23.8313807 L0.3964387,4.6302047 C0.3964387,2.8053027 1.8673257,1.3958297 3.6659697,1.3958297 Z" id="rect5179-3-1-7-4-3-8-3" fill="#FFFFFF" fill-rule="nonzero" opacity="0.06000001"></path>
            <path d="M3.6679227,1.2630177 C1.7998357,1.2630177 0.2636267,2.7339417 0.2636267,4.6302047 L0.2636267,23.8313807 C0.2636267,25.7280507 1.8040327,27.1946607 3.6679227,27.1946607 L22.9179227,27.1946607 C23.6991777,27.1946607 24.5300657,26.9921007 25.1894087,26.4153607 C25.8573187,25.8311507 26.1952687,24.9361807 26.1952687,24.0559907 L26.1952687,4.4661427 C26.1952687,2.5759507 24.5332917,1.2630177 22.8124547,1.2630177 L3.6679227,1.2630177 Z M3.6679227,1.5286427 L22.8124547,1.5286427 C24.3991367,1.5286427 25.9296387,2.7312927 25.9296387,4.4661427 L25.9296387,24.0559907 C25.9296387,24.8684107 25.6152887,25.6915807 25.0155787,26.2161407 C24.4162527,26.7403807 23.6536887,26.9290307 22.9179227,26.9290307 L3.6679227,26.9290307 C1.9421237,26.9290307 0.5292507,25.5853607 0.5292507,23.8313807 L0.5292507,4.6302047 C0.5292507,2.8762507 1.9380107,1.5286427 3.6679227,1.5286427 L3.6679227,1.5286427 Z" id="rect5179-3-1-7-4-3-8" fill="#FFFFFF" fill-rule="nonzero" opacity="0.08999999"></path>
            <path d="M3.6679227,1.3977827 C1.8689227,1.3977827 0.3964387,2.8050867 0.3964387,4.6302047 L0.3964387,23.8333307 C0.3964387,25.6586607 1.8730777,27.0618407 3.6679227,27.0618407 L22.9179227,27.0618407 C23.6764417,27.0618407 24.4741287,26.8662407 25.1034687,26.3157507 C25.7372887,25.7613607 26.0604987,24.9023007 26.0604987,24.0559907 L26.0604987,4.4680957 C26.0604987,2.6555697 24.4662127,1.3977827 22.8124547,1.3977827 L3.6679227,1.3977827 Z M3.6679227,1.6614547 L22.8124547,1.6614547 C24.3324357,1.6614547 25.7968287,2.8111997 25.7968287,4.4680957 L25.7968287,24.0559907 C25.7968287,24.8342307 25.4943887,25.6225607 24.9296387,26.1165307 C24.3604347,26.6144207 23.6312647,26.7962207 22.9179227,26.7962207 L3.6679227,26.7962207 C2.0102277,26.7962207 0.6620637,25.5167007 0.6620637,23.8333307 L0.6620637,4.6302047 C0.6620637,2.9466427 2.0061717,1.6614547 3.6679227,1.6614547 L3.6679227,1.6614547 Z" id="rect5179-3-1-7-4-3" fill="#FFFFFF" fill-rule="nonzero" opacity="0.12000002"></path>
            <path d="M3.6674367,1.5291667 C1.9370617,1.5291667 0.5291647,2.8755867 0.5291647,4.6299267 L0.5291647,23.8325807 C0.5291647,25.5869307 1.9411677,26.9291807 3.6674367,26.9291807 L22.9180047,26.9291807 C23.6539347,26.9291807 24.4171647,26.7406907 25.0164387,26.2165007 C25.6157187,25.6923207 25.9291687,24.8678407 25.9291687,24.0555607 L25.9291687,4.4673977 C25.9291687,2.7326867 24.3986047,1.5291667 22.8117247,1.5291667 L3.6674367,1.5291667 Z M3.6674367,4.0693767 L22.8117247,4.0693767 C23.1609247,4.0693767 23.3889547,4.2821477 23.3889547,4.4673977 L23.3889547,24.0555607 C23.3889547,24.3191307 23.3531547,24.2968207 23.3430547,24.3056107 C23.3330547,24.3146107 23.2252147,24.3889107 22.9179547,24.3889107 L3.6674367,24.3889107 C3.4576107,24.3889107 3.0693727,23.9980707 3.0693727,23.8325207 L3.0693727,4.6298967 C3.0693727,4.4642767 3.4616987,4.0693467 3.6674367,4.0693467 L3.6674367,4.0693767 Z" id="rect5179-3-1-7-4" fill-opacity="0.25" fill="#000000" fill-rule="nonzero"></path>
            <path d="M3.6672497,2.7993967 C2.6991937,2.7993967 1.7987377,3.6708067 1.7987377,4.6307867 L1.7987377,23.8329907 C1.7987377,24.7929407 2.6992027,25.6596507 3.6672497,25.6596507 L22.9187347,25.6596507 C23.9619147,25.6596507 24.6589887,25.1316207 24.6589887,24.0557607 L24.6589887,4.4667567 C24.6589887,3.5067767 23.7807747,2.7993967 22.8127447,2.7993967 L3.6672497,2.7993967 Z" id="rect5179-3-1-7-5" fill="#DAD3D0" fill-rule="nonzero"></path>
            <path d="M3.6672497,2.7993967 C2.6991937,2.7993967 1.7987377,3.6708067 1.7987377,4.6307867 L1.7987377,23.8329907 C1.7987377,24.7929407 2.6992027,25.6596507 3.6672497,25.6596507 L22.9187347,25.6596507 C23.9619147,25.6596507 24.6589887,25.1316207 24.6589887,24.0557607 L24.6589887,4.4667567 C24.6589887,3.5067767 23.7807747,2.7993967 22.8127447,2.7993967 L3.6672497,2.7993967 Z M5.0713337,6.1090867 L7.9024537,6.1090867 C7.9076537,6.1090867 7.9132937,6.1130867 7.9132937,6.1190867 L7.9132937,8.8267067 C7.9132937,8.8317067 7.9075937,8.8374067 7.9024537,8.8374067 L5.0713337,8.8374067 C5.0648337,8.8374067 5.0611937,8.8334067 5.0611937,8.8267067 L5.0611937,6.1190877 C5.0611937,6.1140877 5.0661937,6.1090877 5.0713337,6.1090877 L5.0713337,6.1090867 Z M18.6686747,5.9855967 L21.3971947,5.9855967 C21.4021947,5.9855967 21.4080947,5.9895967 21.4080947,5.9962967 L21.4080947,14.2425857 C21.4080947,14.2475857 21.4030947,14.2534857 21.3971947,14.2534857 L18.6686747,14.2534857 C18.6636747,14.2534857 18.6585747,14.2484857 18.6585747,14.2425857 L18.6585747,5.9962967 C18.6585747,5.9912967 18.6635747,5.9855967 18.6686747,5.9855967 Z M10.5769647,6.1097767 C12.3532247,6.1097267 14.1294747,6.1097367 15.9057347,6.1097767 C15.9107347,6.1097767 15.9165347,6.1137767 15.9165347,6.1204767 L15.9165347,14.2432657 C15.9165347,14.2482657 15.9125347,14.2541657 15.9057347,14.2541657 L5.0591837,14.2541657 C5.0526837,14.2541657 5.0490437,14.2491657 5.0490437,14.2432657 L5.0490437,11.5444767 C5.0490437,11.5394767 5.0591837,11.5337767 5.0591837,11.5337767 L13.1664147,11.5337767 L13.1664147,8.8369667 L10.5769647,8.8369667 C10.5699647,8.8369667 10.5667647,8.8319667 10.5667647,8.8260667 L10.5667647,6.1191277 L10.5769647,6.1091277 L10.5769647,6.1097767 Z M21.3978647,17.0334757 C21.4038647,17.0334757 21.4087647,17.0394757 21.4087647,17.0449757 L21.4087647,22.4734807 L18.6593247,22.4734807 L18.6593247,19.7132357 C18.6593247,19.7192357 18.6553247,19.7241357 18.6485247,19.7241357 L15.8174047,19.7241357 C15.8124047,19.7241357 15.8072047,19.7191357 15.8072047,19.7132357 L15.8072047,17.0443057 C15.8072047,17.0393057 15.8122047,17.0336057 15.8174047,17.0336057 L21.3978647,17.0334757 Z M5.0591837,17.0341657 L7.8882777,17.0341657 C7.8947777,17.0341657 7.8991177,17.0391657 7.8991177,17.0448657 L7.8991177,19.7137857 L10.4635947,19.7137857 L10.4635947,17.0448557 C10.4635947,17.0398557 10.4685947,17.0341557 10.4737947,17.0341557 L13.3049147,17.0341557 C13.3119147,17.0341557 13.3157147,17.0391557 13.3157147,17.0448557 C13.3157147,18.9190257 13.3087147,20.5887657 13.3157147,22.4632407 C13.3157147,22.4682407 13.3117147,22.4741407 13.3049147,22.4741407 L5.0592977,22.4741407 C5.0540977,22.4741407 5.0490577,22.4701407 5.0490577,22.4632407 C5.0490577,20.5897857 5.0555577,18.9198857 5.0490577,17.0448557 L5.0592977,17.0341557 L5.0591837,17.0341657 Z" id="rect5179-3-1-7" fill="url(#linearGradient-1)" fill-rule="nonzero"></path>
            <path d="M5.4829527,6.1071567 C5.4816527,6.1071567 5.3157667,6.1398567 5.3145657,6.1403567 C5.3133657,6.1408597 5.1854007,6.2261567 5.1844467,6.2270567 C5.1834947,6.2279567 5.0905867,6.3610567 5.0900467,6.3622867 C5.0894907,6.3632867 5.0517767,6.5368867 5.0517767,6.5383267 L5.0517767,8.7690167 C5.0517767,8.8149167 5.0793867,8.9157767 5.0798367,8.9170067 C5.0802867,8.9180067 5.1682767,9.0640567 5.1691367,9.0649767 C5.1700097,9.0659027 5.3209557,9.1665467 5.3222157,9.1670767 C5.3228507,9.1673367 5.4031457,9.1924767 5.4038557,9.1925767 C5.4045697,9.1927167 5.4583657,9.1995767 5.4829457,9.1995767 L7.4915277,9.1995767 C7.4915277,9.1995767 7.6509987,9.1668767 7.6522607,9.1663767 C7.6535607,9.1658737 7.7788007,9.0907767 7.7798327,9.0898767 C7.7808327,9.0889507 7.8787327,8.9609867 7.8793327,8.9597567 C7.8799417,8.9587567 7.9227127,8.7697767 7.9227127,8.7683367 L7.9227127,6.5376467 C7.9227127,6.5366467 7.8799427,6.3475167 7.8793427,6.3462867 C7.8787337,6.3452867 7.7808727,6.2170867 7.7798427,6.2161767 C7.7788427,6.2152767 7.6535387,6.1375767 7.6522707,6.1370767 C7.6509707,6.1365737 7.4928437,6.1064767 7.4915367,6.1064767 L5.4829527,6.1071567 Z M10.9975747,6.1071567 L10.9874747,6.1091567 C10.9864747,6.1092167 10.8585647,6.1367567 10.8573547,6.1372567 C10.8563547,6.1377057 10.7333047,6.2078567 10.7323447,6.2087567 C10.7313947,6.2095507 10.6257547,6.3453977 10.6251947,6.3465277 C10.6246347,6.3475277 10.5792947,6.5339177 10.5792947,6.5353277 L10.5792947,8.7685777 C10.5792947,8.8144777 10.6043947,8.9076077 10.6047947,8.9088977 C10.6052447,8.9098977 10.6855947,9.0507777 10.6863947,9.0517677 C10.6872647,9.0527677 10.8331047,9.1609077 10.8343747,9.1614777 C10.8353747,9.1620337 11.0104147,9.1971777 11.0104147,9.1971777 L13.1733947,9.1971777 L13.1733947,11.5368867 L5.4810287,11.5368867 C5.4797287,11.5368867 5.3163907,11.5695867 5.3151907,11.5700867 C5.3139907,11.5705887 5.1834677,11.6559867 5.1825217,11.6567867 C5.1815687,11.6577127 5.0886617,11.7907867 5.0881217,11.7920067 C5.0875657,11.7930067 5.0524117,11.9655067 5.0524117,11.9655067 L5.0524117,14.1180147 C5.0524117,14.1190147 5.0749317,14.2596247 5.0753717,14.2608847 C5.0758207,14.2618847 5.1510517,14.3950747 5.1519017,14.3961047 C5.1527757,14.3971047 5.2935157,14.5052047 5.2947767,14.5058057 C5.2960767,14.5064147 5.4810247,14.5491057 5.4810247,14.5491057 L15.4869947,14.5491057 C15.4869947,14.5491057 15.6668147,14.5089057 15.6681447,14.5082057 C15.6691447,14.5075957 15.8024147,14.4097057 15.8033647,14.4087057 C15.8043147,14.4077057 15.8870647,14.2798557 15.8875647,14.2785847 C15.8880647,14.2775847 15.9181647,14.1191547 15.9181647,14.1178547 L15.9181647,6.5376757 C15.9181647,6.5376757 15.8753647,6.3475567 15.8747647,6.3463157 C15.8741547,6.3453157 15.7737347,6.2171157 15.7727047,6.2162057 C15.7717047,6.2153057 15.6463947,6.1376057 15.6451247,6.1371057 C15.6441247,6.1366037 15.4882547,6.1065057 15.4869447,6.1065057 C13.7106847,6.1064757 12.7865747,6.1064657 11.0103147,6.1065057 L10.9975747,6.1071567 Z M19.1006147,5.9836467 C19.0996147,5.9836467 18.9385347,6.0162467 18.9373247,6.0168467 C18.9363247,6.0173497 18.8056047,6.1026467 18.8046647,6.1035467 C18.8037047,6.1044457 18.7082647,6.2375367 18.7076647,6.2387667 C18.7071047,6.2397667 18.6719647,6.4133367 18.6719647,6.4148067 L18.6719647,14.1184757 C18.6719647,14.1194757 18.7071647,14.2881557 18.7076647,14.2894157 C18.7082147,14.2904157 18.7857647,14.4083057 18.7867647,14.4093357 C18.7877147,14.4103357 18.9066747,14.5012357 18.9066747,14.5012357 C18.9076747,14.5018457 19.1005747,14.5471357 19.1005747,14.5471357 L20.9664547,14.5471357 C20.9674547,14.5471357 21.1514447,14.5069357 21.1527047,14.5062357 C21.1537047,14.5056267 21.2376047,14.4543357 21.2700647,14.4220357 C21.3024647,14.3896357 21.3535647,14.3059457 21.3542647,14.3046847 C21.3548747,14.3036847 21.3951647,14.1197457 21.3951647,14.1184457 L21.3951647,6.4147667 C21.3951647,6.4137667 21.3523647,6.2246467 21.3517647,6.2234167 C21.3511547,6.2224167 21.2507247,6.0916567 21.2496547,6.0907467 C21.2486547,6.0898467 21.1220847,6.0142467 21.1220847,6.0142467 C21.1210847,6.0137437 20.9664547,5.9836467 20.9664547,5.9836467 L19.1006147,5.9836467 Z M5.5023437,6.8230467 L7.5153467,6.8230467 L7.5153467,8.8360477 L5.5023437,8.8360477 L5.5023437,6.8230467 Z M11.0081247,6.8230467 C12.5121547,6.8230177 14.0148447,6.8230267 15.5188847,6.8230467 L15.5188847,14.2525367 L5.4895877,14.2525367 L5.4895877,12.2395267 L13.6079347,12.2395267 L13.6079347,8.8360477 L11.0081247,8.8360477 L11.0081247,6.8230467 Z M19.1009547,6.8230467 L21.0119047,6.8230467 L21.0119047,14.2525367 L19.1009547,14.2525367 L19.1009547,6.8230467 Z M5.4809977,17.0378057 C5.4796977,17.0378057 5.3024037,17.0761057 5.3024037,17.0761057 C5.3024037,17.0761057 5.1783327,17.1619057 5.1773927,17.1628057 C5.1764407,17.1637567 5.0911927,17.2891757 5.0906427,17.2903767 C5.0900867,17.2913767 5.0523727,17.4664267 5.0523727,17.4664267 L5.0523727,17.4684267 C5.0588727,19.3415357 5.0523727,20.4868467 5.0523727,22.3612607 C5.0523727,22.3622607 5.0849927,22.5232207 5.0855427,22.5245507 C5.0860987,22.5255507 5.1764427,22.6639207 5.1773827,22.6648707 C5.1783357,22.6658207 5.3139547,22.7561707 5.3151547,22.7567707 C5.3163547,22.7572707 5.4796847,22.7899707 5.4809917,22.7899707 L12.9148747,22.7899707 C12.9168747,22.7899707 13.0921447,22.7522707 13.0934647,22.7516707 C13.0944647,22.7510607 13.2302847,22.6531707 13.2312347,22.6521707 C13.2321847,22.6511707 13.3123347,22.5207707 13.3128347,22.5195107 C13.3133347,22.5185107 13.3460347,22.3626307 13.3460347,22.3613207 L13.3460347,22.3593207 C13.3400347,20.4867757 13.3460347,19.3107657 13.3460347,17.4356157 C13.3460347,17.4346157 13.3108347,17.2709757 13.3103347,17.2697757 C13.3098347,17.2687757 13.2194347,17.1329457 13.2185347,17.1319957 C13.2175847,17.1310457 13.0795347,17.0406957 13.0782147,17.0400957 C13.0772147,17.0395657 12.9149247,17.0380957 12.9149247,17.0380957 L10.8841847,17.0380957 C10.8841847,17.0380957 10.7093347,17.0758957 10.7081347,17.0763957 C10.7071347,17.0769557 10.5815147,17.1621957 10.5805647,17.1630957 C10.5796147,17.1640457 10.4943647,17.2894757 10.4938647,17.2906657 C10.4933047,17.2916657 10.4555647,17.4667157 10.4555647,17.4667157 L10.4555647,19.7126657 L7.9398647,19.7126657 L7.9398647,17.4667157 C7.9398647,17.4657157 7.9072047,17.3020757 7.9066947,17.3008757 C7.9061917,17.2998757 7.8157947,17.1640557 7.8148547,17.1631057 C7.8139017,17.1621557 7.6758537,17.0718057 7.6745307,17.0712057 C7.6732307,17.0706557 7.5112457,17.0380057 7.5112457,17.0380057 L5.4809977,17.0378057 Z M16.2222147,17.0378057 C16.2222147,17.0378057 16.0448147,17.0756057 16.0436147,17.0761057 C16.0426147,17.0766357 15.9195447,17.1619057 15.9186047,17.1628057 C15.9176547,17.1637567 15.8298047,17.2891757 15.8293047,17.2903767 C15.8287447,17.2913767 15.7910047,17.4651267 15.7910047,17.4664267 L15.7910047,19.7336567 C15.7910047,19.7346567 15.8262047,19.9033367 15.8267047,19.9046067 C15.8272647,19.9056067 15.9048047,20.0234767 15.9058047,20.0245167 C15.9067547,20.0255167 16.0270647,20.1183167 16.0282647,20.1189167 C16.0292647,20.1195267 16.2208647,20.1649167 16.2221747,20.1649167 L18.6598247,20.1579167 L18.6558247,22.7911507 L21.4239347,22.7911507 L21.4239347,17.4696867 C21.4239347,17.4686867 21.3938347,17.3153767 21.3933347,17.3140567 C21.3928347,17.3130567 21.3202347,17.1901557 21.3194347,17.1890457 C21.3184847,17.1880457 21.1880847,17.0851257 21.1867647,17.0844857 C21.1857647,17.0838257 20.9928547,17.0385857 20.9928547,17.0385857 L16.2222147,17.0378057 Z M5.4895877,17.7095857 L7.5025897,17.7095857 L7.5025897,20.5492157 L10.9060747,20.5492157 L10.9060747,17.7095857 L12.9190747,17.7095857 C12.9183347,19.3032357 12.9150747,20.8769167 12.9190747,22.4729407 L5.4895877,22.4729407 C5.4903017,20.8797657 5.4936877,19.3059967 5.4895877,17.7095857 L5.4895877,17.7095857 Z M16.2485647,17.7095857 L21.0119047,17.7095857 L21.0119047,22.4729407 L19.0984047,22.4729407 C19.0914047,21.5244657 19.0904047,20.1410057 19.0904047,20.1410057 L19.0904047,19.7225967 L16.2482147,19.7225967 L16.2485647,17.7095857 Z" id="rect5179-3-1-7-2" fill="#000000" fill-rule="nonzero" opacity="0.18999999"></path>
            <path d="M5.0987307,22.7964607 L13.3842447,22.8034607 C13.3922447,22.8034807 13.3982447,22.8054607 13.3982447,22.8134607 L13.3977147,23.2899107 C13.3977047,23.2939107 13.3917147,23.2999107 13.3837147,23.2999107 L5.0982017,23.2929107 C5.0902017,23.2929107 5.0841817,23.2909107 5.0841817,23.2829107 L5.0847117,22.8064507 C5.0847167,22.8024507 5.0910117,22.7964507 5.0987317,22.7964507 L5.0987307,22.7964607 Z" id="rect1345-8-8-8-1-3-7-5-2" fill="#FFFFFF" opacity="0.6"></path>
            <path d="M18.6592047,22.7915607 L21.4191447,22.7985607 C21.4211447,22.7985707 21.4231447,22.8005607 21.4231447,22.8085607 L21.4229747,23.2849907 C21.4229747,23.2889907 21.4209747,23.2949907 21.4189747,23.2949907 L18.6590247,23.2879907 C18.6560247,23.2879907 18.6540247,23.2859907 18.6540247,23.2779907 L18.6542047,22.8015507 C18.6542047,22.7975507 18.6562047,22.7915507 18.6592047,22.7915507 L18.6592047,22.7915607 Z" id="rect1345-8-8-8-1-3-7-5-2-5" fill="#FFFFFF" opacity="0.6"></path>
            <path d="M15.8956847,20.1387057 L18.6556347,20.1457057 C18.6586347,20.1457267 18.6606347,20.1477057 18.6606347,20.1557057 L18.6604547,20.6321557 C18.6604547,20.6361557 18.6584547,20.6421557 18.6554547,20.6421557 L15.8955147,20.6351557 C15.8925147,20.6351557 15.8905147,20.6331557 15.8905147,20.6251557 L15.8906847,20.1486957 C15.8906947,20.1446957 15.8926847,20.1386957 15.8956847,20.1386957 L15.8956847,20.1387057 Z" id="rect1345-8-8-8-1-3-7-5-2-5-1" fill="#FFFFFF" opacity="0.6"></path>
            <path d="M18.7788547,14.5471267 L21.2418947,14.5541267 C21.2438947,14.5541467 21.2458947,14.5561267 21.2458947,14.5641267 L21.2457347,15.0405567 C21.2457347,15.0445567 21.2437347,15.0505567 21.2417347,15.0505567 L18.7786847,15.0435567 C18.7766847,15.0435567 18.7746847,15.0415567 18.7746847,15.0335567 L18.7748447,14.5571067 C18.7748447,14.5531067 18.7768447,14.5471067 18.7788447,14.5471067 L18.7788547,14.5471267 Z" id="rect1345-8-8-8-1-3-7-5-2-5-1-0" fill="#FFFFFF" opacity="0.6"></path>
            <path d="M5.2749547,14.5505367 L15.7198847,14.5575367 C15.7298847,14.5575567 15.7376847,14.5595367 15.7376847,14.5675367 L15.7370247,15.0439867 C15.7370147,15.0479867 15.7290247,15.0539867 15.7192247,15.0539867 L5.2742817,15.0469867 C5.2643817,15.0469867 5.2564817,15.0449867 5.2564817,15.0369867 L5.2571437,14.5605267 C5.2571477,14.5565267 5.2651437,14.5505267 5.2749437,14.5505267 L5.2749547,14.5505367 Z" id="rect1345-8-8-8-1-3-7-5-2-5-1-3" fill="#FFFFFF" opacity="0.6"></path>
            <path d="M5.1207027,9.2150167 L7.7299517,9.2220167 C7.7324517,9.2220367 7.7344517,9.2240167 7.7344517,9.2320167 L7.7342887,9.7084677 C7.7342867,9.7124677 7.7323887,9.7184677 7.7297887,9.7184677 L5.1205387,9.7114677 C5.1180387,9.7114677 5.1160387,9.7094677 5.1160387,9.7014677 L5.1162027,9.2250067 C5.1162057,9.2210067 5.1181027,9.2150067 5.1207027,9.2150067 L5.1207027,9.2150167 Z" id="rect1345-8-8-8-1-3-7-5-2-5-1-3-4" fill="#FFFFFF" opacity="0.6"></path>
            <path d="M10.6935747,9.1718167 L13.1521347,9.1788167 C13.1541347,9.1788267 13.1561347,9.1808167 13.1561347,9.1888167 L13.1559847,9.6652567 C13.1559747,9.6692567 13.1539847,9.6752567 13.1519847,9.6752567 L10.6934147,9.6682567 C10.6914147,9.6682567 10.6894147,9.6662567 10.6894147,9.6582567 L10.6895747,9.1818067 C10.6895747,9.1778067 10.6915747,9.1718067 10.6935747,9.1718067 L10.6935747,9.1718167 Z" id="rect1345-8-8-8-1-3-7-5-2-5-1-3-4-2" fill="#FFFFFF" opacity="0.6"></path>
            <path d="M3.8299767,2.8003177 C2.7641347,2.8003177 1.8023937,3.7306577 1.8023937,4.7945577 L1.8023937,23.7096407 C1.8023937,24.7735007 2.7647567,25.6976207 3.8299767,25.6976207 L22.7596347,25.6976207 C23.3045647,25.6976207 23.7831247,25.5610007 24.1266347,25.2600107 C24.4701547,24.9590307 24.6621887,24.4991707 24.6621887,23.9284407 L24.6621887,4.6341067 C24.6621887,3.5731267 23.6998247,2.8003177 22.6554447,2.8003177 L3.8299767,2.8003177 Z M3.8299767,3.1795777 L22.6554447,3.1795777 C23.5149047,3.1795777 24.2829247,3.8038377 24.2829247,4.6341077 L24.2829247,23.9284407 C24.2829247,24.4174807 24.1322547,24.7505107 23.8765747,24.9745307 C23.6208947,25.1985607 23.2405247,25.3204407 22.7596347,25.3204407 L3.8299767,25.3204407 C2.9913247,25.3204407 2.1816547,24.5369407 2.1816547,23.7096407 L2.1816547,4.7945567 C2.1816547,3.9672067 2.9919277,3.1795767 3.8299767,3.1795777 L3.8299767,3.1795777 Z" id="rect5179-3-1-7-7" fill="#FFFFFF" fill-rule="nonzero" opacity="0.6"></path>
        </g>
    </g>
</svg>