<?xml version="1.0" encoding="UTF-8" standalone="no"?>
<!-- Generator: Adobe Illustrator 19.2.1, SVG Export Plug-In . SVG Version: 6.00 Build 0)  -->

<svg
   xmlns:dc="http://purl.org/dc/elements/1.1/"
   xmlns:cc="http://creativecommons.org/ns#"
   xmlns:rdf="http://www.w3.org/1999/02/22-rdf-syntax-ns#"
   xmlns:svg="http://www.w3.org/2000/svg"
   xmlns="http://www.w3.org/2000/svg"
   xmlns:sodipodi="http://sodipodi.sourceforge.net/DTD/sodipodi-0.dtd"
   xmlns:inkscape="http://www.inkscape.org/namespaces/inkscape"
   version="1.1"
   id="svg1948"
   inkscape:version="0.92.0 r15299"
   sodipodi:docname="backup.svg"
   x="0px"
   y="0px"
   viewBox="0 0 82.8 100"
   style="enable-background:new 0 0 82.8 100;"
   xml:space="preserve"><metadata
   id="metadata31"><rdf:RDF><cc:Work
       rdf:about=""><dc:format>image/svg+xml</dc:format><dc:type
         rdf:resource="http://purl.org/dc/dcmitype/StillImage" /><dc:title></dc:title></cc:Work></rdf:RDF></metadata><defs
   id="defs29" />
<style
   type="text/css"
   id="style2">
	.st0{fill:#020101;stroke:#000000;stroke-miterlimit:10;}
	.st1{opacity:8.999999e-002;fill:#FFFFFF;enable-background:new    ;}
	.st2{opacity:2.999998e-002;fill:#FFFFFF;enable-background:new    ;}
	.st3{opacity:0.12;fill:#FFFFFF;enable-background:new    ;}
	.st4{fill:#DAD3D0;}
	.st5{fill:url(#rect5179-3-5-9-4-8_1_);}
	.st6{opacity:0.19;enable-background:new    ;}
	.st7{opacity:0.6;fill:#FFFFFF;enable-background:new    ;}
	.st8{opacity:6.000001e-002;fill:#FFFFFF;enable-background:new    ;}
	.st9{opacity:0.6;fill:none;stroke:#FFFFFF;stroke-width:0.3243;enable-background:new    ;}
	.st10{fill:#686161;}
</style>
<sodipodi:namedview
   bordercolor="#666666"
   borderopacity="1.0"
   fit-margin-bottom="0"
   fit-margin-left="0"
   fit-margin-right="0"
   fit-margin-top="0"
   id="base"
   inkscape:current-layer="g4738"
   inkscape:cx="73.92377"
   inkscape:cy="33.126915"
   inkscape:document-units="mm"
   inkscape:lockguides="true"
   inkscape:measure-end="7.77817,79.881"
   inkscape:measure-start="7.47986,79.881"
   inkscape:pageopacity="0.0"
   inkscape:pageshadow="2"
   inkscape:window-height="706"
   inkscape:window-maximized="1"
   inkscape:window-width="1366"
   inkscape:window-x="-8"
   inkscape:window-y="-8"
   inkscape:zoom="2.8284271"
   pagecolor="#ffffff"
   showgrid="false"
   units="px">
	</sodipodi:namedview>

<g
   id="layer1"
   transform="translate(-27.96357,-111.02968)"
   inkscape:groupmode="layer"
   inkscape:label="Layer 1">
	<g
   id="g4738"
   transform="translate(0,11.973597)">
		<path
   style="color:#000000;font-style:normal;font-variant:normal;font-weight:normal;font-stretch:normal;font-size:medium;line-height:normal;font-family:sans-serif;font-variant-ligatures:normal;font-variant-position:normal;font-variant-caps:normal;font-variant-numeric:normal;font-variant-alternates:normal;font-feature-settings:normal;text-indent:0;text-align:start;text-decoration:none;text-decoration-line:none;text-decoration-style:solid;text-decoration-color:#000000;letter-spacing:normal;word-spacing:normal;text-transform:none;writing-mode:lr-tb;direction:ltr;text-orientation:mixed;dominant-baseline:auto;baseline-shift:baseline;text-anchor:start;white-space:normal;shape-padding:0;clip-rule:nonzero;display:inline;overflow:visible;visibility:visible;opacity:0.02999998;isolation:auto;mix-blend-mode:normal;color-interpolation:sRGB;color-interpolation-filters:linearRGB;solid-color:#000000;solid-opacity:1;vector-effect:none;fill:#ffffff;fill-opacity:1;fill-rule:nonzero;stroke:none;stroke-width:1;stroke-linecap:butt;stroke-linejoin:miter;stroke-miterlimit:4;stroke-dasharray:none;stroke-dashoffset:0;stroke-opacity:1;color-rendering:auto;image-rendering:auto;shape-rendering:auto;text-rendering:auto;enable-background:accumulate"
   d="m 69.451172,98.998047 -3.607422,0.09961 c -7.023696,0.104273 -16.312694,1.297424 -23.392578,3.117184 h -0.242188 l -0.242187,0.1211 c -3.492264,1.00521 -6.734918,2.13624 -9.484375,4.0039 -1.272788,0.84985 -2.249493,1.81049 -2.939453,2.93164 l 0.109375,-0.125 -0.03906,0.0312 -0.18164,0.20313 -0.05469,0.0977 -0.0078,0.01 -0.0332,0.0625 c -0.976649,1.81379 -0.98685,3.79147 -1.021485,4.50586 l -0.01563,0.0742 v 0.1582 c -0.0082,0.47905 0,1.23047 0,1.23047 C 28.25126,150.51017 28.184982,155.60006 28,185.68164 v 0.004 0.002 0.002 0.002 c 0,1.98548 0.917909,3.91052 2.662109,5.11328 l -0.02539,0.0254 0.08398,0.0898 0.111328,0.0723 0.0059,0.004 0.04883,0.0332 0.0332,0.0156 0.02734,0.0156 0.02539,0.0117 c 11.692176,6.75563 25.821256,8.13021 39.142578,8.02929 14.544478,-0.003 25.62043,-2.79616 37.884766,-8.16797 l 0.082,-0.0352 0.0547,-0.0352 -0.0449,0.0254 c 1.12124,-0.56063 1.74995,-1.57147 2.1289,-2.48437 0.38374,-0.92446 0.57813,-1.92855 0.57813,-2.9043 v -0.002 -0.004 -0.002 -0.002 c -0.1,-24.88583 3.7e-4,-49.87943 -0.0996,-71.29101 0,-1.96746 -0.24754,-3.55024 -1.0332,-4.90234 -0.78428,-1.34981 -1.95837,-2.23039 -3.28907,-3.08204 -2.69324,-1.72368 -5.85012,-2.96829 -9.507809,-3.99414 l -0.04687,-0.0254 -0.101563,-0.0273 -0.173828,-0.0527 h -0.08203 C 90.841838,100.60415 84.129573,99.606682 76.634766,99.205078 l -0.02734,-0.0059 h -0.06445 -0.02148 C 74.242653,99.100105 71.933696,98.998047 69.5,98.998047 h -0.01172 -0.01367 -0.01563 z m 0.01367,1 h 0.01367 0.0098 H 69.5 c 2.420271,0 4.728288,0.103413 7.021484,0.203123 v -0.002 h 0.002 l 0.02734,0.002 c 7.486511,0.39929 14.180368,1.39488 19.740235,2.89649 l 0.0625,0.0176 h 0.04687 l 0.04687,0.0137 0.002,0.002 0.02344,0.0117 0.05273,0.0156 c 3.632019,1.01341 6.714239,2.2375 9.312499,3.90039 1.29159,0.82662 2.30149,1.60192 2.96289,2.74024 0.66144,1.13831 0.89844,2.51716 0.89844,4.40039 v 0.002 c 0.1,21.40463 -3.9e-4,46.39979 0.0996,71.29102 v 0.002 0.004 0.002 c 0,0.84099 -0.17089,1.72392 -0.50195,2.52148 -0.32909,0.79276 -0.82911,1.56103 -1.65235,1.97266 l -0.0234,0.0117 -0.01,0.006 -0.01,0.006 c -12.18068,5.33535 -23.07052,8.08199 -37.490232,8.08398 h -0.002 -0.002 c -13.267156,0.10051 -27.237238,-1.28748 -38.6875,-7.92383 l -0.0039,-0.002 -0.01953,-0.01 c -0.0083,-0.007 -0.01775,-0.0135 -0.02734,-0.0215 -0.0087,-0.007 -0.0157,-0.0131 -0.02344,-0.0195 C 29.778656,189.13268 29,187.45354 29,185.69141 v -0.002 -0.002 -0.004 c 0.184969,-30.07886 0.25126,-35.17218 0.298828,-70.16992 v -0.002 -0.004 c 0,0 -0.0079,-0.76162 0,-1.20898 v -0.006 -0.0547 l 0.0078,-0.0332 0.002,-0.0391 c 0.04044,-0.76679 0.06458,-2.56728 0.90625,-4.13477 0.001,-0.002 9.04e-4,-0.004 0.002,-0.006 l 0.03711,-0.0625 0.05273,-0.0586 0.04492,-0.0371 0.04297,-0.0723 c 0.603809,-0.98116 1.463838,-1.83591 2.646485,-2.625 l 0.002,-0.002 h 0.002 c 2.617523,-1.77805 5.774555,-2.89088 9.255859,-3.89063 l 0.04492,-0.0117 0.09961,-0.0508 h 0.113282 l 0.06055,-0.0156 c 6.987228,-1.80427 16.297794,-2.9991 23.246093,-3.10156 h 0.0039 z"
   id="rect5179-3-5-9-4-8-4-7-7-6-4-0"
   inkscape:connector-curvature="0" /><path
   style="color:#000000;font-style:normal;font-variant:normal;font-weight:normal;font-stretch:normal;font-size:medium;line-height:normal;font-family:sans-serif;font-variant-ligatures:normal;font-variant-position:normal;font-variant-caps:normal;font-variant-numeric:normal;font-variant-alternates:normal;font-feature-settings:normal;text-indent:0;text-align:start;text-decoration:none;text-decoration-line:none;text-decoration-style:solid;text-decoration-color:#000000;letter-spacing:normal;word-spacing:normal;text-transform:none;writing-mode:lr-tb;direction:ltr;text-orientation:mixed;dominant-baseline:auto;baseline-shift:baseline;text-anchor:start;white-space:normal;shape-padding:0;clip-rule:nonzero;display:inline;overflow:visible;visibility:visible;opacity:0.08999999;isolation:auto;mix-blend-mode:normal;color-interpolation:sRGB;color-interpolation-filters:linearRGB;solid-color:#000000;solid-opacity:1;vector-effect:none;fill:#ffffff;fill-opacity:1;fill-rule:nonzero;stroke:none;stroke-width:1;stroke-linecap:butt;stroke-linejoin:miter;stroke-miterlimit:4;stroke-dasharray:none;stroke-dashoffset:0;stroke-opacity:1;color-rendering:auto;image-rendering:auto;shape-rendering:auto;text-rendering:auto;enable-background:accumulate"
   d="m 69.478516,100 -3.607422,0.0996 c -6.976675,0.10236 -16.344385,1.30052 -23.341797,3.11719 h -0.08398 l -0.08398,0.043 c -3.50573,1.00431 -6.683376,2.11963 -9.316406,3.9082 -1.285677,0.85712 -2.222327,1.77129 -2.820313,2.84765 l -0.0059,0.01 c -0.8502,1.57895 -0.870888,3.42301 -0.912109,4.17188 l -0.0078,0.0371 v 0.0566 c -0.0082,0.44525 0,1.21875 0,1.21875 C 29.25126,150.51737 29.185008,155.60166 29,185.6875 v 0.004 0.002 c 0,1.77659 0.781133,3.46423 2.371094,4.45508 l 0.01563,0.0117 0.0332,0.0176 c 11.450241,6.63692 25.419975,8.02238 38.6875,7.92188 14.422009,-0.001 25.312096,-2.74608 37.494138,-8.08203 l 0.0137,-0.006 0.0312,-0.0176 c 0.82173,-0.41086 1.32341,-1.18219 1.65235,-1.97461 0.33058,-0.79644 0.5,-1.67913 0.5,-2.51953 v -0.002 -0.002 c -0.1,-24.89326 3.9e-4,-49.89089 -0.0996,-71.29687 0,-1.88341 -0.23497,-3.26194 -0.89649,-4.40039 -0.66126,-1.1381 -1.67361,-1.91581 -2.96484,-2.74219 -2.61461,-1.67334 -5.7104,-2.90501 -9.371093,-3.92187 h -0.0039 l -0.0625,-0.0176 h -0.02344 c -5.57507,-1.51303 -12.302642,-2.51486 -19.824219,-2.91602 h -0.0098 -0.02148 C 74.22852,100.10147 71.92046,100 69.5,100 h -0.01367 z m -39.253907,10.01562 0.07813,-0.10546 -0.05273,0.0547 z M 69.494141,101 h 0.01172 c 2.397745,1.7e-4 4.695943,0.10125 6.994141,0.20117 h 0.01172 c 7.495017,0.40045 14.190336,1.39887 19.6875,2.89844 3.600025,1.00001 6.599471,2.2007 9.099611,3.80078 1.25053,0.80034 2.10093,1.47489 2.63867,2.40039 0.53738,0.92481 0.76172,2.09851 0.76172,3.89844 v 0.002 c 0.1,21.39902 -3.9e-4,46.39823 0.0996,71.29688 v 0.002 c 0,0.70244 -0.14794,1.47204 -0.42383,2.13672 -0.27758,0.6687 -0.66359,1.20679 -1.17578,1.46289 l -0.0176,0.01 c -12.090354,5.2936 -22.788313,7.9897 -37.078124,7.99023 h -0.002 -0.002 c -13.200252,0.1 -26.998903,-1.29865 -38.199218,-7.79883 C 30.612366,188.49809 30,187.18621 30,185.69336 v -0.004 c 0.184995,-30.08311 0.25126,-35.16888 0.298828,-70.18359 v -0.004 -0.002 c 0,0 -0.0069,-0.75303 0,-1.16797 v -0.004 l 0.002,-0.0273 c 0.046,-0.79238 0.09569,-2.49346 0.796875,-3.79883 3.91e-4,-7.3e-4 0.0016,-0.001 0.002,-0.002 0.499755,-0.89955 1.300339,-1.70022 2.5,-2.5 l 0.002,-0.002 h 0.002 c 2.486569,-1.68997 5.569177,-2.78587 9.044922,-3.78125 h -0.01172 l 0.04687,-0.0117 c 0.0062,-0.002 0.01133,-0.004 0.01758,-0.006 l 0.04687,-0.0137 -0.01953,0.01 c 6.895656,-1.7957 16.27315,-2.99512 23.164062,-3.0957 h 0.0039 z"
   id="rect5179-3-5-9-4-8-4-7-7-6-4-4"
   inkscape:connector-curvature="0" /><path
   style="color:#000000;font-style:normal;font-variant:normal;font-weight:normal;font-stretch:normal;font-size:medium;line-height:normal;font-family:sans-serif;font-variant-ligatures:normal;font-variant-position:normal;font-variant-caps:normal;font-variant-numeric:normal;font-variant-alternates:normal;font-feature-settings:normal;text-indent:0;text-align:start;text-decoration:none;text-decoration-line:none;text-decoration-style:solid;text-decoration-color:#000000;letter-spacing:normal;word-spacing:normal;text-transform:none;writing-mode:lr-tb;direction:ltr;text-orientation:mixed;dominant-baseline:auto;baseline-shift:baseline;text-anchor:start;white-space:normal;shape-padding:0;clip-rule:nonzero;display:inline;overflow:visible;visibility:visible;opacity:0.12000002;isolation:auto;mix-blend-mode:normal;color-interpolation:sRGB;color-interpolation-filters:linearRGB;solid-color:#000000;solid-opacity:1;vector-effect:none;fill:#ffffff;fill-opacity:1;fill-rule:nonzero;stroke:none;stroke-width:1;stroke-linecap:butt;stroke-linejoin:miter;stroke-miterlimit:4;stroke-dasharray:none;stroke-dashoffset:0;stroke-opacity:1;color-rendering:auto;image-rendering:auto;shape-rendering:auto;text-rendering:auto;enable-background:accumulate"
   d="m 69.492597,100.49972 -3.607422,0.0996 c -6.950697,0.10145 -16.360012,1.3035 -23.312499,3.11719 h -0.0059 l -0.0039,0.002 c -3.516515,1.00473 -6.664857,2.11493 -9.240205,3.86523 -1.242669,0.82845 -2.111286,1.68587 -2.660156,2.67383 l -0.002,0.002 -0.0019,0.002 c -0.782103,1.45248 -0.813223,3.24848 -0.857422,4.00977 l -0.0019,0.01 v 0.01 c -0.0082,0.42514 0,1.21289 0,1.21289 -0.04757,35.01609 -0.113807,40.09759 -0.298828,70.18555 v 0.002 0.002 c 0,1.63472 0.695773,3.13448 2.134766,4.03125 l 0.0059,0.004 0.0078,0.004 c 11.327258,6.57385 25.217087,7.96747 38.455077,7.86719 14.360877,-5.3e-4 25.155977,-2.7231 37.296872,-8.04102 l 0.0117,-0.006 0.01,-0.006 c 0.66696,-0.33348 1.11081,-0.98819 1.41407,-1.71875 0.30324,-0.73056 0.46288,-1.5567 0.46288,-2.32812 v -0.002 c -0.1,-24.89663 4e-4,-49.89584 -0.0996,-71.29883 0,-1.84167 -0.23063,-3.11876 -0.83008,-4.15039 -0.5995,-1.0318 -1.52994,-1.75712 -2.80082,-2.57048 -2.55737,-1.63671 -5.605965,-2.85289 -9.236325,-3.86133 h -0.002 c -5.54524,-1.51268 -12.27646,-2.5149 -19.804905,-2.91642 h -0.002 -0.002 c -2.3,-0.1 -4.607596,-0.20117 -7.021485,-0.20117 z m 0.0078,1 c 2.384776,0 4.673952,0.0993 6.972656,0.19922 7.47001,0.3984 14.137452,1.3956 19.591802,2.88281 3.56963,0.99157 6.522195,2.175 8.964835,3.73829 1.22912,0.78664 1.99907,1.41209 2.47461,2.23046 0.47554,0.81838 0.69531,1.89011 0.69531,3.64844 v 0.002 c 0.1,21.39663 -4e-4,46.39811 0.0996,71.30079 -2.7e-4,0.62815 -0.14021,1.34949 -0.38672,1.94336 -0.24675,0.59444 -0.60446,1.04051 -0.9375,1.20703 -12.047945,5.27457 -22.647435,7.94727 -36.874993,7.94727 h -0.002 -0.002 c -13.157518,0.0997 -26.86283,-1.30604 -37.933593,-7.72657 -1.145538,-0.71505 -1.661062,-1.81344 -1.662109,-3.17578 v -0.004 c 0.185003,-30.08438 0.25126,-35.17279 0.298828,-70.19337 v -0.002 -0.004 c 0,0 -0.0068,-0.77205 0,-1.16602 0.04636,-0.79843 0.122986,-2.43865 0.738281,-3.58593 0.45113,-0.81204 1.182513,-1.55462 2.339844,-2.32618 l 0.002,-0.002 h 0.002 c 2.421637,-1.64649 5.468004,-2.73633 8.945424,-3.73032 6.845197,-1.78571 16.231451,-2.98473 23.080077,-3.08399 h 0.0039 0.002 z"
   id="rect5179-3-5-9-4-8-4-7-7-6"
   inkscape:connector-curvature="0" />
		
		
			
		<path
   id="rect5179-3-5-0-4"
   inkscape:connector-curvature="0"
   class="st4"
   d="M69.5,105.8c-9.2,0-17.6,1.1-23.8,2.8    c-3.1,0.9-5.6,1.9-7.5,3.1c-1.9,1.3-3.3,2.9-3.3,4.8c0,0.3,0,0.6,0.1,0.9c-0.2,21.9-0.3,43.6-0.3,65.6c0,0.4,0.2,0.9,0.6,1.2    c3.6,2.8,8.9,4.7,15,5.9c3,0.6,6.3,1.1,9.6,1.3c3.3,0.3,6.8,0.4,10.2,0.3c6.8-0.1,13.5-0.8,19.2-2c5.8-1.3,11.2-3,14.1-5.6    c0.3-0.3,0.5-0.7,0.5-1.1c0-21.9-0.1-43.8-0.1-65.7c0.1-0.3,0.1-0.5,0.1-0.8c0-1.9-1.4-3.5-3.3-4.8c-1.9-1.3-4.4-2.3-7.5-3.1    C87.1,106.9,78.7,105.8,69.5,105.8L69.5,105.8z" />
		
			<linearGradient
   id="rect5179-3-5-9-4-8_1_"
   gradientUnits="userSpaceOnUse"
   x1="960.2008"
   y1="-362.0157"
   x2="960.2008"
   y2="-7.9439"
   gradientTransform="matrix(0.1575 0 0 -0.1855 -81.8846 113.7127)">
			<stop
   offset="0"
   style="stop-color:#D8D0CD"
   id="stop11" />
			<stop
   offset="1"
   style="stop-color:#EDE6E3"
   id="stop13" />
		</linearGradient>
		<path
   id="rect5179-3-5-9-4-8"
   inkscape:connector-curvature="0"
   class="st5"
   d="m 69.5,105.8 c -9.2,0 -17.6,1.1 -23.8,2.8 -3.1,0.9 -5.6,1.9 -7.5,3.1 -1.9,1.3 -3.3,2.9 -3.3,4.8 0,0.3 -0.1,0.6 0,0.9 -0.0195,2.13568 -0.07064,4.26946 -0.08824,6.4018 -0.162893,19.7334 -0.222242,39.32153 -0.222242,59.1761 0,0.4 0.111169,0.84167 0.655242,1.24972 3.6,2.8 8.955243,4.67238 15.055243,5.87238 3,0.6 6.3,1.1 9.6,1.3 3.3,0.3 6.8,0.4 10.2,0.3 6.8,-0.1 13.5,-0.8 19.2,-2 5.8,-1.3 11.2,-3 14.1,-5.6 0.3,-0.3 0.5,-0.7 0.5,-1.1 0,-21.9 -0.1,-43.8 -0.1,-65.7 0.1,-0.3 0.1,-0.5 0.1,-0.8 0,-1.9 -1.4,-3.5 -3.3,-4.8 -1.9,-1.3 -4.4,-2.3 -7.5,-3.1 -6,-1.7 -14.4,-2.8 -23.6,-2.8 z m 0,4.5 c 7.4,0 14.1,0.9 19.1,2.5 2.5,0.8 4.5,1.7 6.1,2.8 1.5,1.1 2.6,2.5 2.6,4.3 0,1.7 -1.1,3.2 -2.6,4.3 -1.5,1.1 -3.6,2 -6.1,2.8 -5,1.5 -11.7,2.4 -19.1,2.4 -7.4,0 -14.2,-0.9 -19.1,-2.4 -2.5,-0.8 -4.5,-1.7 -6.1,-2.8 -1.5,-1.1 -2.6,-2.6 -2.6,-4.3 0,-1.7 1.1,-3.2 2.6,-4.3 1.5,-1.1 3.6,-2 6.1,-2.8 4.9,-1.5 11.7,-2.5 19.1,-2.5 z m -26.8,15.8 h 0.2 c 0.2,0 0.5,0 0.7,0.2 3.9,2.5 12.8,4.8 22.7,5.2 9.8,0.4 21.1,-1 29,-5.1 0.8,-0.4 2,0.3 2,1.2 v 12.8 c 0,0.4 -0.1,0.7 -0.4,1 -7.4,5.7 -17.9,6.8 -26.9,6.8 -9.2,0 -19.1,-0.9 -28,-6.8 -0.3,-0.2 -0.5,-0.7 -0.5,-1 v -12.9 -0.2 c 0,-0.5 0.5,-1.1 1.2,-1.2 z m 0,19.3 h 0.2 c 0.2,0 0.5,0 0.7,0.2 3.9,2.5 12.8,4.8 22.7,5.2 9.8,0.4 21.1,-1 29,-5.1 0.8,-0.4 2,0.3 2,1.2 v 12.8 c 0,0.4 -0.1,0.7 -0.4,1 -2.4,2.3 -6.8,3.9 -11.4,5 -4.6,1.1 -10,1.7 -15.5,1.8 -2.7,0 -5.5,-0.1 -8.2,-0.3 -2.7,-0.2 -5.3,-0.6 -7.7,-1.2 -4.9,-1.1 -9.2,-2.8 -12.1,-5.3 -0.3,-0.2 -0.5,-0.7 -0.5,-1 v -12.9 -0.1 c 0,-0.6 0.5,-1.2 1.2,-1.3 z m 0,19.3 h 0.2 c 0.2,0 0.5,0 0.7,0.2 3.9,2.5 12.8,4.8 22.7,5.2 9.8,0.4 21.1,-1 29,-5.1 0.8,-0.4 2,0.3 2,1.2 V 179 c 0,0.4 -0.1,0.7 -0.4,1 -2.4,2.3 -6.8,3.9 -11.4,5 -4.6,1.1 -10,1.7 -15.5,1.8 -2.7,0 -5.5,-0.1 -8.2,-0.3 -2.7,-0.2 -5.3,-0.6 -7.7,-1.2 -4.9,-1.1 -9.2,-2.8 -12.1,-5.3 -0.3,-0.2 -0.5,-0.7 -0.5,-1 V 166.1 166 c 0,-0.6 0.5,-1.2 1.2,-1.3 z"
   style="fill:url(#rect5179-3-5-9-4-8_1_)"
   sodipodi:nodetypes="sccscssccccccscsscssscsscsccsscscscccsscscscsccscccsscscsccscsccscccsscscsccscsc" />
		
			<path
   id="rect5179-3-5-9-4-8-9-7"
   inkscape:connector-curvature="0"
   sodipodi:nodetypes="sssssssssssssssccsssccssccccccccccsccccccscccccccccccsscsccccsccccccsccssccccccccsscsccccsccccccsccssccc"
   class="st6"
   d="    M69.5,110.3c-7.4,0-14.1,0.9-19.1,2.5c-2.5,0.8-4.6,1.7-6.1,2.8c-1.5,1.1-2.6,2.6-2.6,4.3c0,1.7,1.1,3.2,2.6,4.3    c1.5,1.1,3.6,2,6.1,2.8c5,1.5,11.7,2.5,19.1,2.5s14.1-0.9,19.1-2.5c2.5-0.8,4.5-1.7,6.1-2.8c1.5-1.1,2.6-2.6,2.6-4.3    c0-1.7-1.1-3.2-2.6-4.3c-1.5-1.1-3.6-2-6.1-2.8C83.6,111.3,76.9,110.3,69.5,110.3z M69.5,113c7.2,0,13.7,0.9,18.3,2.3    c2.3,0.7,4.1,1.6,5.3,2.4c2.5,1.9,1.4,4.9,0,5.8c-1.2,0.8-3,1.7-5.3,2.4c-4.6,1.4-11.1,2.3-18.3,2.3c-7.2,0-13.7-0.9-18.3-2.3    c-2.3-0.7-4.2-1.5-5.3-2.4c-2.5-1.9-1.8-4.5,0-5.8c1.1-0.8,3-1.7,5.3-2.4C55.8,113.9,62.3,113,69.5,113z M42.7,126.1    c-0.7,0.1-1.2,0.7-1.2,1.4c0,0.1,0,0.1,0,0.2l0,12.9c0,0.4,0.2,0.8,0.5,1c8.9,5.8,18.8,6.8,28,6.8c9,0,19.5-1.1,26.9-6.8    c0.3-0.3,0.4-0.6,0.4-1v-12.8c0-0.9-1.2-1.7-2-1.2c-7.9,4.1-19.2,5.5-29,5c-9.8-0.4-18.8-2.7-22.7-5.2c-0.2-0.1-0.5-0.2-0.7-0.2    C42.8,126.1,42.8,126.1,42.7,126.1L42.7,126.1z M42.9,129l1.3,0.7c5.1,2.5,13,4.2,21.9,4.6c9.4,0.4,21.4-1.4,29.7-5.1v11.7    c-7.8,5-16.6,6.3-25.9,6.4c-10.5,0.4-22.5-2.5-27-6.5L42.9,129L42.9,129z M42.7,145.4c-0.7,0.1-1.2,0.7-1.2,1.4c0,0.1,0,0.1,0,0.2    l0,12.9c0,0.4,0.2,0.8,0.5,1c2.9,2.5,7.2,4.2,12.1,5.3c2.4,0.5,5,0.9,7.7,1.2c2.7,0.2,5.5,0.3,8.2,0.3c5.5-0.1,10.9-0.7,15.5-1.8    c4.6-1.1,9-2.7,11.4-5c0.3-0.3,0.4-0.6,0.4-1V147c0-0.9-1.2-1.7-2-1.2c-7.9,4.1-19.2,5.5-29,5c-9.8-0.4-18.8-2.7-22.7-5.2    c-0.2-0.1-0.5-0.2-0.7-0.2C42.8,145.4,42.8,145.4,42.7,145.4L42.7,145.4z M42.9,148.3l1.3,0.7c5.1,2.5,13,4.2,21.9,4.6    c9.4,0.4,21.4-1.4,29.7-5.1V160c-1.8,1.6-6.8,3.7-11,4.7c-4.4,1.1-9.6,1.7-14.9,1.7c-10.3,0.1-22.2-2.7-27-6.5L42.9,148.3    L42.9,148.3z M42.7,164.7c-0.7,0.1-1.2,0.7-1.2,1.4c0,0.1,0,0.1,0,0.2l0,12.9c0,0.4,0.2,0.8,0.5,1c2.9,2.5,7.2,4.2,12.1,5.3    c2.4,0.5,5,0.9,7.7,1.2c2.7,0.2,5.5,0.3,8.2,0.3c5.5-0.1,10.9-0.7,15.5-1.8c4.6-1.1,9-2.7,11.4-5c0.3-0.3,0.4-0.6,0.4-1v-12.8    c0-0.9-1.2-1.7-2-1.2c-7.9,4.1-19.2,5.5-29,5c-9.8-0.4-18.8-2.7-22.7-5.2c-0.2-0.1-0.5-0.2-0.7-0.2    C42.8,164.7,42.8,164.7,42.7,164.7L42.7,164.7z M42.9,167.5l1.3,0.7c5.1,2.5,13,4.2,21.9,4.6c9.4,0.4,21.4-1.4,29.7-5.1v11.6    c-1.8,1.6-6.8,3.7-11,4.7c-4.4,1.1-9.6,1.7-14.9,1.7c-10.3,0.1-22.2-2.7-27-6.5L42.9,167.5L42.9,167.5z" />
		<path
   id="rect5179-3-5-9-4-8-9-7-0"
   inkscape:connector-curvature="0"
   sodipodi:nodetypes="csssccsssccsccscc"
   class="st7"
   d="    M41.7,120.4c-0.1,0.3-0.1,0.6-0.1,0.9c0,1.7,0.8,3,2.4,4.1c1.5,1.1,3.6,2,6.1,2.7c4.8,1.5,11.7,2.3,19,2.4c0.3,0,0.5,0,0.7,0    c7.2,0,14.1-0.9,19-2.4c2.5-0.7,4.5-1.6,6.1-2.7c1.5-1.1,2.4-2.5,2.4-4.1c0-0.3,0-0.6-0.1-0.9c-0.3,2.1-1.7,3.6-3.6,4.6    c-1.2,0.9-3.3,1.6-5.6,2.3c-4,1.2-11,2.2-18.1,2.2c-0.2,0-0.5,0-0.7,0c-7-0.1-14-1-18.1-2.2c-2.3-0.7-4.4-1.5-5.6-2.3    C43.4,123.9,42,122.5,41.7,120.4L41.7,120.4z" />
		<g
   id="g4581"
   transform="matrix(1.3550694,0,0,1.3550694,-13.884809,-56.181842)">
			<path
   id="rect5179-3-5-9-4-8-9-7-5"
   inkscape:connector-curvature="0"
   sodipodi:nodetypes="ccssccsscccssccsccc"
   class="st7"
   d="     M40.9,173.8c0,0.3,0.2,0.8,0.4,1c2.1,2,5.2,3.3,8.7,4.2c1.8,0.4,3.6,0.7,5.5,0.9c1.9,0.2,3.9,0.3,5.9,0.2c0.1,0,0.1,0,0.2,0     c2,0,4-0.1,5.9-0.2s3.8-0.5,5.5-0.9c3.5-0.8,6.9-2.5,8.6-4.2c0.2-0.2,0.2-0.7,0.2-1c-0.9,1-2.2,1.9-3.5,2.5c0,0-3,1.5-7.3,2.3     c-2.8,0.5-6.2,0.8-9.6,0.8c0,0,0,0,0,0c-0.1,0-0.1,0-0.2,0c-3.4,0-6.7-0.3-9.6-0.8c-4.3-0.8-7.3-2.3-7.3-2.3     S42.1,175.1,40.9,173.8L40.9,173.8z" />
			
				<path
   id="rect5179-3-5-9-4-8-9-7-5-4"
   inkscape:connector-curvature="0"
   sodipodi:nodetypes="ccssccsscccssccsccc"
   class="st7"
   d="     M40.9,159.8c0,0.3,0.2,0.8,0.4,1c2.1,1.9,5.2,3.3,8.7,4.1c1.8,0.4,3.6,0.7,5.5,0.9c1.9,0.2,3.9,0.3,5.9,0.2c0.1,0,0.1,0,0.2,0     c2,0,4-0.1,5.9-0.2c1.9-0.2,3.8-0.5,5.5-0.9c3.5-0.8,6.9-2.5,8.6-4.1c0.2-0.2,0.2-0.7,0.2-1c-0.9,1-2.2,1.9-3.5,2.5     c0,0-3,1.5-7.3,2.3c-2.8,0.5-6.2,0.8-9.6,0.8c0,0,0,0,0,0c-0.1,0-0.1,0-0.2,0c-3.4,0-6.7-0.3-9.6-0.8c-4.3-0.8-7.3-2.3-7.3-2.3     S42.1,161.1,40.9,159.8L40.9,159.8z" />
			
				<path
   id="rect5179-3-5-9-4-8-9-7-5-9"
   inkscape:connector-curvature="0"
   sodipodi:nodetypes="ccssccsscccssccsccc"
   class="st7"
   d="     M41,145.3c0,0.3,0.2,0.8,0.4,1c2.1,2,5.2,3.3,8.7,4.2c1.8,0.4,3.6,0.7,5.5,0.9c1.9,0.2,3.9,0.3,5.9,0.2c0.1,0,0.1,0,0.2,0     c2,0,4-0.1,5.9-0.2c1.9-0.2,3.8-0.5,5.5-0.9c3.5-0.8,6.9-2.5,8.6-4.2c0.2-0.2,0.2-0.7,0.2-1c-0.9,1-2.2,1.9-3.5,2.5     c0,0-3,1.5-7.3,2.3c-2.8,0.5-6.2,0.8-9.6,0.8c0,0,0,0,0,0c-0.1,0-0.1,0-0.2,0c-3.4,0-6.7-0.3-9.6-0.8c-4.3-0.8-7.3-2.3-7.3-2.3     S42.3,146.7,41,145.3z" />
		</g>
		
			
		<path
   style="color:#000000;font-style:normal;font-variant:normal;font-weight:normal;font-stretch:normal;font-size:medium;line-height:normal;font-family:sans-serif;font-variant-ligatures:normal;font-variant-position:normal;font-variant-caps:normal;font-variant-numeric:normal;font-variant-alternates:normal;font-feature-settings:normal;text-indent:0;text-align:start;text-decoration:none;text-decoration-line:none;text-decoration-style:solid;text-decoration-color:#000000;letter-spacing:normal;word-spacing:normal;text-transform:none;writing-mode:lr-tb;direction:ltr;text-orientation:mixed;dominant-baseline:auto;baseline-shift:baseline;text-anchor:start;white-space:normal;shape-padding:0;clip-rule:nonzero;display:inline;overflow:visible;visibility:visible;opacity:0.6;isolation:auto;mix-blend-mode:normal;color-interpolation:sRGB;color-interpolation-filters:linearRGB;solid-color:#000000;solid-opacity:1;vector-effect:none;fill:#ffffff;fill-opacity:1;fill-rule:nonzero;stroke:none;stroke-width:1.47000003;stroke-linecap:butt;stroke-linejoin:miter;stroke-miterlimit:4;stroke-dasharray:none;stroke-dashoffset:0;stroke-opacity:1;color-rendering:auto;image-rendering:auto;shape-rendering:auto;text-rendering:auto;enable-background:new"
   d="m 69.5,105.76562 c -9.153846,0 -17.406806,1.00039 -23.607422,2.83008 l 0.01367,-0.006 c -3.065182,0.83408 -5.655054,1.71857 -7.626953,3.21094 -0.965065,0.61139 -1.810091,1.22929 -2.439453,2.00195 -0.636296,0.78118 -1.03125,1.74354 -1.03125,2.85547 0,0.39005 0.05632,1.37139 0.05664,1.37696 10e-7,10e-6 0,0.004 0,0.004 -0.199742,21.58693 -0.300781,42.9733 -0.300781,64.56055 0,0.64123 0.274827,1.3149 0.886719,1.7793 3.662493,2.92608 9.053211,4.73095 15.105469,5.9414 3.03388,0.60678 6.159229,1.01093 9.476562,1.3125 3.330666,0.30279 6.759738,0.40365 10.089844,0.30274 6.732589,-0.10108 13.370921,-0.70281 19.042969,-2.01953 5.749624,-1.21154 11.121364,-2.98731 14.224604,-5.76954 l 0.0156,-0.0117 0.0137,-0.0156 c 0.4155,-0.41549 0.71485,-0.97414 0.71485,-1.61914 0,-21.59249 -0.0995,-43.08206 -0.0996,-64.66992 0.0212,-0.0953 0.0996,-0.42239 0.0996,-0.83008 0,-2.23526 -1.52156,-4.04558 -3.54297,-5.32227 -1.990241,-1.25699 -4.544199,-2.27087 -7.580081,-3.18164 l -0.0078,-0.002 -0.0059,-0.002 C 86.807764,106.76703 78.653846,105.76562 69.5,105.76562 Z m 0,1.46876 c 9.041904,0 17.084943,0.99845 23.09375,2.67187 2.961233,0.88873 5.404441,1.87344 7.212891,3.01563 1.778589,1.12331 2.857419,2.51338 2.857419,4.07812 0,0.13667 -0.084,0.65625 -0.084,0.65625 l -0.0156,0.0703 v 0.0742 c 0,21.60227 0.0996,43.10149 0.0996,64.69922 0,0.15185 -0.0999,0.38542 -0.27734,0.56836 -2.69965,2.40697 -7.907461,4.22651 -13.539064,5.41211 l -0.0059,0.002 -0.0078,0.002 c -5.524612,1.28249 -12.080804,1.88101 -18.74414,1.98046 h -0.0059 -0.0059 c -3.269895,0.0991 -6.642775,3.4e-4 -9.912109,-0.29687 -3.282667,-0.29843 -6.356146,-0.69584 -9.322266,-1.28906 -5.943019,-1.18861 -11.147024,-2.98247 -14.484375,-5.65235 l -0.0098,-0.008 -0.0078,-0.006 c -0.18048,-0.13536 -0.306641,-0.45828 -0.306641,-0.61328 0,-21.59773 0.100802,-42.99598 0.300782,-64.59375 v -0.0215 l -0.002,-0.0234 c 0,0 -0.05469,-1.09389 -0.05469,-1.30274 0,-0.78806 0.232612,-1.35488 0.699219,-1.92773 0.466607,-0.57285 1.191721,-1.12695 2.113281,-1.70899 l 0.02734,-0.0176 0.02539,-0.0195 c 1.694412,-1.28889 4.127442,-2.15257 7.148438,-2.97461 l 0.0078,-0.002 0.0078,-0.002 C 52.307978,108.23555 60.453846,107.23438 69.5,107.23438 Z"
   id="rect5179-3-5-9-4-8-4-7-2"
   inkscape:connector-curvature="0" />
		
			<path
   id="rect5179-3-5-9-4-8-4-7"
   inkscape:connector-curvature="0"
   sodipodi:nodetypes="cccccccccccccccccccccccsccccscccccc"
   class="st10"
   d="m 65.9,101.1 c -6.9,0.1 -16.3,1.3 -23.2,3.1 -3.5,1 -6.6,2.1 -9.1,3.8 -1.2,0.8 -2,1.6 -2.5,2.5 -0.7,1.3 -0.754687,3.01953 -0.8,3.8 -0.0078,0.40625 0,1.2 0,1.2 -0.04757,35.02195 -0.114971,40.10452 -0.3,70.19375 0,1.5 0.60625,2.8 1.9,3.60625 11.2,6.5 25,7.9 38.2,7.8 14.3,0 25,-2.7 37.1,-8 1,-0.5 1.6,-2.2 1.6,-3.6 -0.1,-24.9 0,-49.9 -0.1,-71.3 0,-3.6 -0.9,-4.7 -3.4,-6.3 -2.5,-1.6 -5.5,-2.8 -9.1,-3.8 -5.5,-1.5 -12.2,-2.5 -19.7,-2.9 -2.3,-0.1 -4.6,-0.2 -7,-0.2 z m 27.2,7.5 c 3.1,0.9 5.6,1.9 7.5,3.1 1.9,1.3 3.1,2.9 3.1,4.8 v 0.8 c 0,21.9 0.1,43.7 0.1,65.7 0,0.4 -0.2,0.8 -0.5,1.1 -3,2.6 -8.4,4.4 -14.1,5.6 -5.7,1.3 -12.4,1.9 -19.2,2 -3.4,0 -6.8,-0.1 -10.2,-0.3 -3.3,-0.3 -6.5,-0.7 -9.6,-1.3 -6.1,-1.2 -11.4,-3.1 -15,-5.9 -0.4,-0.3 -0.6,-0.7 -0.6,-1.2 0,-22 0,-43.7 0.3,-65.6 v -0.9 c 0,-1.9 1.282031,-3.41406 3.182031,-4.71406 1.9,-1.3 4.367687,-2.21469 7.440066,-3.13622 C 51.722097,106.94972 60,105.8 69.2,105.8 c 8.3,0.1 19.7,1.8 23.9,2.8 z"
   style="fill:#686161" />
	<path
   style="color:#000000;font-style:normal;font-variant:normal;font-weight:normal;font-stretch:normal;font-size:medium;line-height:normal;font-family:sans-serif;font-variant-ligatures:normal;font-variant-position:normal;font-variant-caps:normal;font-variant-numeric:normal;font-variant-alternates:normal;font-feature-settings:normal;text-indent:0;text-align:start;text-decoration:none;text-decoration-line:none;text-decoration-style:solid;text-decoration-color:#000000;letter-spacing:normal;word-spacing:normal;text-transform:none;writing-mode:lr-tb;direction:ltr;text-orientation:mixed;dominant-baseline:auto;baseline-shift:baseline;text-anchor:start;white-space:normal;shape-padding:0;clip-rule:nonzero;display:inline;overflow:visible;visibility:visible;opacity:0.08999999;isolation:auto;mix-blend-mode:normal;color-interpolation:sRGB;color-interpolation-filters:linearRGB;solid-color:#000000;solid-opacity:1;vector-effect:none;fill:none;fill-opacity:1;fill-rule:nonzero;stroke:none;stroke-width:1;stroke-linecap:butt;stroke-linejoin:miter;stroke-miterlimit:4;stroke-dasharray:none;stroke-dashoffset:0;stroke-opacity:1;color-rendering:auto;image-rendering:auto;shape-rendering:auto;text-rendering:auto;enable-background:accumulate"
   d="m 69.479137,77.727456 -3.607422,0.09961 c -6.976687,0.10235 -16.346337,1.300519 -23.34375,3.117187 h -0.08203 l -0.08594,0.04297 c -3.505028,1.004176 -6.681885,2.119943 -9.314453,3.908203 -1.285677,0.857118 -2.222327,1.771281 -2.820313,2.847656 l -0.0059,0.0098 c -0.85305,1.584236 -0.874526,3.439728 -0.916015,4.183594 l -0.0039,0.02344 v 0.05859 c -0.0082,0.445168 0,1.21875 0,1.21875 -0.04757,35.007594 -0.11382,40.091894 -0.298828,70.177734 v 0.004 0.002 c 0,1.77659 0.781133,3.46422 2.371093,4.45507 l -0.01758,-0.01 0.03125,0.0215 0.03516,0.0176 c 11.450242,6.63692 25.419975,8.02238 38.6875,7.92188 14.422019,-0.001 25.312073,-2.74608 37.494141,-8.08204 l 0.0137,-0.006 0.0312,-0.0176 c 0.82173,-0.41087 1.32146,-1.18219 1.65039,-1.97461 0.3306,-0.79645 0.50195,-1.67913 0.50195,-2.51953 v -0.002 -0.002 c -0.1,-24.89326 4e-4,-49.8909 -0.0996,-71.296871 0,-1.883408 -0.2369,-3.263893 -0.89843,-4.402344 -0.66126,-1.138097 -1.67167,-1.913852 -2.96289,-2.740234 -2.6146,-1.673344 -5.71039,-2.905013 -9.371099,-3.921875 l -0.06641,-0.01758 h -0.02539 C 90.800832,79.33202 84.074926,78.329779 76.553356,77.928628 h -0.0098 -0.02148 c -2.292964,-0.0997 -4.601025,-0.201172 -7.021485,-0.201172 h -0.01563 z m 38.167973,89.994144 0.01,-0.004 0.0273,-0.0176 z m -77.421879,-79.978519 0.07813,-0.105469 -0.05078,0.05273 z"
   id="rect5179-3-5-9-4-8-4-7-7"
   inkscape:connector-curvature="0"
   sodipodi:nodetypes="ccccccccccccccscccccccccsccccsccccccscccccccccc" /><path
   style="color:#000000;font-style:normal;font-variant:normal;font-weight:normal;font-stretch:normal;font-size:medium;line-height:normal;font-family:sans-serif;font-variant-ligatures:normal;font-variant-position:normal;font-variant-caps:normal;font-variant-numeric:normal;font-variant-alternates:normal;font-feature-settings:normal;text-indent:0;text-align:start;text-decoration:none;text-decoration-line:none;text-decoration-style:solid;text-decoration-color:#000000;letter-spacing:normal;word-spacing:normal;text-transform:none;writing-mode:lr-tb;direction:ltr;text-orientation:mixed;dominant-baseline:auto;baseline-shift:baseline;text-anchor:start;white-space:normal;shape-padding:0;clip-rule:nonzero;display:inline;overflow:visible;visibility:visible;opacity:0.08999999;isolation:auto;mix-blend-mode:normal;color-interpolation:sRGB;color-interpolation-filters:linearRGB;solid-color:#000000;solid-opacity:1;vector-effect:none;fill:none;fill-opacity:1;fill-rule:nonzero;stroke:none;stroke-width:1;stroke-linecap:butt;stroke-linejoin:miter;stroke-miterlimit:4;stroke-dasharray:none;stroke-dashoffset:0;stroke-opacity:1;color-rendering:auto;image-rendering:auto;shape-rendering:auto;text-rendering:auto;enable-background:accumulate"
   d="m 69.479147,100.00007 -3.607422,0.0996 c -6.976687,0.10235 -16.346336,1.30051 -23.343749,3.11718 h -0.08203 l -0.08594,0.043 c -3.505026,1.00418 -6.681883,2.11994 -9.314451,3.9082 -1.285677,0.85712 -2.222327,1.77128 -2.820312,2.84766 l -0.0059,0.01 c -0.853051,1.58423 -0.874527,3.43973 -0.916016,4.18359 l -0.0039,0.0234 v 0.0586 c -0.0082,0.44517 0,1.21875 0,1.21875 -0.04757,35.0076 -0.11382,40.0919 -0.298828,70.17774 v 0.004 0.002 c 0,1.77659 0.781133,3.46422 2.371094,4.45507 l -0.01758,-0.01 0.03125,0.0215 0.03516,0.0176 c 11.450241,6.63692 25.419973,8.02238 38.687498,7.92188 14.422019,-0.001 25.312073,-2.74608 37.494139,-8.08204 l 0.0137,-0.006 0.0312,-0.0176 c 0.82173,-0.41087 1.32146,-1.18219 1.65039,-1.97461 0.3306,-0.79645 0.50195,-1.67913 0.50195,-2.51953 v -0.002 -0.002 c -0.1,-24.89326 4e-4,-49.8909 -0.0996,-71.29687 0,-1.88341 -0.2369,-3.2639 -0.89843,-4.40235 -0.66126,-1.1381 -1.67167,-1.91385 -2.96289,-2.74023 -2.6146,-1.67335 -5.71039,-2.90502 -9.371097,-3.92188 l -0.06641,-0.0176 h -0.02539 c -5.574741,-1.51251 -12.300647,-2.51475 -19.822217,-2.9159 h -0.0098 -0.02148 c -2.292964,-0.0997 -4.601025,-0.20117 -7.021485,-0.20117 h -0.01563 z m 38.167973,89.99414 0.01,-0.004 0.0273,-0.0176 z m -77.421878,-79.97852 0.07813,-0.10547 -0.05078,0.0527 z m 39.267577,-9.01563 h 0.01367 c 2.397075,1.7e-4 4.694632,0.10128 6.992188,0.20117 6.84e-4,4e-5 0.0013,-3e-5 0.002,0 7.49848,0.40004 14.19811,1.39883 19.697266,2.89844 6.36e-4,1.8e-4 0.0013,-1.7e-4 0.002,0 3.599186,0.99991 6.599927,2.20099 9.099607,3.80078 1.25053,0.80034 2.10094,1.4749 2.63867,2.40039 0.53739,0.92481 0.76172,2.09852 0.76172,3.89844 v 0.002 c 0.1,21.39961 -3.9e-4,46.39952 0.0996,71.29884 0,0.70244 -0.14792,1.47204 -0.42382,2.13671 -0.27758,0.66871 -0.6636,1.2068 -1.17579,1.4629 l -0.0176,0.01 h -0.002 l -0.002,0.002 -0.006,0.002 c -12.086981,5.29121 -22.781793,7.9858 -37.068355,7.98633 h -0.002 -0.002 c -13.200252,0.1 -26.998901,-1.29865 -38.199217,-7.79883 h -0.002 c -8.44e-4,-5.3e-4 -0.0011,-0.001 -0.0019,-0.002 l -0.002,-0.002 c -1.284565,-0.80297 -1.894531,-2.11262 -1.894531,-3.60351 v -0.004 c 0.184995,-30.08312 0.251261,-35.17084 0.298828,-70.18555 v -0.002 -0.004 c 0,0 -0.0067,-0.74624 0,-1.16211 v -0.006 l 0.002,-0.0293 c 0.04592,-0.79092 0.09546,-2.48662 0.792969,-3.79102 l 0.0059,-0.01 c 0.499753,-0.89956 1.300338,-1.70022 2.5,-2.5 l 0.002,-0.002 h 0.002 c 2.486565,-1.68996 5.567205,-2.78587 9.042968,-3.78125 h -0.0098 l 0.03906,-0.01 c 0.0083,-0.002 0.01511,-0.005 0.02344,-0.008 l 0.04687,-0.0137 -0.01953,0.01 c 6.895986,-1.796 16.274708,-2.99517 23.166187,-3.09575 h 0.002 z"
   id="rect5179-3-5-9-4-8-4-7-7-68"
   inkscape:connector-curvature="0" /><path
   style="color:#000000;font-style:normal;font-variant:normal;font-weight:normal;font-stretch:normal;font-size:medium;line-height:normal;font-family:sans-serif;font-variant-ligatures:normal;font-variant-position:normal;font-variant-caps:normal;font-variant-numeric:normal;font-variant-alternates:normal;font-feature-settings:normal;text-indent:0;text-align:start;text-decoration:none;text-decoration-line:none;text-decoration-style:solid;text-decoration-color:#000000;letter-spacing:normal;word-spacing:normal;text-transform:none;writing-mode:lr-tb;direction:ltr;text-orientation:mixed;dominant-baseline:auto;baseline-shift:baseline;text-anchor:start;white-space:normal;shape-padding:0;clip-rule:nonzero;display:inline;overflow:visible;visibility:visible;opacity:0.06000001;isolation:auto;mix-blend-mode:normal;color-interpolation:sRGB;color-interpolation-filters:linearRGB;solid-color:#000000;solid-opacity:1;vector-effect:none;fill:#ffffff;fill-opacity:1;fill-rule:nonzero;stroke:none;stroke-width:1;stroke-linecap:butt;stroke-linejoin:miter;stroke-miterlimit:4;stroke-dasharray:none;stroke-dashoffset:0;stroke-opacity:1;color-rendering:auto;image-rendering:auto;shape-rendering:auto;text-rendering:auto;enable-background:accumulate"
   d="m 69.465557,99.499004 -3.60742,0.09961 c -7.0022,0.103256 -16.332517,1.297926 -23.373049,3.117186 h -0.15625 l -0.160157,0.0801 c -3.500839,1.00511 -6.711217,2.12767 -9.404296,3.95703 -1.228789,0.81973 -2.145562,1.72965 -2.792969,2.78125 l -0.0098,0.006 -0.119141,0.13281 -0.0625,0.10938 -0.002,0.006 c -0.917811,1.70451 -0.930502,3.6226 -0.96875,4.34961 l -0.0098,0.0469 v 0.10547 c -0.0082,0.46317 0,1.22461 0,1.22461 -0.04757,34.99913 -0.113833,40.08426 -0.298828,70.16797 v 0.002 0.004 0.002 0.002 c 0,1.91912 0.858369,3.78515 2.595703,4.87304 -0.01174,-0.01 -0.08171,-0.0659 -0.0918,-0.0742 l 0.03906,0.043 0.05859,0.0371 0.03516,0.0234 0.05859,0.0293 c 11.571683,6.69697 25.621122,8.07727 38.916012,7.97656 14.48345,-0.002 25.46798,-2.77092 37.691408,-8.125 l 0.043,-0.0195 0.0566,-0.0332 -0.0332,0.0176 c 0.97223,-0.48612 1.53464,-1.37568 1.88867,-2.22851 0.35739,-0.86102 0.54101,-1.80452 0.54101,-2.71289 v -0.002 -0.002 -0.002 c -0.1,-24.88989 4e-4,-49.88596 -0.0996,-71.29493 0,-1.92534 -0.24325,-3.40518 -0.96679,-4.65039 -0.72285,-1.24405 -1.81387,-2.07103 -3.125,-2.91016 -2.65811,-1.70118 -5.78864,-2.94452 -9.455078,-3.96679 l -0.0176,-0.008 -0.0312,-0.008 -0.002,-0.002 h -0.002 l -0.0156,-0.004 -0.11133,-0.0332 h -0.0527 c -5.6036,-1.51329 -12.32696,-2.51523 -19.8418,-2.91602 h -0.0137 -0.0215 -0.0215 c -2.28595,-0.0994 -4.59447,-0.201172 -7.02148,-0.201172 h -0.0156 -0.0137 z m 0.0137,0.999996 h 0.0137 0.008 c 2.40648,0 4.70687,0.10147 7,0.20118 h 0.01 0.0137 c 7.4932,0.39964 14.19011,1.39729 19.720711,2.89843 l 0.0645,0.0176 h 0.0176 l 0.006,0.002 c 3.63045,1.00847 6.678922,2.2246 9.236332,3.86133 1.2713,0.81364 2.20106,1.53817 2.80078,2.57031 0.59947,1.03169 0.83007,2.30696 0.83007,4.14844 v 0.002 c 0.1,21.4026 -4e-4,46.40094 0.0996,71.29688 v 0.002 c 0,0.77243 -0.1591,1.59821 -0.46289,2.33008 -0.30387,0.73201 -0.74284,1.38118 -1.41406,1.71679 l -0.0176,0.01 -0.0195,0.01 c -12.133062,5.31275 -22.925052,8.03417 -37.277342,8.03516 h -0.002 -0.002 c -13.22942,0.10022 -27.110124,-1.29261 -38.433592,-7.85547 l -0.01172,-0.008 -0.01953,-0.01 0.08203,0.0703 c -0.02273,-0.019 -0.08565,-0.0724 -0.08789,-0.0742 -1.434196,-0.89493 -2.132812,-2.40181 -2.132812,-4.03125 v -0.002 -0.004 c 0.184982,-30.081 0.25126,-35.17151 0.298828,-70.17774 v -0.002 -0.004 c 0,0 -0.0079,-0.77467 0,-1.20313 v -0.006 -0.01 l 0.0039,-0.0156 0.002,-0.0371 c 0.0433,-0.77995 0.07831,-2.51473 0.845703,-3.95312 l 0.0332,-0.043 c 0.549419,-0.97766 1.406274,-1.83075 2.638672,-2.65235 l 0.002,-0.002 h 0.002 c 2.55787,-1.73752 5.684247,-2.84259 9.171874,-3.8418 l 0.04297,-0.0117 0.02148,-0.0117 h 0.0293 l 0.06055,-0.0156 c 6.944093,-1.80282 16.300541,-2.99994 23.226561,-3.10156 h 0.002 z m 26.806641,3.10547 0.0274,0.008 -0.0254,-0.006 z"
   id="rect5179-3-5-9-4-8-4-7-7-6-4"
   inkscape:connector-curvature="0" /></g>
</g>
</svg>