<?xml version="1.0" encoding="UTF-8"?>
<svg width="70px" height="64px" viewBox="0 0 70 64" version="1.1" xmlns="http://www.w3.org/2000/svg" xmlns:xlink="http://www.w3.org/1999/xlink">
    <!-- Generator: Sketch 43.1 (39012) - http://www.bohemiancoding.com/sketch -->
    <title>Phrase</title>
    <desc>Created with Sketch.</desc>
    <defs></defs>
    <g id="Symbols" stroke="none" stroke-width="1" fill="none" fill-rule="evenodd">
        <g id="iPhone-SE" transform="translate(-11.000000, -16.000000)" fill-rule="nonzero">
            <g id="Phrase" transform="translate(11.000000, 16.000000)">
                <path d="M28.4173165,40.4878549 C28.4173165,40.4878549 22.0871864,34.6288498 9.82186039,37.7836629 C-2.44323262,40.9387089 -5.60876366,54.7975184 19.1194719,63.6997299 C23.4716694,63.6997299 24.2629356,63.7761537 21.6913203,62.6111563 C19.1194719,61.4459258 11.9978426,59.4176653 10.6131267,54.6852127 C9.2284107,49.9525271 13.9762413,49.7272166 21.8891368,49.5021391 C29.8020324,49.2763626 31.8792229,43.4175905 28.4173165,40.4878549 Z" id="Shape" fill-opacity="0.1" fill="#000000"></path>
                <path d="M60.0777528,37.7834299 C47.8124268,34.6286168 41.4825297,40.4876219 41.4825297,40.4876219 C38.0206234,43.4173575 40.0978138,49.2763626 48.0109424,49.5019061 C55.923605,49.7269836 60.6712025,49.9525271 59.2867196,54.6849797 C57.9020036,59.4174323 50.7803743,61.4456928 48.2085259,62.6109233 C45.6366776,63.7759207 46.4279439,63.6994969 50.7803743,63.6994969 C75.5081439,54.7975184 72.3430788,40.9384759 60.0777528,37.7834299 Z" id="Shape" fill-opacity="0.1" fill="#000000"></path>
                <path d="M28.4173165,6.52701464 C28.4173165,6.52701464 22.0871864,-3.75967973 9.82186039,1.77918409 C-2.44323262,7.3185139 -5.60853066,31.6506504 19.1197049,47.278625 C23.4719024,47.278625 24.2631686,47.4139977 21.6915533,45.3682622 C19.1197049,43.3222937 11.9980756,39.7615955 10.6133597,31.4530668 C9.2286437,23.1443051 13.9764743,22.748439 21.8893698,22.3530388 C29.8020324,21.9574057 31.8792229,11.6704783 28.4173165,6.52701464 Z" id="Shape" fill="#E25D85"></path>
                <path d="M41.4825297,6.52701464 C41.4825297,6.52701464 47.8124268,-3.75967973 60.0777528,1.77918409 C72.3433118,7.3182809 75.5083769,31.6506504 50.7803743,47.278625 C46.4279439,47.278625 45.6366776,47.4139977 48.2085259,45.3682622 C50.7803743,43.3222937 57.9020036,39.7615955 59.2867196,31.4530668 C60.6712025,23.1443051 55.923605,22.748439 48.0109424,22.3530388 C40.0978138,21.9574057 38.0206234,11.6704783 41.4825297,6.52701464 Z" id="Shape" fill="#EB91AC"></path>
            </g>
        </g>
    </g>
</svg>