<?xml version="1.0" encoding="utf-8"?>
<!-- Generator: Adobe Illustrator 15.1.0, SVG Export Plug-In . SVG Version: 6.00 Build 0)  -->
<!DOCTYPE svg PUBLIC "-//W3C//DTD SVG 1.1//EN" "http://www.w3.org/Graphics/SVG/1.1/DTD/svg11.dtd">
<svg version="1.1" id="Layer_1" xmlns="http://www.w3.org/2000/svg" xmlns:xlink="http://www.w3.org/1999/xlink" x="0px" y="0px"
	 width="300px" height="300px" viewBox="0 0 300 300" enable-background="new 0 0 300 300" xml:space="preserve">
<g>
	<g>
		<g>
			<rect x="69.576" y="31.836" fill="#FFFFFF" width="42.304" height="43.205"/>
			<path fill="#FFFFFF" d="M39.415,1.048V105.84h102.62V1.048H39.415z M126.099,89.551H55.377V17.337h70.722V89.551z"/>
		</g>
		<g>
			<rect x="185.74" y="31.836" fill="#FFFFFF" width="42.305" height="43.205"/>
			<path fill="#FFFFFF" d="M155.58,1.048V105.84h102.619V1.048H155.58z M242.264,89.551h-70.723V17.337h70.723V89.551z"/>
		</g>
		<g>
			<rect x="69.576" y="149.278" fill="#FFFFFF" width="42.304" height="43.203"/>
			<path fill="#FFFFFF" d="M39.415,118.49v104.794h102.62V118.49H39.415z M126.099,206.993H55.377v-72.214h70.722V206.993z"/>
		</g>
		<g>
			<rect x="240.391" y="201.321" fill="#FFFFFF" width="18.082" height="21.963"/>
			<polygon fill="#FFFFFF" points="258.473,160.598 258.473,118.952 206.457,118.952 206.457,136.11 228.609,136.11 
				228.609,153.241 206.457,153.241 206.457,181.339 186.992,181.339 186.992,160.598 165.271,160.598 165.271,181.339 
				179.742,181.339 179.742,201.321 155.309,201.321 155.309,223.284 206.457,223.284 206.457,201.321 240.391,201.321 
				240.391,181.339 228.609,181.339 228.609,160.598 			"/>
			<rect x="155.309" y="118.962" fill="#FFFFFF" width="38.469" height="33.029"/>
		</g>
	</g>
	<g>
		<g>
			<path fill="#FFFFFF" d="M55.731,267.239c-1.574-1.143-3.587-1.715-6.039-1.715c-0.994,0-1.972,0.1-2.932,0.299
				c-0.961,0.198-1.814,0.53-2.56,0.993c-0.745,0.465-1.342,1.086-1.789,1.864s-0.671,1.748-0.671,2.907
				c0,1.094,0.323,1.98,0.969,2.659s1.507,1.234,2.584,1.664c1.076,0.432,2.293,0.788,3.652,1.069
				c1.358,0.281,2.741,0.588,4.15,0.919c1.408,0.332,2.791,0.721,4.15,1.168c1.358,0.447,2.576,1.052,3.653,1.813
				c1.076,0.763,1.938,1.724,2.584,2.883c0.646,1.16,0.969,2.618,0.969,4.373c0,1.889-0.422,3.504-1.267,4.846
				c-0.845,1.342-1.931,2.436-3.255,3.28c-1.326,0.845-2.808,1.458-4.448,1.839c-1.64,0.381-3.272,0.571-4.896,0.571
				c-1.988,0-3.869-0.248-5.641-0.745c-1.773-0.497-3.33-1.25-4.671-2.262c-1.342-1.01-2.403-2.302-3.181-3.876
				c-0.779-1.573-1.168-3.437-1.168-5.591h4.473c0,1.49,0.29,2.775,0.87,3.852c0.58,1.077,1.342,1.963,2.286,2.658
				c0.944,0.696,2.045,1.21,3.305,1.541c1.259,0.332,2.551,0.497,3.876,0.497c1.06,0,2.128-0.1,3.205-0.298
				c1.077-0.199,2.045-0.538,2.908-1.02c0.861-0.479,1.557-1.134,2.087-1.963c0.53-0.828,0.795-1.889,0.795-3.181
				c0-1.226-0.323-2.219-0.969-2.981c-0.646-0.762-1.508-1.383-2.584-1.864c-1.077-0.479-2.295-0.869-3.653-1.168
				c-1.359-0.298-2.742-0.604-4.15-0.919c-1.409-0.314-2.792-0.679-4.15-1.094c-1.359-0.413-2.576-0.96-3.653-1.64
				c-1.077-0.679-1.938-1.557-2.584-2.634c-0.646-1.076-0.969-2.427-0.969-4.051c0-1.789,0.364-3.337,1.093-4.646
				c0.729-1.309,1.698-2.386,2.907-3.23s2.584-1.474,4.125-1.889c1.541-0.414,3.123-0.621,4.746-0.621
				c1.822,0,3.512,0.216,5.069,0.646c1.557,0.431,2.924,1.11,4.1,2.037c1.176,0.928,2.104,2.096,2.783,3.504
				c0.679,1.408,1.051,3.09,1.118,5.044h-4.473C58.223,270.229,57.304,268.383,55.731,267.239z"/>
			<path fill="#FFFFFF" d="M91.612,267.413c-1.806-1.259-3.951-1.889-6.436-1.889c-2.121,0-3.935,0.397-5.442,1.193
				c-1.508,0.795-2.75,1.863-3.728,3.205c-0.978,1.342-1.698,2.875-2.162,4.598c-0.464,1.723-0.696,3.512-0.696,5.367
				c0,2.021,0.231,3.935,0.696,5.74c0.463,1.806,1.184,3.379,2.162,4.721c0.977,1.342,2.228,2.41,3.752,3.206
				c1.523,0.795,3.346,1.192,5.466,1.192c1.557,0,2.94-0.256,4.15-0.771c1.209-0.513,2.253-1.226,3.131-2.137
				c0.877-0.911,1.565-1.996,2.063-3.256c0.497-1.258,0.795-2.616,0.895-4.075h4.722c-0.464,4.474-2.005,7.952-4.622,10.437
				c-2.618,2.485-6.196,3.728-10.735,3.728c-2.75,0-5.152-0.472-7.206-1.416c-2.055-0.944-3.761-2.244-5.119-3.901
				c-1.359-1.656-2.378-3.611-3.057-5.864c-0.679-2.253-1.019-4.672-1.019-7.256s0.364-5.011,1.093-7.281
				c0.728-2.269,1.797-4.249,3.206-5.938c1.408-1.689,3.164-3.023,5.268-4.001c2.104-0.977,4.514-1.466,7.231-1.466
				c1.855,0,3.611,0.249,5.268,0.745c1.656,0.497,3.131,1.227,4.423,2.188c1.292,0.961,2.368,2.161,3.23,3.603
				c0.861,1.441,1.424,3.106,1.689,4.995h-4.721C94.585,270.562,93.417,268.673,91.612,267.413z"/>
			<path fill="#FFFFFF" d="M120.908,262.394l13.866,35.484h-5.218l-3.876-10.685h-15.008l-3.976,10.685h-4.821l13.816-35.484
				H120.908z M124.188,283.217l-5.914-16.549h-0.1l-6.013,16.549H124.188z"/>
			<path fill="#FFFFFF" d="M143.222,262.394l18.686,28.775h0.1v-28.775h4.473v35.484h-5.168l-18.538-28.477h-0.1v28.477h-4.473
				v-35.484H143.222z"/>
		</g>
		<g>
			<path fill="#FFFFFF" d="M252.262,262.712c3.32,0,5.912,0.816,7.783,2.438c1.873,1.629,2.807,3.855,2.807,6.688
				c0,2.115-0.48,3.973-1.439,5.563c-0.961,1.596-2.496,2.688-4.611,3.271v0.096c1.008,0.195,1.83,0.523,2.465,0.975
				c0.635,0.455,1.139,1.004,1.514,1.639c0.371,0.631,0.648,1.342,0.828,2.121c0.178,0.779,0.318,1.598,0.412,2.439
				c0.068,0.848,0.115,1.707,0.15,2.588c0.031,0.879,0.115,1.738,0.242,2.586c0.131,0.844,0.316,1.65,0.561,2.414
				c0.244,0.768,0.611,1.441,1.102,2.023h-5.176c-0.324-0.354-0.545-0.842-0.658-1.463c-0.113-0.613-0.188-1.309-0.221-2.072
				c-0.031-0.764-0.066-1.586-0.098-2.467c-0.031-0.873-0.129-1.738-0.291-2.586c-0.129-0.844-0.295-1.65-0.488-2.414
				c-0.195-0.764-0.506-1.43-0.928-1.998c-0.422-0.572-0.975-1.029-1.658-1.367c-0.684-0.346-1.594-0.516-2.732-0.516h-11.322
				v14.883h-4.635v-34.84H252.262z M253.236,278.522c0.979-0.164,1.834-0.477,2.564-0.949c0.732-0.473,1.318-1.107,1.756-1.902
				c0.439-0.801,0.66-1.83,0.66-3.102c0-1.756-0.488-3.188-1.463-4.295c-0.979-1.104-2.557-1.66-4.736-1.66h-11.516v12.152h9.664
				C251.238,278.767,252.262,278.687,253.236,278.522z"/>
			<path fill="#FFFFFF" d="M232.914,295.995l-5.02-6.014c0.502-0.938,0.93-1.936,1.266-2.99c0.697-2.195,1.047-4.482,1.047-6.857
				s-0.35-4.66-1.047-6.855c-0.699-2.193-1.75-4.141-3.15-5.832c-1.396-1.691-3.139-3.043-5.219-4.051
				c-2.082-1.008-4.508-1.512-7.273-1.512s-5.188,0.504-7.27,1.512s-3.824,2.359-5.223,4.051s-2.447,3.639-3.146,5.832
				c-0.699,2.195-1.049,4.48-1.049,6.855s0.35,4.662,1.049,6.857s1.748,4.141,3.146,5.832s3.141,3.033,5.223,4.025
				c2.082,0.99,4.504,1.488,7.27,1.488s5.191-0.498,7.273-1.488c1.65-0.791,3.025-1.861,4.248-3.086l4.332,5.189L232.914,295.995z
				 M218.984,293.237c-1.529,0.826-3.352,1.24-5.467,1.24c-2.113,0-3.934-0.414-5.463-1.24c-1.531-0.832-2.783-1.93-3.758-3.293
				c-0.979-1.369-1.693-2.906-2.146-4.613c-0.457-1.707-0.684-3.441-0.684-5.197c0-1.76,0.227-3.488,0.684-5.195
				c0.453-1.713,1.168-3.246,2.146-4.613c0.975-1.367,2.227-2.465,3.758-3.293c1.529-0.832,3.35-1.246,5.463-1.246
				c2.115,0,3.938,0.414,5.467,1.246c1.529,0.828,2.781,1.926,3.756,3.293c0.977,1.367,1.691,2.9,2.148,4.613
				c0.455,1.707,0.684,3.436,0.684,5.195c0,1.756-0.229,3.49-0.684,5.197c-0.068,0.254-0.184,0.482-0.266,0.732l-7.15-8.563
				l-3.541,2.957l8.346,9.994C221.369,291.567,220.303,292.521,218.984,293.237z"/>
		</g>
	</g>
</g>
</svg>
