<?xml version="1.0" encoding="utf-8"?>
<!-- Generator: Adobe Illustrator 15.1.0, SVG Export Plug-In . SVG Version: 6.00 Build 0)  -->
<!DOCTYPE svg PUBLIC "-//W3C//DTD SVG 1.1//EN" "http://www.w3.org/Graphics/SVG/1.1/DTD/svg11.dtd">
<svg version="1.1" id="Layer_1" xmlns="http://www.w3.org/2000/svg" xmlns:xlink="http://www.w3.org/1999/xlink" x="0px" y="0px"
	 width="300px" height="300px" viewBox="0 0 300 300" enable-background="new 0 0 300 300" xml:space="preserve">
<g>
	<g>
		<rect x="68.496" y="31.836" fill="#FFFFFF" width="42.304" height="43.205"/>
		<path fill="#FFFFFF" d="M38.334,105.84h102.62V1.048H38.334V105.84z M54.297,17.337h70.722v72.214H54.297V17.337z"/>
		<rect x="184.659" y="31.836" fill="#FFFFFF" width="42.306" height="43.205"/>
		<path fill="#FFFFFF" d="M257.119,1.048H154.5V105.84h102.619V1.048z M241.183,89.551H170.46V17.337h70.723V89.551z"/>
		<rect x="68.496" y="149.278" fill="#FFFFFF" width="42.304" height="43.203"/>
		<path fill="#FFFFFF" d="M38.334,223.284h102.62V118.49H38.334V223.284z M54.297,134.779h70.722v72.214H54.297V134.779z"/>
		<rect x="239.311" y="201.321" fill="#FFFFFF" width="18.081" height="21.963"/>
		<polygon fill="#FFFFFF" points="257.392,160.598 257.392,118.952 205.376,118.952 205.376,136.11 227.529,136.11 227.529,153.241 
			205.376,153.241 205.376,181.339 185.911,181.339 185.911,160.598 164.191,160.598 164.191,181.339 178.662,181.339 
			178.662,201.321 154.229,201.321 154.229,223.284 205.376,223.284 205.376,201.321 239.311,201.321 239.311,181.339 
			227.529,181.339 227.529,160.598 		"/>
		<rect x="154.229" y="118.962" fill="#FFFFFF" width="38.469" height="33.029"/>
	</g>
	<g>
		<path fill="#FFFFFF" d="M54.454,267.468c-1.546-1.119-3.522-1.682-5.93-1.682c-0.976,0-1.935,0.098-2.879,0.291
			c-0.944,0.197-1.78,0.52-2.514,0.977c-0.731,0.457-1.317,1.066-1.756,1.83c-0.438,0.768-0.659,1.717-0.659,2.857
			c0,1.07,0.317,1.941,0.952,2.609c0.636,0.666,1.479,1.215,2.538,1.633c1.057,0.424,2.252,0.775,3.587,1.049
			c1.333,0.283,2.691,0.578,4.075,0.908c1.383,0.324,2.74,0.705,4.075,1.145c1.333,0.441,2.529,1.035,3.585,1.783
			c1.058,0.746,1.904,1.691,2.539,2.83c0.634,1.135,0.953,2.566,0.953,4.289c0,1.857-0.415,3.441-1.245,4.762
			c-0.83,1.314-1.896,2.391-3.196,3.219c-1.302,0.832-2.757,1.432-4.368,1.809c-1.611,0.371-3.213,0.561-4.806,0.561
			c-1.953,0-3.799-0.248-5.539-0.736c-1.742-0.488-3.27-1.225-4.588-2.217c-1.317-0.99-2.357-2.264-3.123-3.807
			s-1.147-3.377-1.147-5.486h4.392c0,1.463,0.285,2.719,0.854,3.779c0.57,1.055,1.317,1.924,2.246,2.607
			c0.926,0.686,2.008,1.189,3.245,1.514c1.236,0.328,2.504,0.486,3.806,0.486c1.041,0,2.091-0.094,3.148-0.291
			c1.057-0.195,2.009-0.525,2.854-0.996c0.846-0.473,1.528-1.119,2.049-1.932c0.521-0.811,0.781-1.855,0.781-3.123
			c0-1.203-0.317-2.18-0.951-2.926c-0.635-0.748-1.482-1.359-2.539-1.83c-1.057-0.471-2.252-0.854-3.585-1.15
			c-1.335-0.291-2.694-0.59-4.075-0.902c-1.384-0.307-2.742-0.662-4.075-1.07c-1.334-0.408-2.531-0.943-3.587-1.611
			c-1.057-0.668-1.903-1.527-2.537-2.588c-0.635-1.055-0.951-2.381-0.951-3.977c0-1.756,0.358-3.277,1.073-4.561
			c0.715-1.287,1.667-2.344,2.854-3.176c1.188-0.828,2.539-1.443,4.05-1.85c1.513-0.408,3.066-0.611,4.66-0.611
			c1.79,0,3.448,0.213,4.978,0.633c1.53,0.422,2.871,1.092,4.026,2.004s2.066,2.055,2.733,3.439
			c0.666,1.379,1.033,3.033,1.097,4.953h-4.392C56.901,270.405,55.998,268.591,54.454,267.468z"/>
		<path fill="#FFFFFF" d="M73.265,262.712v14.984h18.347v-14.984h4.636v34.84h-4.636v-15.953H73.265v15.953h-4.637v-34.84H73.265z"
			/>
		<path fill="#FFFFFF" d="M102.958,273.278c0.7-2.193,1.748-4.141,3.148-5.832c1.398-1.691,3.138-3.043,5.221-4.051
			c2.082-1.008,4.504-1.512,7.27-1.512c2.766,0,5.191,0.504,7.272,1.512c2.081,1.008,3.823,2.359,5.22,4.051
			c1.399,1.691,2.45,3.639,3.15,5.832c0.697,2.195,1.046,4.48,1.046,6.855s-0.35,4.662-1.046,6.857
			c-0.7,2.195-1.75,4.141-3.15,5.832c-1.397,1.691-3.14,3.033-5.22,4.025c-2.081,0.99-4.507,1.488-7.272,1.488
			c-2.765,0-5.188-0.498-7.27-1.488c-2.083-0.992-3.823-2.334-5.221-4.025c-1.4-1.691-2.448-3.637-3.148-5.832
			c-0.7-2.195-1.049-4.482-1.049-6.857S102.258,275.474,102.958,273.278z M107.229,285.331c0.453,1.707,1.168,3.244,2.147,4.613
			c0.976,1.363,2.227,2.461,3.757,3.293c1.529,0.826,3.351,1.24,5.464,1.24c2.116,0,3.937-0.414,5.467-1.24
			c1.53-0.832,2.782-1.93,3.757-3.293c0.975-1.369,1.691-2.906,2.147-4.613s0.684-3.441,0.684-5.197c0-1.76-0.228-3.488-0.684-5.195
			c-0.456-1.713-1.172-3.246-2.147-4.613s-2.227-2.465-3.757-3.293c-1.53-0.832-3.351-1.246-5.467-1.246
			c-2.113,0-3.935,0.414-5.464,1.246c-1.53,0.828-2.781,1.926-3.757,3.293c-0.979,1.367-1.694,2.9-2.147,4.613
			c-0.458,1.707-0.685,3.436-0.685,5.195C106.545,281.89,106.772,283.624,107.229,285.331z"/>
		<path fill="#FFFFFF" d="M167.595,297.552l-7.957-29.277h-0.096l-8.054,29.277h-4.831l-8.929-34.84h4.732l6.832,28.988h0.098
			l7.808-28.988h5.027l7.709,28.988h0.098l7.077-28.988h4.634l-9.318,34.84H167.595z"/>
		<path fill="#FFFFFF" d="M253.182,262.712c3.319,0,5.912,0.816,7.783,2.438c1.872,1.629,2.807,3.855,2.807,6.688
			c0,2.115-0.48,3.973-1.44,5.563c-0.96,1.596-2.495,2.688-4.61,3.271v0.096c1.007,0.195,1.829,0.523,2.465,0.975
			c0.634,0.455,1.138,1.004,1.513,1.639c0.372,0.631,0.648,1.342,0.829,2.121c0.178,0.779,0.317,1.598,0.412,2.439
			c0.068,0.848,0.115,1.707,0.149,2.588c0.032,0.879,0.115,1.738,0.243,2.586c0.131,0.844,0.316,1.65,0.561,2.414
			c0.243,0.768,0.611,1.441,1.101,2.023h-5.175c-0.324-0.354-0.545-0.842-0.658-1.463c-0.113-0.613-0.188-1.309-0.221-2.072
			c-0.031-0.764-0.066-1.586-0.099-2.467c-0.03-0.873-0.129-1.738-0.291-2.586c-0.129-0.844-0.294-1.65-0.487-2.414
			c-0.196-0.764-0.507-1.43-0.928-1.998c-0.422-0.572-0.976-1.029-1.659-1.367c-0.683-0.346-1.594-0.516-2.731-0.516h-11.322v14.883
			h-4.636v-34.84H253.182z M254.156,278.522c0.978-0.164,1.833-0.477,2.564-0.949s1.318-1.107,1.756-1.902
			c0.439-0.801,0.659-1.83,0.659-3.102c0-1.756-0.488-3.188-1.463-4.295c-0.979-1.104-2.557-1.66-4.735-1.66h-11.516v12.152h9.663
			C252.158,278.767,253.182,278.687,254.156,278.522z"/>
		<path fill="#FFFFFF" d="M233.833,295.995l-5.019-6.014c0.501-0.938,0.929-1.936,1.265-2.99c0.697-2.195,1.047-4.482,1.047-6.857
			s-0.35-4.66-1.047-6.855c-0.699-2.193-1.75-4.141-3.149-5.832c-1.397-1.691-3.139-3.043-5.22-4.051s-4.507-1.512-7.273-1.512
			c-2.765,0-5.188,0.504-7.269,1.512c-2.083,1.008-3.824,2.359-5.223,4.051c-1.399,1.691-2.447,3.639-3.147,5.832
			c-0.699,2.195-1.048,4.48-1.048,6.855s0.349,4.662,1.048,6.857c0.7,2.195,1.748,4.141,3.147,5.832
			c1.398,1.691,3.14,3.033,5.223,4.025c2.081,0.99,4.504,1.488,7.269,1.488c2.767,0,5.192-0.498,7.273-1.488
			c1.651-0.791,3.026-1.861,4.249-3.086l4.332,5.189L233.833,295.995z M219.903,293.237c-1.528,0.826-3.351,1.24-5.467,1.24
			c-2.112,0-3.933-0.414-5.463-1.24c-1.53-0.832-2.782-1.93-3.757-3.293c-0.979-1.369-1.694-2.906-2.147-4.613
			c-0.457-1.707-0.684-3.441-0.684-5.197c0-1.76,0.227-3.488,0.684-5.195c0.453-1.713,1.169-3.246,2.147-4.613
			c0.975-1.367,2.227-2.465,3.757-3.293c1.53-0.832,3.351-1.246,5.463-1.246c2.116,0,3.938,0.414,5.467,1.246
			c1.53,0.828,2.781,1.926,3.757,3.293c0.977,1.367,1.691,2.9,2.148,4.613c0.455,1.707,0.684,3.436,0.684,5.195
			c0,1.756-0.229,3.49-0.684,5.197c-0.069,0.254-0.185,0.482-0.266,0.732l-7.15-8.563l-3.542,2.957l8.347,9.994
			C222.289,291.567,221.222,292.521,219.903,293.237z"/>
	</g>
</g>
</svg>
